<?xml version="1.0" standalone="no"?>
<!DOCTYPE svg PUBLIC "-//W3C//DTD SVG 1.1//EN" "http://www.w3.org/Graphics/SVG/1.1/DTD/svg11.dtd" >
<svg xmlns="http://www.w3.org/2000/svg" xmlns:xlink="http://www.w3.org/1999/xlink" version="1.1">
<metadata>
Created by FontForge 20170731 at Tue Jun 13 12:26:01 2023
 By Aleksey,,,
Copyright (c) 2014 by Andriy Konstantynov. All rights reserved.
</metadata>
<defs>
<font id="AngleciaProDisplay-Regular" horiz-adv-x="536" >
  <font-face 
    font-family="Anglecia Pro Dsp"
    font-weight="400"
    font-stretch="normal"
    units-per-em="2048"
    panose-1="2 5 0 3 8 0 0 0 0 0"
    ascent="1536"
    descent="-512"
    x-height="1024"
    cap-height="1434"
    bbox="-329.101 -512 2433 2038"
    underline-thickness="102"
    underline-position="-307"
    unicode-range="U+0020-FB04"
  />
<missing-glyph horiz-adv-x="446" 
 />
    <glyph glyph-name="ff" unicode="ff" horiz-adv-x="1325" 
d="M162 1038v64q0 159 138 251.5t359 92.5q109 0 199 -43q100 80 262 80q72 0 134 -17t106.5 -59t44.5 -102q0 -50 -29 -80.5t-76 -30.5q-52 0 -86 36t-34 95v111q-32 16 -60 16q-69 0 -109 -75t-40 -201v-152h332v-41h-332v-924l184 -39v-20h-512v20l115 39v924h-383v-924
l174 -39v-20h-510v20l123 39v924h-123v16zM758 1038v138q0 114 61 190q-70 47 -160 47q-135 0 -209.5 -85.5t-74.5 -225.5v-78h340z" />
    <glyph glyph-name="fi" unicode="fi" horiz-adv-x="1134" 
d="M643 0v20l115 39v902l-99 22h-284v-924l178 -39v-20h-514v20l123 39v924h-123v16l123 39v127q0 147 127 232.5t360 85.5q93 0 165.5 -19.5t119.5 -63.5t47 -108q0 -58 -34 -90.5t-87 -32.5q-58 0 -96.5 38.5t-38.5 103.5v116q-42 25 -98 25q-121 0 -186.5 -77t-65.5 -210
v-141h260l309 14l27 -28v-951l123 -39v-20h-451z" />
    <glyph glyph-name="fl" unicode="fl" horiz-adv-x="1122" 
d="M643 0v20l129 39v1332q-57 57 -160 57q-116 0 -176.5 -73t-60.5 -199v-152h291v-41h-291v-924l184 -39v-20h-520v20l123 39v924h-123v16l123 39v138q0 145 116 226t345 81q91 0 168 -15l167 21l27 -29v-1401l123 -39v-20h-465z" />
    <glyph glyph-name="ffi" unicode="ffi" horiz-adv-x="1730" 
d="M1239 0v20l117 39v902l-101 22h-284v-924l178 -39v-20h-510v20l119 39v924h-383v-924l174 -39v-20h-510v20l123 39v924h-123v16l123 39v64q0 105 65 184t174.5 119.5t247.5 40.5q79 0 129 -14.5t99 -45.5q127 97 368 97q93 0 165.5 -19.5t119.5 -63.5t47 -108
q0 -58 -33.5 -90.5t-87.5 -32.5q-58 0 -96.5 38.5t-38.5 103.5v116q-42 25 -98 25q-121 0 -186.5 -77t-65.5 -210v-141h262l307 14l27 -28v-951l123 -39v-20h-451zM758 1038v127q0 110 80 187q-75 61 -183 61q-132 0 -206 -86t-74 -225v-78h340z" />
    <glyph glyph-name="ffl" unicode="ffl" horiz-adv-x="1744" 
d="M1239 0v20l131 39v1332q-60 57 -162 57q-116 0 -176.5 -73t-60.5 -199v-152h291v-41h-291v-924l184 -39v-20h-520v20l123 39v924h-383v-924l174 -39v-20h-510v20l123 39v924h-123v16l123 39v64q0 105 65 184t175 119.5t249 40.5q133 0 219 -53q117 90 347 90
q93 0 172 -15l165 21l27 -29v-1401l123 -39v-20h-465zM758 1038v138q0 113 71 184q-75 53 -174 53q-132 0 -206 -86t-74 -225v-78h340z" />
    <glyph glyph-name="f_f_j" unicode="ffj" horiz-adv-x="1730" 
d="M1356 33v928l-101 22h-284v-924l184 -39v-20h-516v20l119 39v924h-383v-924l174 -39v-20h-510v20l123 39v924h-123v16l123 39v64q0 105 65 184t174.5 119.5t247.5 40.5q79 0 129 -14.5t99 -45.5q127 97 368 97q93 0 165.5 -19.5t119.5 -63.5t47 -108q0 -58 -33.5 -90.5
t-87.5 -32.5q-58 0 -96.5 38.5t-38.5 103.5v116q-42 25 -98 25q-121 0 -186.5 -77t-65.5 -210v-141h262l307 14l27 -28v-977q0 -149 -78.5 -255.5t-235.5 -197.5l-24 23q67 94 97 197t30 233zM758 1038v127q0 110 80 187q-75 61 -183 61q-132 0 -206 -86t-74 -225v-78h340z
" />
    <glyph glyph-name="f_j" unicode="fj" horiz-adv-x="1134" 
d="M758 33v928l-99 22h-284v-924l184 -39v-20h-520v20l123 39v924h-123v16l123 39v127q0 147 127 232.5t360 85.5q93 0 165.5 -19.5t119.5 -63.5t47 -108q0 -58 -34 -90.5t-87 -32.5q-58 0 -96.5 38.5t-38.5 103.5v116q-42 25 -98 25q-121 0 -186.5 -77t-65.5 -210v-141h260
l309 14l27 -28v-977q0 -149 -79 -255.5t-237 -197.5l-22 23q67 94 96 196.5t29 233.5z" />
    <glyph glyph-name=".notdef" horiz-adv-x="446" 
 />
    <glyph glyph-name=".null" horiz-adv-x="0" 
 />
    <glyph glyph-name="nonmarkingreturn" horiz-adv-x="682" 
 />
    <glyph glyph-name="space" unicode=" " horiz-adv-x="446" 
 />
    <glyph glyph-name="exclam" unicode="!" horiz-adv-x="434" 
d="M242 401h-49q-16 217 -32.5 386t-29 256t-22.5 144t-15.5 83t-5.5 41q0 56 37 93.5t92 37.5t92 -37.5t37 -93.5q0 -15 -5 -41t-15 -82.5t-22.5 -143.5t-29 -256t-32.5 -387zM92 119q0 54 35.5 90.5t89.5 36.5t89.5 -36.5t35.5 -90.5t-35.5 -90.5t-89.5 -36.5t-89.5 36.5
t-35.5 90.5z" />
    <glyph glyph-name="quotedbl" unicode="&#x22;" horiz-adv-x="591" 
d="M197 1022h-45q-7 98 -21.5 172t-25.5 111.5t-11 54.5q0 35 22.5 58.5t57.5 23.5q34 0 57 -23.5t23 -58.5q0 -17 -10.5 -54.5t-25 -111.5t-21.5 -172zM451 1022h-43q-7 98 -22 172t-26.5 111.5t-11.5 54.5q0 35 23 58.5t57 23.5q35 0 58.5 -23.5t23.5 -58.5
q0 -17 -11 -54.5t-26 -111.5t-22 -172z" />
    <glyph glyph-name="numbersign" unicode="#" horiz-adv-x="1159" 
d="M143 922v61h254l133 451h68l-133 -451h389l133 451h68l-133 -451h168v-61h-187l-123 -410h238v-63h-256l-133 -449h-68l133 449h-389l-133 -449h-68l134 449h-168v63h186l123 410h-236zM446 922l-122 -410h389l123 410h-390z" />
    <glyph glyph-name="dollar" unicode="$" horiz-adv-x="1206" 
d="M610 -102h-47v90q-199 6 -360 96h-101v250h37q17 -76 53.5 -134.5t80 -92t97.5 -54.5t100 -28t93 -7l8 611q-179 53 -250 89q-154 77 -191 214q-13 49 -13 108q0 86 27.5 157.5t83 127.5t146 88t208.5 33l2 90h49l-2 -92q170 -8 319 -94h101v-252h-37q-16 74 -49.5 132
t-73 91t-88.5 55t-89.5 30t-82.5 9l-8 -569h4q65 -20 104 -33.5t96 -37.5t92 -46t75 -56t62 -71t37 -88t15 -111q0 -182 -123.5 -295.5t-374.5 -119.5v-90zM934 330q0 38 -7.5 69t-20 55t-34.5 44.5t-45.5 35.5t-59.5 30t-68.5 25.5t-80.5 24.5l-8 -594q153 9 238.5 90.5
t85.5 219.5zM291 1126q0 -59 18.5 -101.5t60 -72.5t86 -49t119.5 -43l7 553q-134 -10 -212.5 -88.5t-78.5 -198.5z" />
    <glyph glyph-name="percent" unicode="%" horiz-adv-x="1501" 
d="M90 1075q0 168 84 269.5t217 101.5t216 -101t83 -270q0 -170 -82.5 -270t-216.5 -100t-217.5 100t-83.5 270zM233 1075q0 -164 43.5 -252t114.5 -88t114.5 88t43.5 252t-43.5 252t-114.5 88t-114.5 -88t-43.5 -252zM365 0h-80l852 1434h80zM809 358q0 168 84 269.5
t217 101.5t216 -101t83 -270q0 -170 -82.5 -270t-216.5 -100t-217.5 100t-83.5 270zM952 358q0 -164 43.5 -252t114.5 -88t114.5 88t43.5 252t-43.5 252t-114.5 88t-114.5 -88t-43.5 -252z" />
    <glyph glyph-name="ampersand" unicode="&#x26;" horiz-adv-x="1472" 
d="M1249 782q0 -297 -106 -483l198 -246l109 -33v-20h-336l-123 145q-155 -155 -401 -155q-228 0 -362 113.5t-134 299.5q0 70 21 129t51.5 99.5t82 78t96.5 60.5t110 51q-131 169 -131 328q0 137 85.5 216t254.5 79q157 0 232 -69t75 -181q0 -60 -21.5 -112.5t-62.5 -94
t-87.5 -73.5t-107.5 -62l422 -516q48 94 68 199t20 247l-127 37v19h301v-19zM643 45q101 0 178 32t144 105l-443 543q-49 -29 -84 -57t-67.5 -69t-49 -96t-16.5 -124q0 -166 87 -250t251 -84zM522 1206q0 -73 29.5 -141.5t97.5 -157.5q60 29 103.5 56t84.5 63t62 81t21 97
q0 91 -62.5 147t-157.5 56q-85 0 -131.5 -50t-46.5 -151z" />
    <glyph glyph-name="quotesingle" unicode="'" horiz-adv-x="348" 
d="M197 1022h-45q-7 98 -21.5 172t-25.5 111.5t-11 54.5q0 35 22.5 58.5t57.5 23.5q34 0 57 -23.5t23 -58.5q0 -17 -10.5 -54.5t-25 -111.5t-21.5 -172z" />
    <glyph glyph-name="parenleft" unicode="(" horiz-adv-x="548" 
d="M98 563q0 323 91 555t276 428l24 -22q-104 -203 -150 -434t-46 -527t46 -526t150 -434l-24 -23q-185 196 -276 428t-91 555z" />
    <glyph glyph-name="parenright" unicode=")" horiz-adv-x="548" 
d="M451 563q0 -323 -91 -555t-276 -428l-23 23q103 205 150 436t47 524t-47 524.5t-150 436.5l23 22q185 -196 276 -428t91 -555z" />
    <glyph glyph-name="asterisk" unicode="*" horiz-adv-x="884" 
d="M442 1022q-48 -74 -77.5 -134.5t-41.5 -92.5t-20 -43q-17 -23 -42.5 -27.5t-47.5 12.5q-23 15 -26 41t14 49q8 11 34 32.5t74 68t105 114.5q-86 22 -152.5 32t-101 12t-47.5 6q-27 8 -39.5 30.5t-3.5 48.5t32.5 38t49.5 3q14 -4 42.5 -22t88 -50t141.5 -65
q-5 88 -16.5 154.5t-20 99.5t-8.5 47q0 28 18 47t45 19q28 0 46 -19t18 -47q0 -14 -8 -47t-19.5 -99.5t-17.5 -154.5q81 33 140.5 65t88 50t41.5 22q28 9 51.5 -2t32.5 -39q8 -25 -5 -49.5t-40 -31.5q-12 -3 -46 -5t-100.5 -12t-152.5 -31q56 -68 105 -115t75.5 -68.5
t34.5 -31.5q18 -23 14 -50t-28 -42q-22 -15 -48.5 -10.5t-41.5 27.5q-9 12 -21.5 43t-42.5 92t-76 135z" />
    <glyph glyph-name="plus" unicode="+" horiz-adv-x="927" 
d="M78 584v61h354v354h64v-354h354v-61h-354v-357h-64v357h-354z" />
    <glyph glyph-name="comma" unicode="," horiz-adv-x="411" 
d="M129 -238l-25 25q44 44 76.5 101t32.5 89q0 18 -8 23q-53 0 -89 34.5t-36 86.5q0 54 36 89.5t89 35.5t90 -36.5t37 -103.5q0 -48 -19.5 -98t-55 -98t-63 -79t-65.5 -69z" />
    <glyph glyph-name="hyphen" unicode="-" horiz-adv-x="620" 
d="M78 559v62h465v-62h-465z" />
    <glyph glyph-name="period" unicode="." horiz-adv-x="411" 
d="M80 119q0 54 36 90.5t89 36.5q55 0 91 -36.5t36 -90.5t-36 -90.5t-91 -36.5q-53 0 -89 36.5t-36 90.5z" />
    <glyph glyph-name="slash" unicode="/" horiz-adv-x="704" 
d="M70 -205h-68l631 1741h67z" />
    <glyph glyph-name="zero" unicode="0" horiz-adv-x="1337" 
d="M98 717q0 331 158.5 530t413.5 199q253 0 412 -199t159 -530q0 -334 -158.5 -531.5t-412.5 -197.5q-255 0 -413.5 197.5t-158.5 531.5zM324 717q0 -338 94.5 -518.5t251.5 -180.5q156 0 251 181t95 518q0 336 -95 517t-251 181q-157 0 -251.5 -180.5t-94.5 -517.5z" />
    <glyph glyph-name="one" unicode="1" horiz-adv-x="729" 
d="M94 0v20l170 39v1297h-196v30l383 62l26 -29v-1360l172 -39v-20h-555z" />
    <glyph glyph-name="two" unicode="2" horiz-adv-x="1081" 
d="M70 0v78q242 222 330 313q245 254 326 468q48 127 48 255q0 146 -69.5 221.5t-198.5 75.5q-97 0 -178 -59v-203q0 -62 -35.5 -98.5t-93.5 -36.5q-55 0 -90 33.5t-35 95.5q0 128 126 213.5t324 85.5q220 0 343.5 -92t123.5 -271q0 -77 -24.5 -155t-62.5 -145.5
t-101.5 -141.5t-122.5 -131.5t-146.5 -128.5t-152.5 -119.5t-160 -116.5h682l70 189h35v-330h-938z" />
    <glyph glyph-name="three" unicode="3" horiz-adv-x="1210" 
d="M389 1354v-183q0 -63 -35 -100t-92 -37q-56 0 -91.5 34.5t-35.5 96.5q0 66 43 121t111.5 89t151 52.5t165.5 18.5q206 0 327.5 -99t121.5 -266q0 -136 -86 -225.5t-242 -120.5q179 -30 282 -124.5t103 -241.5q0 -174 -138 -277.5t-364 -103.5q-121 0 -229 30t-182 95.5
t-74 154.5q0 62 35 95.5t90 33.5q58 0 93.5 -36.5t35.5 -98.5v-182q80 -53 192 -53q145 0 234.5 89t89.5 251q0 174 -106 260t-287 86h-88v41h86q157 0 247.5 82t90.5 249q0 154 -73 237t-194 83q-107 0 -182 -51z" />
    <glyph glyph-name="four" unicode="4" horiz-adv-x="1196" 
d="M616 0v20l123 39v248h-639v31q181 322 270 574t89 522h213q0 -122 -26.5 -241t-70.5 -222t-114 -213.5t-142.5 -203.5t-171.5 -206h592v504l185 186l28 -28v-662h148v-41h-148v-248l123 -39v-20h-459z" />
    <glyph glyph-name="five" unicode="5" horiz-adv-x="1136" 
d="M356 250v-176q86 -54 176 -54q142 0 223 107.5t81 292.5q0 194 -95 304t-276 110q-153 0 -254 -76l-23 24l58 645q429 0 704 35v-176h-639l-92 -485q136 84 328 84q249 0 378.5 -120.5t129.5 -324.5q0 -209 -135.5 -329.5t-378.5 -120.5q-116 0 -214 29.5t-161.5 90.5
t-63.5 144q0 63 35 97t90 34q59 0 94 -36t35 -99z" />
    <glyph glyph-name="six" unicode="6" horiz-adv-x="1198" 
d="M313 754q112 112 316 112q214 0 344.5 -118t130.5 -318q0 -202 -132 -321t-351 -119q-257 0 -392 170.5t-135 470.5q0 376 215 577t615 236l20 -21q-164 -33 -282 -94.5t-190.5 -149.5t-110 -191t-48.5 -234zM311 657q0 -139 18 -254t53.5 -201t93 -134t132.5 -48
q127 0 203 110.5t76 299.5q0 185 -83.5 290t-215.5 105q-93 0 -168 -46t-109 -122z" />
    <glyph glyph-name="seven" unicode="7" horiz-adv-x="1126" 
d="M600 0h-213q0 149 35 288t97.5 264t127.5 233t147 247t134 254h-711l-82 -188h-33v336h910v-31q-40 -117 -104 -279t-112.5 -286.5t-96 -268t-73.5 -287.5t-26 -282z" />
    <glyph glyph-name="eight" unicode="8" horiz-adv-x="1177" 
d="M1020 1104q0 -68 -19.5 -122.5t-56.5 -93t-77 -65t-93 -49.5q73 -30 124.5 -60.5t96.5 -74.5t67.5 -105t22.5 -139q0 -88 -29 -160t-88.5 -128.5t-161 -87.5t-237.5 -31q-238 0 -356.5 95.5t-118.5 256.5q0 74 24 134t69.5 103.5t94.5 74t115 57.5q-124 51 -188 128
t-64 216q0 83 25.5 152.5t78 124.5t142 85.5t209.5 30.5q208 0 314 -93t106 -249zM569 647q-62 20 -120 41q-59 -34 -95.5 -70t-61 -101t-24.5 -155q0 -342 320 -342q158 0 246 81t88 227q0 37 -5.5 67.5t-18.5 56t-27.5 45.5t-40.5 38.5t-49 31.5t-61.5 28t-69.5 25.5
t-81 26.5zM629 827q21 -8 76 -26q75 53 112 120.5t37 172.5q0 155 -70 237t-200 82t-205.5 -77.5t-75.5 -202.5q0 -53 15 -94t38.5 -69.5t68.5 -55t89 -45t115 -42.5z" />
    <glyph glyph-name="nine" unicode="9" horiz-adv-x="1191" 
d="M874 680q-114 -111 -307 -111q-214 0 -343.5 114.5t-129.5 313.5q0 203 136.5 325t357.5 122q252 0 381 -163t129 -464q0 -201 -59.5 -353.5t-173 -251t-269.5 -153t-358 -67.5l-21 20q144 22 253 65t180.5 101t119.5 138.5t71 167t33 196.5zM881 776q0 141 -16 254
t-49.5 200.5t-89.5 135t-132 47.5q-131 0 -210 -115t-79 -305q0 -182 83.5 -282.5t213.5 -100.5q94 0 168 45t111 121z" />
    <glyph glyph-name="colon" unicode=":" horiz-adv-x="411" 
d="M80 119q0 54 36 90.5t89 36.5q55 0 91 -36.5t36 -90.5t-36 -90.5t-91 -36.5q-53 0 -89 36.5t-36 90.5zM80 905q0 54 36 90.5t89 36.5q55 0 91 -36.5t36 -90.5t-36 -90.5t-91 -36.5q-53 0 -89 36.5t-36 90.5z" />
    <glyph glyph-name="semicolon" unicode=";" horiz-adv-x="411" 
d="M129 -238l-25 25q44 44 76.5 101t32.5 89q0 18 -8 23q-53 0 -89 34.5t-36 86.5q0 54 36 89.5t89 35.5t90 -36.5t37 -103.5q0 -48 -19.5 -98t-55 -98t-63 -79t-65.5 -69zM80 905q0 54 36 90.5t89 36.5q55 0 91 -36.5t36 -90.5t-36 -90.5t-91 -36.5q-53 0 -89 36.5
t-36 90.5z" />
    <glyph glyph-name="less" unicode="&#x3c;" horiz-adv-x="927" 
d="M799 913l28 -57l-628 -293l628 -293l-28 -55l-699 326v45z" />
    <glyph glyph-name="equal" unicode="=" horiz-adv-x="927" 
d="M78 729v64h772v-64h-772zM78 436v62h772v-62h-772z" />
    <glyph glyph-name="greater" unicode="&#x3e;" horiz-adv-x="927" 
d="M100 856l27 57l700 -327v-45l-700 -326l-27 55l627 293z" />
    <glyph glyph-name="question" unicode="?" horiz-adv-x="1038" 
d="M537 401h-50q-10 96 -2 159.5t30.5 117.5t52 90t61 76t58.5 76t44 90.5t17 119.5q0 127 -68 204t-186 77q-88 0 -166 -55v-193q0 -64 -35.5 -100.5t-93.5 -36.5q-55 0 -90 34t-35 99q0 120 123.5 201.5t308.5 81.5q212 0 335.5 -91t123.5 -253q0 -67 -23.5 -124.5
t-61.5 -99t-83.5 -80.5t-91 -78.5t-83.5 -82.5t-61.5 -102.5t-23.5 -129.5zM391 119q0 54 36 90.5t89 36.5q54 0 90.5 -36.5t36.5 -90.5t-36.5 -90.5t-90.5 -36.5q-53 0 -89 36.5t-36 90.5z" />
    <glyph glyph-name="at" unicode="@" horiz-adv-x="1794" 
d="M1544 -90l25 -25q-103 -102 -273 -155.5t-366 -53.5q-388 0 -610 197t-222 541q0 336 213.5 528.5t606.5 192.5q159 0 288.5 -33.5t219.5 -93.5t151.5 -145t90 -186.5t28.5 -219.5q0 -218 -99 -342.5t-286 -124.5q-189 0 -215 114l-6 2q-113 -116 -281 -116
q-167 0 -256.5 114.5t-89.5 303.5q0 221 121.5 337.5t341.5 116.5q117 0 229 -41l90 47l29 -30v-717q0 -84 69 -84q78 0 126.5 104.5t48.5 286.5q0 664 -600 664q-314 0 -475.5 -179.5t-161.5 -492.5q0 -156 42 -279.5t126.5 -214.5t221 -139.5t318.5 -48.5q162 0 314 41.5
t241 130.5zM1087 147v641q-94 46 -165 46q-127 0 -196 -104t-69 -296q0 -173 65 -278t175 -105q107 0 190 96z" />
    <glyph glyph-name="A" unicode="A" horiz-adv-x="1546" 
d="M823 1434l576 -1375l131 -39v-20h-494v20l135 39l-172 416h-618l-180 -416l180 -39v-20h-365v20l140 39l600 1375h67zM698 1208l-299 -690h582z" />
    <glyph glyph-name="B" unicode="B" horiz-adv-x="1339" 
d="M39 1434h655q220 0 356 -96t136 -261q0 -134 -89 -223t-243 -119q180 -30 284.5 -124t104.5 -238q0 -171 -151.5 -272t-397.5 -101h-655v16l133 33v1335l-133 31v19zM393 41h260q165 0 265 87t100 249q0 164 -99.5 250t-265.5 86h-260v-672zM653 1393h-260v-639h260
q139 0 223.5 82t84.5 237q0 154 -85 237t-223 83z" />
    <glyph glyph-name="C" unicode="C" horiz-adv-x="1441" 
d="M1313 219l22 -24q-204 -207 -530 -207q-324 0 -515.5 196t-191.5 533q0 335 191 532t508 197q122 0 233.5 -31t192.5 -92l86 51l20 -20v-283h-35q-17 81 -58 143t-89 96t-108.5 55t-107 27.5t-93.5 6.5q-238 0 -373 -173.5t-135 -500.5q0 -153 34 -275.5t100.5 -211.5
t172.5 -137t244 -48q269 0 432 166z" />
    <glyph glyph-name="D" unicode="D" horiz-adv-x="1486" 
d="M39 1434h653q205 0 362 -85.5t246 -249t89 -382.5q0 -221 -89 -384.5t-246 -248t-362 -84.5h-653v16l133 33v1335l-133 31v19zM692 1393h-299v-1352h299q210 0 337.5 173t127.5 501q0 329 -127.5 503.5t-337.5 174.5z" />
    <glyph glyph-name="E" unicode="E" horiz-adv-x="1267" 
d="M393 41h639l96 209h33v-250h-1122v16l133 33v1335l-133 31v19h1102v-252h-33l-96 211h-619v-631h500l43 160h31v-363h-31l-43 160h-500v-678z" />
    <glyph glyph-name="F" unicode="F" horiz-adv-x="1220" 
d="M848 719h-455v-660l195 -39v-20h-549v20l133 39v1325l-133 31v19h1075v-252h-35l-94 211h-592v-631h455l43 160h33v-363h-33z" />
    <glyph glyph-name="G" unicode="G" horiz-adv-x="1527" 
d="M1360 629v-555l-27 -27l-112 47q-172 -106 -412 -106q-327 0 -519 196t-192 533q0 336 192 532.5t511 196.5q122 0 234.5 -31t193.5 -92l88 51l20 -20v-283h-34q-17 81 -59 143t-90.5 96t-109.5 55t-108.5 27.5t-95.5 6.5q-242 0 -376 -175t-134 -511
q0 -307 131.5 -490.5t376.5 -183.5q183 0 303 92v498l-133 37v20h479v-20z" />
    <glyph glyph-name="H" unicode="H" horiz-adv-x="1525" 
d="M39 20l133 39v1315l-133 39v21h487v-21l-133 -39v-622h742v622l-134 39v21h486v-21l-133 -39v-1315l133 -39v-20h-486v20l134 39v650h-742v-650l133 -39v-20h-487v20z" />
    <glyph glyph-name="I" unicode="I" horiz-adv-x="565" 
d="M391 1374v-1315l127 -39v-20h-477v20l133 39v1315l-133 39v21h477v-21z" />
    <glyph glyph-name="J" unicode="J" horiz-adv-x="565" 
d="M174 33v1341l-133 39v21h475v-21l-125 -39v-1341q0 -149 -80 -255.5t-241 -197.5l-23 23q66 95 96.5 198t30.5 232z" />
    <glyph glyph-name="K" unicode="K" horiz-adv-x="1411" 
d="M385 1374v-733l688 733l-166 39v21h369v-21l-146 -39l-434 -467l566 -854l118 -33v-20h-327l-508 758l-160 -172v-527l133 -39v-20h-485v20l133 39v1315l-133 39v21h485v-21z" />
    <glyph glyph-name="L" unicode="L" horiz-adv-x="1202" 
d="M393 41h568l96 209h33v-250h-1051v16l133 33v1325l-133 39v21h487v-21l-133 -39v-1333z" />
    <glyph glyph-name="M" unicode="M" horiz-adv-x="1884" 
d="M1632 1374l94 -1315l127 -39v-20h-479v20l133 39l-86 1186l-526 -1245h-68l-534 1247l-88 -1192l125 -39v-16h-301v16l133 39l96 1319l-133 39v21h313l512 -1209l508 1209h301v-21z" />
    <glyph glyph-name="N" unicode="N" horiz-adv-x="1427" 
d="M39 16l133 39v1319l-133 39v21h364l809 -1127v1071l-133 37v19h310v-19l-134 -37v-1378h-63l-977 1356v-1301l133 -39v-16h-309v16z" />
    <glyph glyph-name="O" unicode="O" horiz-adv-x="1574" 
d="M98 717q0 220 87.5 386t243.5 254.5t359 88.5q202 0 358.5 -88.5t244.5 -255t88 -385.5q0 -334 -191.5 -531.5t-499.5 -197.5q-203 0 -359 87.5t-243.5 253.5t-87.5 388zM330 715q0 -336 125 -516.5t333 -180.5q206 0 331.5 180.5t125.5 516.5q0 337 -125.5 518.5
t-331.5 181.5q-208 0 -333 -181t-125 -519z" />
    <glyph glyph-name="P" unicode="P" horiz-adv-x="1261" 
d="M590 1393h-197v-1334l205 -39v-20h-559v20l133 39v1325l-133 31v19h577q246 0 397.5 -110t151.5 -300t-151.5 -300t-397.5 -110h-165l-27 27v14h166q159 0 254.5 95t95.5 274t-95.5 274t-254.5 95z" />
    <glyph glyph-name="Q" unicode="Q" horiz-adv-x="1574" 
d="M1556 -137l19 -19q-108 -108 -287 -108q-59 0 -118.5 12.5t-104.5 29t-103 48t-92 53t-94 61.5t-88 58q-269 30 -429.5 222t-160.5 495q0 335 190.5 533t499.5 198q202 0 358.5 -88.5t244.5 -255t88 -385.5q0 -283 -142 -470t-379 -235q54 -21 118.5 -58t109.5 -66
t103 -51.5t110 -22.5q42 0 87 12t70 37zM330 715q0 -336 124.5 -510t333.5 -174q207 0 332 174.5t125 509.5q0 336 -125.5 518t-331.5 182q-208 0 -333 -181t-125 -519z" />
    <glyph glyph-name="R" unicode="R" horiz-adv-x="1349" 
d="M1161 1044q0 -152 -100 -251t-270 -121q43 -16 75.5 -53t65.5 -95l270 -471l119 -33v-20h-317l-373 662h-238v-603l133 -39v-20h-487v20l133 39v1325l-133 31v19h614q229 0 368.5 -104t139.5 -286zM627 1393h-234v-691h234q140 0 224.5 89t84.5 256q0 168 -84.5 257
t-224.5 89z" />
    <glyph glyph-name="S" unicode="S" horiz-adv-x="1206" 
d="M113 43v291h37q18 -77 55 -135.5t80 -92t96.5 -54t98 -27.5t91.5 -7q170 0 266.5 82.5t96.5 229.5q0 31 -5.5 58t-13.5 48.5t-24.5 41t-31 33.5t-41.5 28.5t-48.5 24.5t-58.5 22.5t-63.5 21t-72.5 21.5q-180 53 -252 89q-154 76 -192 212q-14 50 -14 110q0 179 119 292.5
t352 113.5q196 0 344 -96l86 59l20 -20v-291h-37q-17 76 -51 134.5t-73.5 92t-88 55t-89 28.5t-81.5 7q-149 0 -238 -80t-89 -209q0 -29 5.5 -54.5t13 -45.5t24.5 -38.5t30.5 -31.5t40.5 -27t45 -22.5t54.5 -21t57.5 -19.5t65 -20q65 -20 104 -33.5t96 -37.5t92 -46t75 -56
t62 -71t37 -88t15 -111q0 -89 -30.5 -163.5t-92 -131t-162 -88.5t-231.5 -32q-213 0 -371 96l-88 -61z" />
    <glyph glyph-name="T" unicode="T" horiz-adv-x="1376" 
d="M1182 1393h-383v-1334l133 -39v-20h-488v20l134 39v1334h-381l-97 -211h-32v252h1243v-252h-35z" />
    <glyph glyph-name="U" unicode="U" horiz-adv-x="1472" 
d="M1298 1378v-846q0 -252 -154.5 -398t-406.5 -146q-253 0 -409 147.5t-156 396.5v842l-133 39v21h487v-21l-133 -39v-842q0 -221 118 -342.5t308 -121.5q195 0 316.5 124.5t121.5 339.5v846l-133 37v19h308v-19z" />
    <glyph glyph-name="V" unicode="V" horiz-adv-x="1546" 
d="M739 0l-592 1374l-131 39v21h494v-21l-135 -39l487 -1149l484 1149l-181 39v21h365v-21l-139 -39l-584 -1374h-68z" />
    <glyph glyph-name="W" unicode="W" horiz-adv-x="2435" 
d="M1649 0l-435 1040l-426 -1040h-65l-576 1374l-131 39v21h494v-21l-135 -39l471 -1149l346 869l-119 280l-131 39v21h494v-21l-136 -39l472 -1149l462 1149l-180 39v21h365v-21l-140 -39l-563 -1374h-67z" />
    <glyph glyph-name="X" unicode="X" horiz-adv-x="1519" 
d="M1133 59l-447 619l-459 -619l172 -39v-20h-366v20l145 39l481 650l-477 665l-125 39v21h488v-21l-133 -39l407 -573l408 573l-174 39v21h366v-21l-143 -39l-430 -606l514 -709l127 -39v-20h-490v20z" />
    <glyph glyph-name="Y" unicode="Y" horiz-adv-x="1482" 
d="M375 1374l446 -706l453 706l-172 39v21h364v-21l-145 -39l-479 -751v-564l127 -39v-20h-480v20l134 39v564l-480 751l-127 39v21h494v-21z" />
    <glyph glyph-name="Z" unicode="Z" horiz-adv-x="1255" 
d="M84 0v31l850 1362h-701l-98 -211h-35v252h1063v-31l-846 -1362h732l98 209h35v-250h-1098z" />
    <glyph glyph-name="bracketleft" unicode="[" horiz-adv-x="583" 
d="M317 1477v-1827l230 -39v-21h-422v1946h422v-20z" />
    <glyph glyph-name="backslash" unicode="\" horiz-adv-x="704" 
d="M700 -205h-67l-631 1741h68z" />
    <glyph glyph-name="bracketright" unicode="]" horiz-adv-x="583" 
d="M266 -350v1827l-229 39v20h422v-1946h-422v21z" />
    <glyph glyph-name="asciicircum" unicode="^" horiz-adv-x="829" 
d="M399 1444h31l332 -406l-21 -22l-327 274l-326 -274l-20 22z" />
    <glyph glyph-name="underscore" unicode="_" horiz-adv-x="1290" 
d="M2 -166v64h1284v-64h-1284z" />
    <glyph glyph-name="grave" unicode="`" horiz-adv-x="567" 
d="M201 1442l282 -289l-20 -23l-379 193z" />
    <glyph glyph-name="a" unicode="a" horiz-adv-x="1118" 
d="M750 123l-7 6q-71 -67 -166 -104t-200 -37q-138 0 -207.5 63t-69.5 174q0 139 118 209q94 55 333 99q51 9 164 27l1 1h1h1h1h1h1l1 1h1h1h1h1h1l1 1h1h1h1h1h1l1 1h1h1h1h1h1l1 1h1h2v193q0 108 -56 173.5t-157 65.5q-81 0 -151 -47v-166q0 -62 -35 -98.5t-90 -36.5
q-54 0 -88.5 34t-34.5 95q0 78 59 136.5t149.5 87t195.5 28.5q199 0 310 -87t111 -224v-625q0 -28 12 -39.5t38 -11.5q44 0 67 23l14 -15q-55 -55 -186 -55q-68 0 -106 29t-45 98zM743 176v359q-204 -32 -267 -53q-105 -35 -138 -109q-21 -49 -21 -121q0 -94 45.5 -143.5
t124.5 -49.5q69 0 137 31.5t119 85.5z" />
    <glyph glyph-name="b" unicode="b" horiz-adv-x="1191" 
d="M162 57v1350l-123 27v22l309 33l27 -29v-436l-6 -127l6 -6q134 141 336 141q198 0 299.5 -134.5t101.5 -362.5q0 -267 -140.5 -406t-414.5 -139q-224 0 -395 67zM375 846v-787q115 -39 194 -39q158 0 242 125.5t84 356.5q0 207 -79 333t-208 126q-139 0 -233 -115z" />
    <glyph glyph-name="c" unicode="c" horiz-adv-x="1136" 
d="M778 772v176q-85 53 -174 53q-145 0 -225 -123t-80 -335q0 -232 96.5 -362t284.5 -130q178 0 301 123l23 -24q-160 -160 -408 -160q-252 0 -384 140t-132 378q0 245 135.5 384.5t384.5 139.5q111 0 207.5 -29t160.5 -91t64 -144q0 -64 -35 -97.5t-92 -33.5
q-58 0 -92.5 36.5t-34.5 98.5z" />
    <glyph glyph-name="d" unicode="d" horiz-adv-x="1196" 
d="M1032 68l123 -27v-23l-307 -24l-27 26l6 103l-6 6q-133 -139 -336 -139q-200 0 -302.5 134.5t-102.5 362.5q0 260 132.5 402.5t369.5 142.5q127 0 239 -55v430l-123 27v22l308 33l26 -29v-1392zM821 176v772q-109 53 -203 53q-153 0 -236 -125.5t-83 -355.5
q0 -207 79 -334t210 -127q137 0 233 117z" />
    <glyph glyph-name="e" unicode="e" horiz-adv-x="1142" 
d="M1014 512h-715q0 -219 100.5 -339t296.5 -120q180 0 301 121l23 -24q-160 -160 -412 -160q-130 0 -232 39t-166 108t-97 161t-33 202q0 241 144 386.5t370 145.5q201 0 330 -114.5t129 -296.5q0 -45 -11 -82zM602 1001q-121 0 -209 -117.5t-94 -340.5l545 30
q0 211 -63 319.5t-179 108.5z" />
    <glyph glyph-name="f" unicode="f" horiz-adv-x="731" 
d="M162 1038v138q0 144 91 225.5t267 81.5q75 0 137.5 -17t106 -59t43.5 -102q0 -50 -27.5 -80.5t-74.5 -30.5q-52 0 -86.5 36t-34.5 95v111q-32 16 -60 16q-69 0 -109 -75t-40 -201v-152h332v-41h-332v-924l184 -39v-20h-520v20l123 39v924h-123v16z" />
    <glyph glyph-name="g" unicode="g" horiz-adv-x="1150" 
d="M907 961h-88q73 -43 113.5 -112t40.5 -155q0 -151 -118.5 -240t-311.5 -89q-163 0 -267 61q-57 -65 -57 -141q0 -113 162 -113h346q328 0 328 -252q0 -162 -143.5 -249t-424.5 -87q-199 0 -309 46t-110 137q0 117 188 225q-143 41 -143 194q0 70 32.5 126t106.5 128
q-137 91 -137 254q0 152 118.5 243t309.5 91q23 0 73 -4h431v-20zM317 696q0 -146 62 -223.5t164 -77.5q103 0 165 78t62 223q0 144 -62 222.5t-165 78.5q-102 0 -164 -78t-62 -223zM379 -23q-17 0 -62 5q-46 -52 -62.5 -91t-16.5 -81q0 -104 74.5 -147.5t217.5 -43.5
q182 0 288 57.5t106 159.5q0 62 -42.5 101.5t-133.5 39.5h-369z" />
    <glyph glyph-name="h" unicode="h" horiz-adv-x="1249" 
d="M375 834v-775l108 -39v-20h-444v20l123 39v1348l-123 27v22l309 33l27 -29v-436l-6 -139l6 -6q77 72 187 112.5t214 40.5q158 0 234.5 -93t76.5 -259v-621l123 -39v-20h-444v20l108 39v586q0 316 -202 316q-72 0 -155.5 -34.5t-141.5 -92.5z" />
    <glyph glyph-name="i" unicode="i" 
d="M39 0v20l123 39v897l-123 27v23l309 32l27 -28v-951l123 -39v-20h-459zM109 1311q0 63 41 104t104 41t105 -41t42 -104t-42 -104.5t-105 -41.5t-104 41.5t-41 104.5z" />
    <glyph glyph-name="j" unicode="j" 
d="M162 33v923l-123 27v23l309 32l27 -28v-977q0 -149 -79 -255.5t-237 -197.5l-22 23q66 95 95.5 197.5t29.5 232.5zM109 1311q0 63 41 104t104 41t105 -41t42 -104t-42 -104.5t-105 -41.5t-104 41.5t-41 104.5z" />
    <glyph glyph-name="k" unicode="k" horiz-adv-x="1153" 
d="M827 0l-327 537l-125 -136v-342l123 -39v-20h-459v20l123 39v1348l-123 27v22l309 33l27 -29v-1003l479 508l-158 39v20h348v-20l-135 -39l-266 -289l379 -623l108 -33v-20h-303z" />
    <glyph glyph-name="l" unicode="l" 
d="M39 0v20l123 39v1348l-123 27v22l309 33l27 -29v-1401l123 -39v-20h-459z" />
    <glyph glyph-name="m" unicode="m" horiz-adv-x="1814" 
d="M375 827v-768l104 -39v-20h-440v20l123 39v897l-123 27v23l309 32l27 -28l-6 -125l6 -6q68 72 167 112.5t191 40.5q184 0 248 -160q77 75 184 117.5t205 42.5q145 0 214 -92.5t69 -259.5v-621l123 -39v-20h-441v20l105 39v586q0 316 -187 316q-65 0 -137 -32t-125 -91
q23 -74 23 -158v-621l104 -39v-20h-422v20l105 39v586q0 144 -42.5 230t-135.5 86q-65 0 -133.5 -36t-114.5 -98z" />
    <glyph glyph-name="n" unicode="n" horiz-adv-x="1249" 
d="M375 834v-775l108 -39v-20h-444v20l123 39v897l-123 27v23l309 32l27 -28l-6 -125l6 -6q75 72 186 112.5t215 40.5q157 0 234 -93.5t77 -258.5v-621l123 -39v-20h-444v20l108 39v586q0 144 -50.5 230t-159.5 86q-76 0 -155.5 -35t-133.5 -92z" />
    <glyph glyph-name="o" unicode="o" horiz-adv-x="1193" 
d="M80 510q0 236 143 379t375 143q230 0 373 -143t143 -379q0 -237 -142.5 -378.5t-373.5 -141.5q-232 0 -375 141.5t-143 378.5zM299 510q0 -236 81.5 -363t217.5 -127q137 0 218 127t81 363q0 237 -81 364t-218 127q-136 0 -217.5 -127t-81.5 -364z" />
    <glyph glyph-name="p" unicode="p" horiz-adv-x="1191" 
d="M39 -410v21l123 39v1306l-123 27v23l309 32l27 -28l-6 -113l6 -6q134 141 336 141q198 0 299.5 -134.5t101.5 -362.5q0 -260 -131 -402.5t-367 -142.5q-138 0 -239 55v-395l184 -39v-21h-520zM375 846v-770q106 -56 200 -56q153 0 236.5 126.5t83.5 355.5
q0 206 -78.5 332.5t-208.5 126.5q-138 0 -233 -115z" />
    <glyph glyph-name="q" unicode="q" horiz-adv-x="1171" 
d="M1032 -350l123 -39v-21h-457v21l123 39v350l6 123l-6 6q-133 -139 -336 -139q-200 0 -302.5 134.5t-102.5 360.5q0 265 141 406t404 141q137 0 274 -49l107 55l26 -28v-1360zM821 176v770q-107 55 -203 55q-153 0 -236 -125.5t-83 -355.5q0 -207 79 -334t210 -127
q137 0 233 117z" />
    <glyph glyph-name="r" unicode="r" horiz-adv-x="991" 
d="M162 59v897l-123 27v23l309 32l27 -28l-6 -181l6 -6q4 8 11.5 22.5t35 50.5t59.5 63.5t84 50t109 22.5q100 0 168.5 -61.5t68.5 -159.5q0 -69 -34.5 -103t-90.5 -34q-59 0 -95 37t-36 100v164q-11 8 -32 8q-45 0 -87.5 -24t-70.5 -58.5t-49 -68.5t-31 -58l-10 -24v-691
l184 -39v-20h-520v20z" />
    <glyph glyph-name="s" unicode="s" horiz-adv-x="935" 
d="M100 39v223h43q53 -242 301 -242q120 0 192.5 55.5t72.5 151.5q0 26 -6.5 48t-17 38.5t-30.5 31t-38 24t-49.5 20.5t-56 18t-65.5 17q-147 39 -206 72q-132 79 -134 237q0 137 89 218t274 81q146 0 262 -61l43 35l21 -21v-221h-41q-15 70 -46 119.5t-72 73.5t-79.5 34
t-79.5 10q-104 0 -165.5 -52.5t-61.5 -137.5q0 -42 15 -71.5t50 -50.5t69 -34t95 -30q157 -48 220 -83q146 -81 153 -234v-17q0 -139 -98 -220t-305 -81q-168 0 -285 63l-43 -35z" />
    <glyph glyph-name="t" unicode="t" horiz-adv-x="786" 
d="M37 983v16q104 25 182.5 95t128.5 166l27 -27v-209h336v-41h-336v-719q0 -98 43 -154.5t127 -56.5q92 0 164 72l22 -23q-109 -112 -278 -112q-143 0 -217 75t-74 199v719h-125z" />
    <glyph glyph-name="u" unicode="u" horiz-adv-x="1243" 
d="M1081 68l123 -27v-23l-309 -24l-27 26l6 117l-6 6q-73 -75 -177 -114t-206 -39q-157 0 -240 88t-83 235v643l-123 27v23l309 32l27 -28v-662q0 -133 51.5 -211t161.5 -78q73 0 149 34t131 95v768l-123 27v23l308 32l28 -28v-942z" />
    <glyph glyph-name="v" unicode="v" horiz-adv-x="1230" 
d="M584 0l-441 965l-120 39v20h466v-20l-124 -39l335 -744l332 744l-170 39v20h346v-20l-131 -39l-434 -965h-59z" />
    <glyph glyph-name="w" unicode="w" horiz-adv-x="1841" 
d="M1214 0l-290 698l-293 -698h-74l-414 965l-120 39v20h454v-20l-112 -39l311 -762l225 549l-90 213l-113 39v20h457v-20l-125 -39l303 -762l303 762l-168 39v20h344v-20l-129 -39l-393 -965h-76z" />
    <glyph glyph-name="x" unicode="x" horiz-adv-x="1198" 
d="M829 59l-303 406l-311 -406l164 -39v-20h-346v20l135 39l332 439l-340 467l-117 39v20h461v-20l-123 -39l281 -381l290 381l-164 39v20h347v-20l-134 -39l-313 -414l363 -492l116 -39v-20h-462v20z" />
    <glyph glyph-name="y" unicode="y" horiz-adv-x="1230" 
d="M590 -18l-447 983l-120 39v20h466v-20l-124 -39l335 -744l332 744l-170 39v20h346v-20l-131 -39l-434 -965q-41 -90 -70.5 -148.5t-63.5 -113.5t-65 -85.5t-68 -48.5t-79 -18q-29 0 -58 7.5t-57.5 23.5t-46.5 47t-18 72q0 54 28.5 83t75.5 29q50 0 80.5 -30t30.5 -82v-82
q12 -6 22 -6q29 0 58.5 25t60.5 75.5t57 103t60 130.5z" />
    <glyph glyph-name="z" unicode="z" horiz-adv-x="989" 
d="M74 0v31l610 958h-489l-66 -188h-35v223h807v-31l-608 -958h518l66 188h34v-223h-837z" />
    <glyph glyph-name="braceleft" unicode="{" horiz-adv-x="759" 
d="M199 563q132 -40 208 -167t76 -314q0 -228 54.5 -349.5t146.5 -121.5v-31q-181 0 -292 135.5t-111 362.5q0 226 -54.5 347.5t-146.5 121.5v33q92 0 146.5 121.5t54.5 347.5q0 227 111 362t292 135v-30q-92 0 -146.5 -122t-54.5 -350q0 -188 -76 -314.5t-208 -166.5z" />
    <glyph glyph-name="bar" unicode="|" horiz-adv-x="387" 
d="M225 -410h-63v1946h63v-1946z" />
    <glyph glyph-name="braceright" unicode="}" horiz-adv-x="759" 
d="M565 563q-132 40 -208 166.5t-76 314.5q0 228 -54.5 350t-146.5 122v30q181 0 292 -135t111 -362q0 -226 54.5 -347.5t146.5 -121.5v-33q-92 0 -146.5 -121.5t-54.5 -347.5q0 -227 -111 -362.5t-292 -135.5v31q92 0 146.5 121.5t54.5 349.5q0 187 76 314t208 167z" />
    <glyph glyph-name="asciitilde" unicode="~" horiz-adv-x="960" 
d="M88 498l-25 24q118 118 185 163.5t119 45.5q47 0 138.5 -52t145.5 -52q51 0 111 28t110 78l25 -22q-212 -215 -315 -215q-37 0 -86 26t-102.5 52t-100.5 26q-103 0 -205 -102z" />
    <glyph glyph-name="exclamdown" unicode="&#xa1;" horiz-adv-x="434" 
d="M193 1024h49q25 -413 51.5 -672.5t39.5 -337t13 -96.5q0 -56 -37 -93.5t-92 -37.5t-92 37.5t-37 93.5q0 19 5.5 52t15.5 102.5t22.5 175t29 310t32.5 466.5zM92 1290q0 53 35.5 89t89.5 36t89.5 -36t35.5 -89q0 -54 -35.5 -90.5t-89.5 -36.5t-89.5 36.5t-35.5 90.5z" />
    <glyph glyph-name="cent" unicode="&#xa2;" horiz-adv-x="1136" 
d="M598 -102h-47v94q-230 12 -350.5 150t-120.5 366q0 232 122.5 370.5t348.5 151.5v96h47v-94h2q111 0 207.5 -29t160.5 -91t64 -144q0 -64 -35 -97.5t-92 -33.5q-58 0 -92.5 36.5t-34.5 98.5v176q-87 53 -174 53h-6v-944q38 -6 82 -6q178 0 301 123l23 -24
q-160 -160 -406 -160v-92zM291 543q0 -190 65 -312t195 -161v927q-125 -23 -192.5 -143t-67.5 -311z" />
    <glyph glyph-name="sterling" unicode="&#xa3;" horiz-adv-x="1159" 
d="M37 700v17l125 24v250q0 208 122 329.5t341 121.5q105 0 197 -29t154 -91t62 -144q0 -64 -35 -97.5t-92 -33.5q-58 0 -93.5 36.5t-35.5 98.5v176q-70 53 -147 53q-122 0 -191 -104.5t-69 -282.5v-283h416v-41h-416q0 -288 -101 -540q87 51 160 51q42 0 91.5 -16.5
t87.5 -36t90 -36t98 -16.5q64 0 142.5 28t143.5 77l25 -23q-273 -215 -399 -215q-51 0 -115 26t-132.5 52.5t-129.5 26.5q-133 0 -264 -103l-25 25q110 85 115 88v612h-125z" />
    <glyph glyph-name="currency" unicode="&#xa4;" horiz-adv-x="1048" 
d="M178 614q0 134 72 228l-144 145l46 45l143 -143q91 78 229 78q140 0 232 -76l141 141l45 -45l-141 -141q76 -92 76 -232q0 -138 -78 -231l143 -141l-45 -45l-143 143q-95 -76 -230 -76q-136 0 -227 78l-145 -145l-46 45l146 145q-74 90 -74 227zM246 614
q0 -123 77 -200.5t201 -77.5q127 0 205 77t78 201q0 128 -78 206.5t-205 78.5q-124 0 -201 -78.5t-77 -206.5z" />
    <glyph glyph-name="yen" unicode="&#xa5;" horiz-adv-x="1482" 
d="M346 483v64h277v76l-480 751l-127 39v21h494v-21l-135 -39l446 -706l453 706l-172 39v21h364v-21l-145 -39l-479 -751v-76h276v-64h-276v-182h276v-63h-276v-179l127 -39v-20h-480v20l134 39v179h-277v63h277v182h-277z" />
    <glyph glyph-name="brokenbar" unicode="&#xa6;" horiz-adv-x="387" 
d="M225 1536v-870h-63v870h63zM225 -410h-63v871h63v-871z" />
    <glyph glyph-name="section" unicode="&#xa7;" horiz-adv-x="1038" 
d="M176 905q-96 80 -96 203q0 152 121 243t331 91q185 0 305.5 -81t120.5 -202q0 -65 -35 -99t-92 -34q-58 0 -92 36.5t-34 100.5v193q-80 55 -162 55q-122 0 -190 -77t-68 -185q0 -76 36.5 -131.5t95.5 -88.5t129.5 -59.5t141.5 -52.5t130 -58.5t95.5 -86.5t36.5 -127
q0 -103 -84 -223q99 -83 99 -203q0 -153 -124.5 -243.5t-336.5 -90.5q-184 0 -307 81.5t-123 201.5q0 65 35 99t90 34q58 0 93.5 -37t35.5 -101v-192q80 -55 166 -55q123 0 195.5 78t72.5 186q0 59 -23 105.5t-62 77.5t-89.5 55.5t-106.5 43.5l-112 38t-106.5 42.5
t-89.5 53.5t-62 74.5t-23 101.5q0 127 88 233zM831 346q27 67 27 113q0 68 -44.5 120t-120 88t-156.5 64.5t-175 67.5t-153 80q-27 -69 -27 -123q0 -67 44.5 -117.5t120 -85t156.5 -62.5t175 -66t153 -79z" />
    <glyph glyph-name="dieresis" unicode="&#xa8;" 
d="M-92 1276q0 57 37 94t94 37t94 -37t37 -94t-37 -94t-94 -37t-94 37t-37 94zM367 1276q0 57 37.5 94t93.5 37q57 0 95 -37t38 -94t-38 -94t-95 -37q-56 0 -93.5 37t-37.5 94z" />
    <glyph glyph-name="copyright" unicode="&#xa9;" horiz-adv-x="1630" 
d="M88 717q0 197 97.5 364.5t265 265t364.5 97.5t364.5 -97.5t265 -265t97.5 -364.5t-97.5 -364.5t-265 -265t-364.5 -97.5t-364.5 97.5t-265 265t-97.5 364.5zM162 717q0 -177 87.5 -327.5t238 -238.5t327.5 -88t327.5 88t238 238.5t87.5 327.5q0 133 -52 253.5t-139.5 208
t-208 139.5t-253.5 52t-253.5 -52t-208 -139.5t-139.5 -208t-52 -253.5zM1081 469l13 -12q-102 -105 -267 -105q-163 0 -259.5 98.5t-96.5 266.5t96.5 266t255.5 98q133 0 207 -57l51 27l11 -11v-145h-19q-12 49 -38.5 83.5t-61 50t-64 22t-59.5 6.5q-115 0 -178.5 -84.5
t-63.5 -249.5q0 -156 65.5 -244t200.5 -88q132 0 207 78z" />
    <glyph glyph-name="ordfeminine" unicode="&#xaa;" horiz-adv-x="591" 
d="M379 983l-2 4q-75 -72 -182 -72q-69 0 -103.5 31t-34.5 88q0 77 75 113q50 24 212 53h1h1l1 1h1h1h1h2q17 3 25 5v97q0 54 -26 86t-72 32q-30 0 -68 -20v-84q0 -36 -19.5 -57t-50.5 -21q-30 0 -49.5 19.5t-19.5 52.5q0 60 62.5 92.5t146.5 32.5q105 0 164 -44t59 -112
v-311q0 -23 22 -23q23 0 33 10l8 -8q-28 -28 -106 -28q-74 0 -82 63zM377 1012v178h-1h-1h-1l-1 -1h-1h-1h-1h-1h-1l-1 -1h-1q-104 -16 -134 -33q-48 -27 -48 -106q0 -44 20 -67.5t56 -23.5q63 0 117 54z" />
    <glyph glyph-name="guillemotleft" unicode="&#xab;" horiz-adv-x="841" 
d="M76 557v33l330 315l22 -20l-199 -312l199 -311l-22 -20zM393 557v33l330 315l20 -20l-198 -312l198 -311l-20 -20z" />
    <glyph glyph-name="logicalnot" unicode="&#xac;" horiz-adv-x="1030" 
d="M78 686v62h874v-267h-63v205h-811z" />
    <glyph glyph-name="uni00AD" unicode="&#xad;" horiz-adv-x="620" 
d="M78 584v61h465v-61h-465z" />
    <glyph glyph-name="registered" unicode="&#xae;" horiz-adv-x="1630" 
d="M88 717q0 197 97.5 364.5t265 265t364.5 97.5t364.5 -97.5t265 -265t97.5 -364.5t-97.5 -364.5t-265 -265t-364.5 -97.5t-364.5 97.5t-265 265t-97.5 364.5zM162 717q0 -177 87.5 -327.5t238 -238.5t327.5 -88t327.5 88t238 238.5t87.5 327.5q0 133 -52 253.5t-139.5 208
t-208 139.5t-253.5 52t-253.5 -52t-208 -139.5t-139.5 -208t-52 -253.5zM1090 901q0 -73 -49 -122.5t-134 -63.5q42 -12 76 -74l129 -233l62 -17v-12h-181l-182 330h-104v-299l67 -19v-12h-264v12l68 19v659l-68 18v9h317q119 0 191 -52t72 -143zM813 1073h-106v-342h106
q64 0 103.5 43.5t39.5 128.5q0 84 -39 127t-104 43z" />
    <glyph glyph-name="macron" unicode="&#xaf;" horiz-adv-x="620" 
d="M55 1219v61h508v-61h-508z" />
    <glyph glyph-name="degree" unicode="&#xb0;" horiz-adv-x="530" 
d="M70 1247q0 89 53.5 143t138.5 54q89 0 144 -54t55 -143q0 -86 -55 -140t-144 -54q-85 0 -138.5 54t-53.5 140zM145 1247q0 -57 32.5 -92t86.5 -35t87.5 35t33.5 92t-33.5 93t-87.5 36t-86.5 -36t-32.5 -93z" />
    <glyph glyph-name="plusminus" unicode="&#xb1;" horiz-adv-x="927" 
d="M78 686v62h354v354h64v-354h354v-62h-354v-356h-64v356h-354zM78 102v62h772v-62h-772z" />
    <glyph glyph-name="twosuperior" unicode="&#xb2;" horiz-adv-x="565" 
d="M43 717v45q147 138 196 195q136 155 145 298q1 12 1 23q0 69 -31.5 106t-89.5 37q-42 0 -78 -24v-103q0 -36 -19 -56.5t-52 -20.5q-32 0 -52 19t-20 54q0 65 65.5 106.5t163.5 41.5q114 0 178 -47t64 -136q0 -51 -23 -103t-55.5 -93.5t-89.5 -91.5t-103 -84t-118 -84h338
l39 98h18v-180h-477z" />
    <glyph glyph-name="threesuperior" unicode="&#xb3;" horiz-adv-x="632" 
d="M217 1397v-97q0 -36 -19.5 -56.5t-52.5 -20.5q-32 0 -51.5 19.5t-19.5 53.5q0 47 39.5 81t93 48.5t110.5 14.5q106 0 169 -49.5t63 -133.5q0 -67 -43.5 -112t-122.5 -62q89 -14 140.5 -61t51.5 -121q0 -87 -70 -138.5t-186 -51.5q-98 0 -174.5 37t-76.5 106q0 34 19.5 53
t51.5 19q33 0 52.5 -21t19.5 -57v-94q39 -23 86 -23q68 0 110 44t42 126q0 87 -51 129.5t-138 42.5h-43v21h43q74 0 116 40.5t42 125.5q0 79 -32.5 119t-88.5 40q-43 0 -80 -22z" />
    <glyph glyph-name="acute" unicode="&#xb4;" horiz-adv-x="567" 
d="M84 1153l283 289l116 -119l-379 -193z" />
    <glyph glyph-name="mu" unicode="&#xb5;" horiz-adv-x="1243" 
d="M162 956l-123 27v23l309 32l27 -28v-662q0 -133 51.5 -211t161.5 -78q73 0 149 34t131 95v768l-123 27v23l308 32l28 -28v-942l123 -27v-23l-309 -24l-27 26l6 117l-6 6q-69 -75 -167 -114t-195 -39q-140 0 -215 88q20 -89 41 -155t31 -92.5t10 -39.5q0 -46 -29.5 -76
t-75.5 -30t-76 30t-30 76v1165z" />
    <glyph glyph-name="paragraph" unicode="&#xb6;" horiz-adv-x="1009" 
d="M700 82v348q-271 0 -436.5 135t-165.5 367q0 231 166 366.5t436 135.5h271v-21l-123 -39v-1292q0 -164 -79 -282.5t-237 -219.5l-22 23q102 105 146 219t44 260z" />
    <glyph glyph-name="periodcentered" unicode="&#xb7;" horiz-adv-x="411" 
d="M80 614q0 54 36 90.5t89 36.5q55 0 91 -36.5t36 -90.5t-36 -89.5t-91 -35.5q-53 0 -89 35.5t-36 89.5z" />
    <glyph glyph-name="cedilla" unicode="&#xb8;" horiz-adv-x="378" 
d="M55 -221l127 221h39l-59 -106q180 0 180 -93q0 -90 -199 -274l-16 18q96 89 96 166q0 39 -35.5 53.5t-132.5 14.5z" />
    <glyph glyph-name="onesuperior" unicode="&#xb9;" horiz-adv-x="399" 
d="M53 717v12l86 19v645h-96v16l209 33l14 -17v-677l86 -19v-12h-299z" />
    <glyph glyph-name="ordmasculine" unicode="&#xba;" horiz-adv-x="618" 
d="M47 1178q0 118 73 189t189 71t189 -71t73 -189q0 -119 -72.5 -189.5t-189.5 -70.5t-189.5 70.5t-72.5 189.5zM176 1178q0 -121 36 -183.5t97 -62.5q62 0 96.5 62t34.5 184t-34.5 183.5t-96.5 61.5q-61 0 -97 -62t-36 -183z" />
    <glyph glyph-name="guillemotright" unicode="&#xbb;" horiz-adv-x="841" 
d="M764 590v-33l-330 -315l-20 20l198 311l-198 312l20 20zM449 590v-33l-330 -315l-23 20l199 311l-199 312l23 20z" />
    <glyph glyph-name="onequarter" unicode="&#xbc;" horiz-adv-x="1173" 
d="M858 0v12l62 19v123h-308v14q88 164 131 290.5t43 258.5h127q0 -100 -38 -197t-92.5 -172.5t-143.5 -173.5h281v234l112 112l15 -16v-330h71v-20h-71v-123l61 -19v-12h-250zM293 0h-68l623 1434h67zM53 717v12l84 19v645h-94v16l207 33l14 -17v-677l86 -19v-12h-297z" />
    <glyph glyph-name="onehalf" unicode="&#xbd;" horiz-adv-x="1261" 
d="M53 717v12l84 19v645h-94v16l207 33l14 -17v-677l86 -19v-12h-297zM293 0h-68l623 1434h67zM733 0v45q145 138 194 195q135 155 143 300q1 10 1 21q0 69 -30 106.5t-87 37.5q-40 0 -77 -25v-102q0 -36 -19.5 -57t-52.5 -21q-32 0 -51 18.5t-19 54.5q0 65 65.5 106.5
t162.5 41.5q112 0 174.5 -46.5t62.5 -135.5q0 -63 -30 -124t-91 -121.5t-117.5 -105t-144.5 -106.5h332l41 98h16v-180h-473z" />
    <glyph glyph-name="threequarters" unicode="&#xbe;" horiz-adv-x="1335" 
d="M211 1397v-97q0 -36 -19.5 -56.5t-52.5 -20.5q-31 0 -50 19t-19 54q0 47 39 81t92 48.5t110 14.5q107 0 169.5 -49t62.5 -134q0 -67 -42.5 -112t-121.5 -62q89 -14 140.5 -61t51.5 -121q0 -87 -70 -138.5t-188 -51.5q-60 0 -115 14t-95 48t-40 81q0 34 19 53t51 19
q33 0 52.5 -21t19.5 -57v-94q39 -23 86 -23q67 0 109 44t42 126q0 87 -49 129.5t-135 42.5h-45v21h45q74 0 115 40.5t41 125.5q0 79 -33.5 119t-89.5 40q-46 0 -80 -22zM1016 0v12l61 19v123h-309v14q88 161 131 288.5t43 260.5h127q0 -100 -38 -197t-92.5 -172.5
t-143.5 -173.5h282v234l111 112l14 -16v-330h72v-20h-72v-123l62 -19v-12h-248zM446 0h-67l622 1434h68z" />
    <glyph glyph-name="questiondown" unicode="&#xbf;" horiz-adv-x="1038" 
d="M502 1024h47q11 -114 3 -190.5t-30 -140.5t-51 -107t-61 -91t-58.5 -92t-43.5 -109.5t-17 -143.5q0 -150 67.5 -241t188.5 -91q84 0 164 55v193q0 64 35.5 100.5t93.5 36.5q55 0 90 -34t35 -97q0 -122 -122.5 -203.5t-305.5 -81.5q-216 0 -339.5 108.5t-123.5 301.5
q0 80 23.5 146t61.5 113.5t83.5 91t91 89t83.5 97t61.5 126t23.5 164.5zM647 1288q0 -53 -36.5 -89t-90.5 -36q-52 0 -88.5 36.5t-36.5 88.5q0 54 35.5 90.5t89.5 36.5t90.5 -36t36.5 -91z" />
    <glyph glyph-name="Agrave" unicode="&#xc0;" horiz-adv-x="1546" 
d="M823 1434l576 -1375l131 -39v-20h-494v20l135 39l-172 416h-618l-180 -416l180 -39v-20h-365v20l140 39l600 1375h67zM698 1208l-299 -690h582zM662 1810l284 -288l-22 -23l-379 195z" />
    <glyph glyph-name="Aacute" unicode="&#xc1;" horiz-adv-x="1546" 
d="M823 1434l576 -1375l131 -39v-20h-494v20l135 39l-172 416h-618l-180 -416l180 -39v-20h-365v20l140 39l600 1375h67zM698 1208l-299 -690h582zM627 1522l284 288l117 -116l-379 -195z" />
    <glyph glyph-name="Acircumflex" unicode="&#xc2;" horiz-adv-x="1546" 
d="M823 1434l576 -1375l131 -39v-20h-494v20l135 39l-172 416h-618l-180 -416l180 -39v-20h-365v20l140 39l600 1375h67zM698 1208l-299 -690h582zM770 1810h31l276 -288l-20 -23l-271 160l-270 -160l-20 23z" />
    <glyph glyph-name="Atilde" unicode="&#xc3;" horiz-adv-x="1546" 
d="M823 1434l576 -1375l131 -39v-20h-494v20l135 39l-172 416h-618l-180 -416l180 -39v-20h-365v20l140 39l600 1375h67zM698 1208l-299 -690h582zM465 1552l-25 25q100 100 155.5 139t98.5 39q39 0 115.5 -47t122.5 -47q40 0 89.5 25t90.5 67l25 -24q-185 -185 -265 -185
q-31 0 -72 24t-84.5 48t-82.5 24q-77 0 -168 -88z" />
    <glyph glyph-name="Adieresis" unicode="&#xc4;" horiz-adv-x="1546" 
d="M823 1434l576 -1375l131 -39v-20h-494v20l135 39l-172 416h-618l-180 -416l180 -39v-20h-365v20l140 39l600 1375h67zM698 1208l-299 -690h582zM424 1647q0 55 38 93t93 38q57 0 95 -37.5t38 -93.5q0 -57 -38 -95.5t-95 -38.5q-56 0 -93.5 38.5t-37.5 95.5zM885 1647
q0 56 37 93.5t94 37.5q56 0 93.5 -38t37.5 -93q0 -57 -37.5 -95.5t-93.5 -38.5q-57 0 -94 38.5t-37 95.5z" />
    <glyph glyph-name="Aring" unicode="&#xc5;" horiz-adv-x="1546" 
d="M823 1434l576 -1375l131 -39v-20h-494v20l135 39l-172 416h-618l-180 -416l180 -39v-20h-365v20l140 39l600 1375h67zM698 1208l-299 -690h582zM614 1655q0 76 48 121t124 45t124 -45t48 -121q0 -77 -48 -121.5t-124 -44.5t-124 44.5t-48 121.5zM694 1655q0 -56 26 -90.5
t66 -34.5t65.5 34.5t25.5 90.5t-25.5 90.5t-65.5 34.5t-66 -34.5t-26 -90.5z" />
    <glyph glyph-name="AE" unicode="&#xc6;" horiz-adv-x="1726" 
d="M879 49l-72 426h-430l-176 -416l180 -39v-20h-365v20l140 39l583 1375h860v-252h-32l-97 211h-612l109 -631h385l43 160h30v-363h-30l-43 160h-379l117 -678h401l96 209h33v-250h-872v16zM684 1208l-291 -690h408z" />
    <glyph glyph-name="Ccedilla" unicode="&#xc7;" horiz-adv-x="1441" 
d="M670 -221l118 209q-316 5 -503 200.5t-187 528.5q0 335 191 532t508 197q122 0 233.5 -31t192.5 -92l86 51l20 -20v-283h-35q-17 81 -58 143t-89 96t-108.5 55t-107 27.5t-93.5 6.5q-238 0 -373 -173.5t-135 -500.5q0 -153 34 -275.5t100.5 -211.5t172.5 -137t244 -48
q269 0 432 166l22 -24q-195 -198 -508 -207l-51 -94q180 0 180 -93q0 -91 -198 -274l-15 18q95 91 95 166q0 39 -35.5 53.5t-132.5 14.5z" />
    <glyph glyph-name="Egrave" unicode="&#xc8;" horiz-adv-x="1267" 
d="M393 41h639l96 209h33v-250h-1122v16l133 33v1335l-133 31v19h1102v-252h-33l-96 211h-619v-631h500l43 160h31v-363h-31l-43 160h-500v-678zM508 1810l285 -288l-23 -23l-377 195z" />
    <glyph glyph-name="Eacute" unicode="&#xc9;" horiz-adv-x="1267" 
d="M393 41h639l96 209h33v-250h-1122v16l133 33v1335l-133 31v19h1102v-252h-33l-96 211h-619v-631h500l43 160h31v-363h-31l-43 160h-500v-678zM475 1522l283 288l116 -116l-378 -195z" />
    <glyph glyph-name="Ecircumflex" unicode="&#xca;" horiz-adv-x="1267" 
d="M393 41h639l96 209h33v-250h-1122v16l133 33v1335l-133 31v19h1102v-252h-33l-96 211h-619v-631h500l43 160h31v-363h-31l-43 160h-500v-678zM618 1810h31l277 -288l-23 -23l-270 160l-268 -160l-23 23z" />
    <glyph glyph-name="Edieresis" unicode="&#xcb;" horiz-adv-x="1267" 
d="M393 41h639l96 209h33v-250h-1122v16l133 33v1335l-133 31v19h1102v-252h-33l-96 211h-619v-631h500l43 160h31v-363h-31l-43 160h-500v-678zM272 1647q0 55 38 93t93 38q57 0 95.5 -37.5t38.5 -93.5q0 -57 -38.5 -95.5t-95.5 -38.5q-56 0 -93.5 38.5t-37.5 95.5z
M733 1647q0 56 37 93.5t94 37.5q56 0 93.5 -38t37.5 -93q0 -57 -37.5 -95.5t-93.5 -38.5q-57 0 -94 38.5t-37 95.5z" />
    <glyph glyph-name="Igrave" unicode="&#xcc;" horiz-adv-x="565" 
d="M391 1374v-1315l127 -39v-20h-477v20l133 39v1315l-133 39v21h477v-21zM158 1810l284 -288l-22 -23l-377 195z" />
    <glyph glyph-name="Iacute" unicode="&#xcd;" horiz-adv-x="565" 
d="M391 1374v-1315l127 -39v-20h-477v20l133 39v1315l-133 39v21h477v-21zM125 1522l283 288l116 -116l-379 -195z" />
    <glyph glyph-name="Icircumflex" unicode="&#xce;" horiz-adv-x="565" 
d="M391 1374v-1315l127 -39v-20h-477v20l133 39v1315l-133 39v21h477v-21zM266 1810h33l274 -288l-20 -23l-270 160l-271 -160l-20 23z" />
    <glyph glyph-name="Idieresis" unicode="&#xcf;" horiz-adv-x="565" 
d="M391 1374v-1315l127 -39v-20h-477v20l133 39v1315l-133 39v21h477v-21zM-35 1647q0 56 37 93.5t94 37.5t94 -37.5t37 -93.5q0 -57 -37 -95.5t-94 -38.5t-94 38.5t-37 95.5zM338 1647q0 56 37 93.5t94 37.5t94 -37.5t37 -93.5q0 -57 -37 -95.5t-94 -38.5t-94 38.5
t-37 95.5z" />
    <glyph glyph-name="Eth" unicode="&#xd0;" horiz-adv-x="1486" 
d="M43 709v18l129 25v632l-133 31v19h653q205 0 362 -85.5t246 -249t89 -382.5q0 -221 -89 -384.5t-246 -248t-362 -84.5h-653v16l133 33v660h-129zM692 1393h-299v-641h350v-43h-350v-668h299q210 0 337.5 173t127.5 501q0 329 -127.5 503.5t-337.5 174.5z" />
    <glyph glyph-name="Ntilde" unicode="&#xd1;" horiz-adv-x="1427" 
d="M39 16l133 39v1319l-133 39v21h364l809 -1127v1071l-133 37v19h310v-19l-134 -37v-1378h-63l-977 1356v-1301l133 -39v-16h-309v16zM393 1552l-26 25q101 100 157 139t97 39q40 0 116.5 -47t122.5 -47q39 0 88 25t90 67l25 -24q-89 -89 -153 -137t-109 -48q-31 0 -72 24
t-85 48t-83 24q-80 0 -168 -88z" />
    <glyph glyph-name="Ograve" unicode="&#xd2;" horiz-adv-x="1574" 
d="M98 717q0 220 87.5 386t243.5 254.5t359 88.5q202 0 358.5 -88.5t244.5 -255t88 -385.5q0 -334 -191.5 -531.5t-499.5 -197.5q-203 0 -359 87.5t-243.5 253.5t-87.5 388zM330 715q0 -336 125 -516.5t333 -180.5q206 0 331.5 180.5t125.5 516.5q0 337 -125.5 518.5
t-331.5 181.5q-208 0 -333 -181t-125 -519zM662 1810l284 -288l-22 -23l-379 195z" />
    <glyph glyph-name="Oacute" unicode="&#xd3;" horiz-adv-x="1574" 
d="M98 717q0 220 87.5 386t243.5 254.5t359 88.5q202 0 358.5 -88.5t244.5 -255t88 -385.5q0 -334 -191.5 -531.5t-499.5 -197.5q-203 0 -359 87.5t-243.5 253.5t-87.5 388zM330 715q0 -336 125 -516.5t333 -180.5q206 0 331.5 180.5t125.5 516.5q0 337 -125.5 518.5
t-331.5 181.5q-208 0 -333 -181t-125 -519zM627 1522l284 288l117 -116l-379 -195z" />
    <glyph glyph-name="Ocircumflex" unicode="&#xd4;" horiz-adv-x="1574" 
d="M98 717q0 220 87.5 386t243.5 254.5t359 88.5q202 0 358.5 -88.5t244.5 -255t88 -385.5q0 -334 -191.5 -531.5t-499.5 -197.5q-203 0 -359 87.5t-243.5 253.5t-87.5 388zM330 715q0 -336 125 -516.5t333 -180.5q206 0 331.5 180.5t125.5 516.5q0 337 -125.5 518.5
t-331.5 181.5q-208 0 -333 -181t-125 -519zM772 1810h31l276 -288l-22 -23l-271 160l-268 -160l-22 23z" />
    <glyph glyph-name="Otilde" unicode="&#xd5;" horiz-adv-x="1574" 
d="M98 717q0 220 87.5 386t243.5 254.5t359 88.5q202 0 358.5 -88.5t244.5 -255t88 -385.5q0 -334 -191.5 -531.5t-499.5 -197.5q-203 0 -359 87.5t-243.5 253.5t-87.5 388zM330 715q0 -336 125 -516.5t333 -180.5q206 0 331.5 180.5t125.5 516.5q0 337 -125.5 518.5
t-331.5 181.5q-208 0 -333 -181t-125 -519zM467 1552l-25 25q100 100 155.5 139t98.5 39q39 0 115.5 -47t122.5 -47q40 0 89.5 25t90.5 67l25 -24q-185 -185 -265 -185q-31 0 -72 24t-84.5 48t-82.5 24q-77 0 -168 -88z" />
    <glyph glyph-name="Odieresis" unicode="&#xd6;" horiz-adv-x="1574" 
d="M98 717q0 220 87.5 386t243.5 254.5t359 88.5q202 0 358.5 -88.5t244.5 -255t88 -385.5q0 -334 -191.5 -531.5t-499.5 -197.5q-203 0 -359 87.5t-243.5 253.5t-87.5 388zM330 715q0 -336 125 -516.5t333 -180.5q206 0 331.5 180.5t125.5 516.5q0 337 -125.5 518.5
t-331.5 181.5q-208 0 -333 -181t-125 -519zM426 1647q0 55 38 93t93 38q57 0 95 -37.5t38 -93.5q0 -57 -38 -95.5t-95 -38.5q-56 0 -93.5 38.5t-37.5 95.5zM885 1647q0 56 38 93.5t95 37.5q56 0 93.5 -38t37.5 -93q0 -57 -37.5 -95.5t-93.5 -38.5q-57 0 -95 38.5t-38 95.5z
" />
    <glyph glyph-name="multiply" unicode="&#xd7;" horiz-adv-x="927" 
d="M106 928l46 43l311 -314l313 314l45 -43l-313 -314l313 -313l-45 -43l-313 313l-311 -313l-46 43l314 313z" />
    <glyph glyph-name="Oslash" unicode="&#xd8;" horiz-adv-x="1574" 
d="M170 0h-72l178 197q-178 197 -178 520q0 220 87.5 386t243.5 254.5t359 88.5q285 0 472 -172l145 160h74l-181 -199q181 -197 181 -518q0 -334 -191.5 -531.5t-499.5 -197.5q-289 0 -473 172zM1245 715q0 232 -63 395l-768 -842q61 -124 156.5 -187t217.5 -63
q206 0 331.5 180.5t125.5 516.5zM330 715q0 -230 61 -393l768 841q-61 124 -156.5 188t-214.5 64q-208 0 -333 -181t-125 -519z" />
    <glyph glyph-name="Ugrave" unicode="&#xd9;" horiz-adv-x="1472" 
d="M1298 1378v-846q0 -252 -154.5 -398t-406.5 -146q-253 0 -409 147.5t-156 396.5v842l-133 39v21h487v-21l-133 -39v-842q0 -221 118 -342.5t308 -121.5q195 0 316.5 124.5t121.5 339.5v846l-133 37v19h308v-19zM639 1810l283 -288l-21 -23l-379 195z" />
    <glyph glyph-name="Uacute" unicode="&#xda;" horiz-adv-x="1472" 
d="M1298 1378v-846q0 -252 -154.5 -398t-406.5 -146q-253 0 -409 147.5t-156 396.5v842l-133 39v21h487v-21l-133 -39v-842q0 -221 118 -342.5t308 -121.5q195 0 316.5 124.5t121.5 339.5v846l-133 37v19h308v-19zM606 1522l283 288l117 -116l-379 -195z" />
    <glyph glyph-name="Ucircumflex" unicode="&#xdb;" horiz-adv-x="1472" 
d="M1298 1378v-846q0 -252 -154.5 -398t-406.5 -146q-253 0 -409 147.5t-156 396.5v842l-133 39v21h487v-21l-133 -39v-842q0 -221 118 -342.5t308 -121.5q195 0 316.5 124.5t121.5 339.5v846l-133 37v19h308v-19zM748 1810h32l275 -288l-21 -23l-270 160l-270 -160l-21 23z
" />
    <glyph glyph-name="Udieresis" unicode="&#xdc;" horiz-adv-x="1472" 
d="M1298 1378v-846q0 -252 -154.5 -398t-406.5 -146q-253 0 -409 147.5t-156 396.5v842l-133 39v21h487v-21l-133 -39v-842q0 -221 118 -342.5t308 -121.5q195 0 316.5 124.5t121.5 339.5v846l-133 37v19h308v-19zM403 1647q0 56 37.5 93.5t94.5 37.5t94 -37.5t37 -93.5
q0 -57 -37 -95.5t-94 -38.5t-94.5 38.5t-37.5 95.5zM862 1647q0 55 38 93t93 38q57 0 95 -37.5t38 -93.5q0 -57 -38 -95.5t-95 -38.5q-56 0 -93.5 38.5t-37.5 95.5z" />
    <glyph glyph-name="Yacute" unicode="&#xdd;" horiz-adv-x="1482" 
d="M375 1374l446 -706l453 706l-172 39v21h364v-21l-145 -39l-479 -751v-564l127 -39v-20h-480v20l134 39v564l-480 751l-127 39v21h494v-21zM588 1522l282 288l117 -116l-379 -195z" />
    <glyph glyph-name="Thorn" unicode="&#xde;" horiz-adv-x="1261" 
d="M393 1374v-227h223q246 0 397.5 -110t151.5 -298q0 -187 -151.5 -296t-397.5 -109h-165l-27 28v13h166q159 0 254.5 94t95.5 270q0 178 -95.5 272.5t-254.5 94.5h-197v-1047l205 -39v-20h-559v20l133 39v1315l-133 39v21h479v-21z" />
    <glyph glyph-name="germandbls" unicode="&#xdf;" horiz-adv-x="1316" 
d="M567 39v223h41q45 -242 256 -242q102 0 164 55.5t62 147.5q0 35 -10 62.5t-27 47.5t-48 38t-63 31t-82 30q-36 12 -57 20.5t-52.5 22t-51 26t-43.5 31t-38 39.5t-27.5 47.5t-19.5 59.5t-6 72q0 79 26.5 141.5t64 102.5t75 76t64 82t26.5 101q0 88 -59.5 143.5
t-169.5 55.5q-115 0 -166 -67.5t-51 -208.5v-1117l123 -39v-20h-459v20l123 39v924h-123v16l123 39v138q0 156 102 231.5t289 75.5q99 0 169 -19.5t107.5 -54.5t53.5 -74.5t16 -87.5q0 -52 -19.5 -97t-47.5 -78.5t-56 -66t-47.5 -76t-19.5 -93.5q0 -80 47 -122t153 -79
q39 -14 63.5 -24t62.5 -29t62.5 -36.5t52.5 -44.5t44.5 -57t27.5 -70.5t11 -86.5q0 -136 -86 -216.5t-266 -80.5q-147 0 -250 63l-43 -35z" />
    <glyph glyph-name="agrave" unicode="&#xe0;" horiz-adv-x="1118" 
d="M750 123l-7 6q-71 -67 -166 -104t-200 -37q-138 0 -207.5 63t-69.5 174q0 139 118 209q94 55 333 99q51 9 164 27l1 1h1h1h1h1h1l1 1h1h1h1h1h1l1 1h1h1h1h1h1l1 1h1h1h1h1h1l1 1h1h2v193q0 108 -56 173.5t-157 65.5q-81 0 -151 -47v-166q0 -62 -35 -98.5t-90 -36.5
q-54 0 -88.5 34t-34.5 95q0 78 59 136.5t149.5 87t195.5 28.5q199 0 310 -87t111 -224v-625q0 -28 12 -39.5t38 -11.5q44 0 67 23l14 -15q-55 -55 -186 -55q-68 0 -106 29t-45 98zM743 176v359q-204 -32 -267 -53q-105 -35 -138 -109q-21 -49 -21 -121q0 -94 45.5 -143.5
t124.5 -49.5q69 0 137 31.5t119 85.5zM410 1442l284 -289l-22 -23l-379 193z" />
    <glyph glyph-name="aacute" unicode="&#xe1;" horiz-adv-x="1118" 
d="M750 123l-7 6q-71 -67 -166 -104t-200 -37q-138 0 -207.5 63t-69.5 174q0 139 118 209q94 55 333 99q51 9 164 27l1 1h1h1h1h1h1l1 1h1h1h1h1h1l1 1h1h1h1h1h1l1 1h1h1h1h1h1l1 1h1h2v193q0 108 -56 173.5t-157 65.5q-81 0 -151 -47v-166q0 -62 -35 -98.5t-90 -36.5
q-54 0 -88.5 34t-34.5 95q0 78 59 136.5t149.5 87t195.5 28.5q199 0 310 -87t111 -224v-625q0 -28 12 -39.5t38 -11.5q44 0 67 23l14 -15q-55 -55 -186 -55q-68 0 -106 29t-45 98zM743 176v359q-204 -32 -267 -53q-105 -35 -138 -109q-21 -49 -21 -121q0 -94 45.5 -143.5
t124.5 -49.5q69 0 137 31.5t119 85.5zM375 1153l284 289l117 -119l-379 -193z" />
    <glyph glyph-name="acircumflex" unicode="&#xe2;" horiz-adv-x="1118" 
d="M750 123l-7 6q-71 -67 -166 -104t-200 -37q-138 0 -207.5 63t-69.5 174q0 139 118 209q94 55 333 99q51 9 164 27l1 1h1h1h1h1h1l1 1h1h1h1h1h1l1 1h1h1h1h1h1l1 1h1h1h1h1h1l1 1h1h2v193q0 108 -56 173.5t-157 65.5q-81 0 -151 -47v-166q0 -62 -35 -98.5t-90 -36.5
q-54 0 -88.5 34t-34.5 95q0 78 59 136.5t149.5 87t195.5 28.5q199 0 310 -87t111 -224v-625q0 -28 12 -39.5t38 -11.5q44 0 67 23l14 -15q-55 -55 -186 -55q-68 0 -106 29t-45 98zM743 176v359q-204 -32 -267 -53q-105 -35 -138 -109q-21 -49 -21 -121q0 -94 45.5 -143.5
t124.5 -49.5q69 0 137 31.5t119 85.5zM518 1442h31l276 -289l-22 -23l-271 158l-268 -158l-22 23z" />
    <glyph glyph-name="atilde" unicode="&#xe3;" horiz-adv-x="1118" 
d="M750 123l-7 6q-71 -67 -166 -104t-200 -37q-138 0 -207.5 63t-69.5 174q0 139 118 209q94 55 333 99q51 9 164 27l1 1h1h1h1h1h1l1 1h1h1h1h1h1l1 1h1h1h1h1h1l1 1h1h1h1h1h1l1 1h1h2v193q0 108 -56 173.5t-157 65.5q-81 0 -151 -47v-166q0 -62 -35 -98.5t-90 -36.5
q-54 0 -88.5 34t-34.5 95q0 78 59 136.5t149.5 87t195.5 28.5q199 0 310 -87t111 -224v-625q0 -28 12 -39.5t38 -11.5q44 0 67 23l14 -15q-55 -55 -186 -55q-68 0 -106 29t-45 98zM743 176v359q-204 -32 -267 -53q-105 -35 -138 -109q-21 -49 -21 -121q0 -94 45.5 -143.5
t124.5 -49.5q69 0 137 31.5t119 85.5zM213 1182l-25 24q98 99 155 138.5t99 39.5q40 0 116 -47t122 -47q40 0 89.5 25.5t90.5 66.5l25 -24q-182 -182 -262 -182q-32 0 -73.5 23.5t-85.5 47t-83 23.5q-80 0 -168 -88z" />
    <glyph glyph-name="adieresis" unicode="&#xe4;" horiz-adv-x="1118" 
d="M750 123l-7 6q-71 -67 -166 -104t-200 -37q-138 0 -207.5 63t-69.5 174q0 139 118 209q94 55 333 99q51 9 164 27l1 1h1h1h1h1h1l1 1h1h1h1h1h1l1 1h1h1h1h1h1l1 1h1h1h1h1h1l1 1h1h2v193q0 108 -56 173.5t-157 65.5q-81 0 -151 -47v-166q0 -62 -35 -98.5t-90 -36.5
q-54 0 -88.5 34t-34.5 95q0 78 59 136.5t149.5 87t195.5 28.5q199 0 310 -87t111 -224v-625q0 -28 12 -39.5t38 -11.5q44 0 67 23l14 -15q-55 -55 -186 -55q-68 0 -106 29t-45 98zM743 176v359q-204 -32 -267 -53q-105 -35 -138 -109q-21 -49 -21 -121q0 -94 45.5 -143.5
t124.5 -49.5q69 0 137 31.5t119 85.5zM180 1276q0 57 38 94t95 37q56 0 93.5 -37t37.5 -94t-37.5 -94t-93.5 -37q-57 0 -95 37t-38 94zM641 1276q0 57 37 94t94 37t94 -37t37 -94t-37 -94t-94 -37t-94 37t-37 94z" />
    <glyph glyph-name="aring" unicode="&#xe5;" horiz-adv-x="1118" 
d="M750 123l-7 6q-71 -67 -166 -104t-200 -37q-138 0 -207.5 63t-69.5 174q0 139 118 209q94 55 333 99q51 9 164 27l1 1h1h1h1h1h1l1 1h1h1h1h1h1l1 1h1h1h1h1h1l1 1h1h1h1h1h1l1 1h1h2v193q0 108 -56 173.5t-157 65.5q-81 0 -151 -47v-166q0 -62 -35 -98.5t-90 -36.5
q-54 0 -88.5 34t-34.5 95q0 78 59 136.5t149.5 87t195.5 28.5q199 0 310 -87t111 -224v-625q0 -28 12 -39.5t38 -11.5q44 0 67 23l14 -15q-55 -55 -186 -55q-68 0 -106 29t-45 98zM743 176v359q-204 -32 -267 -53q-105 -35 -138 -109q-21 -49 -21 -121q0 -94 45.5 -143.5
t124.5 -49.5q69 0 137 31.5t119 85.5zM362 1286q0 74 47 119t123 45q77 0 126 -45t49 -119q0 -77 -48.5 -122.5t-126.5 -45.5q-76 0 -123 45.5t-47 122.5zM442 1286q0 -58 25 -92.5t65 -34.5q42 0 67.5 34.5t25.5 92.5q0 57 -25.5 91t-67.5 34q-40 0 -65 -34t-25 -91z" />
    <glyph glyph-name="ae" unicode="&#xe6;" horiz-adv-x="1691" 
d="M743 129q-151 -141 -368 -141q-137 0 -206 59.5t-69 165.5q0 55 16.5 96.5t61 73.5t86 52.5t131 41t154.5 32t194 32.5v217q0 108 -56 173.5t-157 65.5q-81 0 -151 -47v-166q0 -62 -35 -98.5t-90 -36.5q-54 0 -88.5 34t-34.5 95q0 78 59 136.5t149 87t193 28.5
q189 0 299 -102q128 104 312 104q201 0 330 -114.5t129 -296.5q0 -45 -11 -82l-28 -27h-625v-315q95 -144 305 -144q182 0 303 121l23 -24q-81 -80 -181 -120t-235 -40q-265 0 -410 139zM743 174v336q-92 -14 -137.5 -22t-105 -22.5t-85 -31t-53 -43.5t-36.5 -63t-9 -86
q0 -90 45 -136.5t125 -46.5q68 0 136 31t120 84zM938 719v-172l457 26q0 210 -64 319t-180 109q-69 0 -130.5 -43.5t-102.5 -130.5q20 -50 20 -108z" />
    <glyph glyph-name="ccedilla" unicode="&#xe7;" horiz-adv-x="1136" 
d="M457 -221l121 211q-244 6 -371 145t-127 373q0 245 135.5 384.5t384.5 139.5q111 0 207.5 -29t160.5 -91t64 -144q0 -64 -35 -97.5t-92 -33.5q-58 0 -92.5 36.5t-34.5 98.5v176q-85 53 -174 53q-145 0 -225 -123t-80 -335q0 -232 96.5 -362t284.5 -130q178 0 301 123
l23 -24q-154 -154 -388 -160l-53 -96q180 0 180 -93q0 -91 -198 -274l-15 18q95 91 95 166q0 39 -35.5 53.5t-132.5 14.5z" />
    <glyph glyph-name="egrave" unicode="&#xe8;" horiz-adv-x="1142" 
d="M1014 512h-715q0 -219 100.5 -339t296.5 -120q180 0 301 121l23 -24q-160 -160 -412 -160q-130 0 -232 39t-166 108t-97 161t-33 202q0 241 144 386.5t370 145.5q201 0 330 -114.5t129 -296.5q0 -45 -11 -82zM602 1001q-121 0 -209 -117.5t-94 -340.5l545 30
q0 211 -63 319.5t-179 108.5zM471 1442l283 -289l-21 -23l-379 193z" />
    <glyph glyph-name="eacute" unicode="&#xe9;" horiz-adv-x="1142" 
d="M1014 512h-715q0 -219 100.5 -339t296.5 -120q180 0 301 121l23 -24q-160 -160 -412 -160q-130 0 -232 39t-166 108t-97 161t-33 202q0 241 144 386.5t370 145.5q201 0 330 -114.5t129 -296.5q0 -45 -11 -82zM602 1001q-121 0 -209 -117.5t-94 -340.5l545 30
q0 211 -63 319.5t-179 108.5zM434 1153l285 289l117 -119l-379 -193z" />
    <glyph glyph-name="ecircumflex" unicode="&#xea;" horiz-adv-x="1142" 
d="M1014 512h-715q0 -219 100.5 -339t296.5 -120q180 0 301 121l23 -24q-160 -160 -412 -160q-130 0 -232 39t-166 108t-97 161t-33 202q0 241 144 386.5t370 145.5q201 0 330 -114.5t129 -296.5q0 -45 -11 -82zM602 1001q-121 0 -209 -117.5t-94 -340.5l545 30
q0 211 -63 319.5t-179 108.5zM575 1442h31l277 -289l-21 -23l-270 158l-270 -158l-21 23z" />
    <glyph glyph-name="edieresis" unicode="&#xeb;" horiz-adv-x="1142" 
d="M1014 512h-715q0 -219 100.5 -339t296.5 -120q180 0 301 121l23 -24q-160 -160 -412 -160q-130 0 -232 39t-166 108t-97 161t-33 202q0 241 144 386.5t370 145.5q201 0 330 -114.5t129 -296.5q0 -45 -11 -82zM602 1001q-121 0 -209 -117.5t-94 -340.5l545 30
q0 211 -63 319.5t-179 108.5zM229 1276q0 57 37 94t94 37t94.5 -37t37.5 -94t-37.5 -94t-94.5 -37t-94 37t-37 94zM688 1276q0 57 37.5 94t93.5 37q57 0 95 -37t38 -94t-38 -94t-95 -37q-56 0 -93.5 37t-37.5 94z" />
    <glyph glyph-name="igrave" unicode="&#xec;" 
d="M145 1442l283 -289l-20 -23l-379 193zM39 0v20l123 39v897l-123 27v23l309 32l27 -28v-951l123 -39v-20h-459z" />
    <glyph glyph-name="iacute" unicode="&#xed;" 
d="M111 1153l282 289l117 -119l-379 -193zM39 0v20l123 39v897l-123 27v23l309 32l27 -28v-951l123 -39v-20h-459z" />
    <glyph glyph-name="icircumflex" unicode="&#xee;" 
d="M39 0v20l123 39v897l-123 27v23l309 32l27 -28v-951l123 -39v-20h-459zM252 1442h33l274 -289l-20 -23l-271 158l-270 -158l-21 23z" />
    <glyph glyph-name="idieresis" unicode="&#xef;" 
d="M39 0v20l123 39v897l-123 27v23l309 32l27 -28v-951l123 -39v-20h-459zM-41 1276q0 57 37 94t94 37q56 0 93.5 -37t37.5 -94t-37.5 -94t-93.5 -37q-57 0 -94 37t-37 94zM295 1276q0 57 37.5 94t93.5 37q57 0 95 -37t38 -94t-38 -94t-95 -37q-56 0 -93.5 37t-37.5 94z" />
    <glyph glyph-name="eth" unicode="&#xf0;" horiz-adv-x="1198" 
d="M588 1169l125 125q-109 68 -237 109t-234 51l34 35q101 -12 170.5 -24t162.5 -40.5t165 -68.5l135 135l45 -45l-125 -125q287 -199 287 -670q0 -331 -133 -496t-379 -165q-235 0 -375.5 140t-140.5 376q0 240 140 383t368 143q137 0 239.5 -56.5t151.5 -150.5h8
q0 265 -227 435l-135 -136zM891 510q0 236 -81 363.5t-214 127.5q-132 0 -211.5 -126.5t-79.5 -364.5q0 -236 79 -363t212 -127q134 0 214.5 127t80.5 363z" />
    <glyph glyph-name="ntilde" unicode="&#xf1;" horiz-adv-x="1249" 
d="M375 834v-775l108 -39v-20h-444v20l123 39v897l-123 27v23l309 32l27 -28l-6 -125l6 -6q75 72 186 112.5t215 40.5q157 0 234 -93.5t77 -258.5v-621l123 -39v-20h-444v20l108 39v586q0 144 -50.5 230t-159.5 86q-76 0 -155.5 -35t-133.5 -92zM305 1182l-24 24
q99 100 155 139t99 39q39 0 115 -47t122 -47q38 0 87.5 25.5t92.5 66.5l25 -24q-182 -182 -264 -182q-31 0 -72 23.5t-85 47t-83 23.5q-80 0 -168 -88z" />
    <glyph glyph-name="ograve" unicode="&#xf2;" horiz-adv-x="1193" 
d="M80 510q0 236 143 379t375 143q230 0 373 -143t143 -379q0 -237 -142.5 -378.5t-373.5 -141.5q-232 0 -375 141.5t-143 378.5zM299 510q0 -236 81.5 -363t217.5 -127q137 0 218 127t81 363q0 237 -81 364t-218 127q-136 0 -217.5 -127t-81.5 -364zM471 1442l285 -289
l-23 -23l-377 193z" />
    <glyph glyph-name="oacute" unicode="&#xf3;" horiz-adv-x="1193" 
d="M80 510q0 236 143 379t375 143q230 0 373 -143t143 -379q0 -237 -142.5 -378.5t-373.5 -141.5q-232 0 -375 141.5t-143 378.5zM299 510q0 -236 81.5 -363t217.5 -127q137 0 218 127t81 363q0 237 -81 364t-218 127q-136 0 -217.5 -127t-81.5 -364zM438 1153l283 289
l117 -119l-379 -193z" />
    <glyph glyph-name="ocircumflex" unicode="&#xf4;" horiz-adv-x="1193" 
d="M80 510q0 236 143 379t375 143q230 0 373 -143t143 -379q0 -237 -142.5 -378.5t-373.5 -141.5q-232 0 -375 141.5t-143 378.5zM299 510q0 -236 81.5 -363t217.5 -127q137 0 218 127t81 363q0 237 -81 364t-218 127q-136 0 -217.5 -127t-81.5 -364zM582 1442h30l277 -289
l-23 -23l-270 158l-268 -158l-23 23z" />
    <glyph glyph-name="otilde" unicode="&#xf5;" horiz-adv-x="1193" 
d="M80 510q0 236 143 379t375 143q230 0 373 -143t143 -379q0 -237 -142.5 -378.5t-373.5 -141.5q-232 0 -375 141.5t-143 378.5zM299 510q0 -236 81.5 -363t217.5 -127q137 0 218 127t81 363q0 237 -81 364t-218 127q-136 0 -217.5 -127t-81.5 -364zM276 1182l-24 24
q98 99 155 138.5t99 39.5q39 0 115 -47t122 -47q40 0 90 25.5t91 66.5l24 -24q-182 -182 -262 -182q-32 0 -73.5 23.5t-85.5 47t-83 23.5q-80 0 -168 -88z" />
    <glyph glyph-name="odieresis" unicode="&#xf6;" horiz-adv-x="1193" 
d="M80 510q0 236 143 379t375 143q230 0 373 -143t143 -379q0 -237 -142.5 -378.5t-373.5 -141.5q-232 0 -375 141.5t-143 378.5zM299 510q0 -236 81.5 -363t217.5 -127q137 0 218 127t81 363q0 237 -81 364t-218 127q-136 0 -217.5 -127t-81.5 -364zM236 1276q0 57 38 94
t95 37q56 0 93.5 -37t37.5 -94t-37.5 -94t-93.5 -37q-57 0 -95 37t-38 94zM696 1276q0 57 37 94t94 37t94 -37t37 -94t-37 -94t-94 -37t-94 37t-37 94z" />
    <glyph glyph-name="divide" unicode="&#xf7;" horiz-adv-x="927" 
d="M78 596v63h772v-63h-772zM350 336q0 49 32.5 82t80.5 33q47 0 79.5 -33t32.5 -82q0 -46 -32.5 -79.5t-79.5 -33.5t-80 33.5t-33 79.5zM350 918q0 49 32.5 81.5t80.5 32.5t80 -32.5t32 -81.5q0 -46 -32.5 -79.5t-79.5 -33.5t-80 33.5t-33 79.5z" />
    <glyph glyph-name="oslash" unicode="&#xf8;" horiz-adv-x="1193" 
d="M160 0h-80l131 141q-131 137 -131 369q0 236 143 379t375 143q203 0 340 -112l98 104h78l-135 -143q135 -141 135 -371q0 -237 -142.5 -378.5t-373.5 -141.5q-211 0 -344 112zM897 510q0 143 -31 248l-516 -553q77 -185 248 -185q137 0 218 127t81 363zM299 510
q0 -139 31 -244l514 551q-78 184 -246 184q-136 0 -217.5 -127t-81.5 -364z" />
    <glyph glyph-name="ugrave" unicode="&#xf9;" horiz-adv-x="1243" 
d="M1081 68l123 -27v-23l-309 -24l-27 26l6 117l-6 6q-73 -75 -177 -114t-206 -39q-157 0 -240 88t-83 235v643l-123 27v23l309 32l27 -28v-662q0 -133 51.5 -211t161.5 -78q73 0 149 34t131 95v768l-123 27v23l308 32l28 -28v-942zM485 1442l285 -289l-22 -23l-379 193z
" />
    <glyph glyph-name="uacute" unicode="&#xfa;" horiz-adv-x="1243" 
d="M1081 68l123 -27v-23l-309 -24l-27 26l6 117l-6 6q-73 -75 -177 -114t-206 -39q-157 0 -240 88t-83 235v643l-123 27v23l309 32l27 -28v-662q0 -133 51.5 -211t161.5 -78q73 0 149 34t131 95v768l-123 27v23l308 32l28 -28v-942zM449 1153l282 289l117 -119l-379 -193z
" />
    <glyph glyph-name="ucircumflex" unicode="&#xfb;" horiz-adv-x="1243" 
d="M1081 68l123 -27v-23l-309 -24l-27 26l6 117l-6 6q-73 -75 -177 -114t-206 -39q-157 0 -240 88t-83 235v643l-123 27v23l309 32l27 -28v-662q0 -133 51.5 -211t161.5 -78q73 0 149 34t131 95v768l-123 27v23l308 32l28 -28v-942zM596 1442h31l274 -289l-20 -23l-271 158
l-270 -158l-21 23z" />
    <glyph glyph-name="udieresis" unicode="&#xfc;" horiz-adv-x="1243" 
d="M1081 68l123 -27v-23l-309 -24l-27 26l6 117l-6 6q-73 -75 -177 -114t-206 -39q-157 0 -240 88t-83 235v643l-123 27v23l309 32l27 -28v-662q0 -133 51.5 -211t161.5 -78q73 0 149 34t131 95v768l-123 27v23l308 32l28 -28v-942zM244 1276q0 57 37 94t94 37t94 -37
t37 -94t-37 -94t-94 -37t-94 37t-37 94zM702 1276q0 57 38 94t94 37q57 0 95 -37t38 -94t-38 -94t-95 -37q-56 0 -94 37t-38 94z" />
    <glyph glyph-name="yacute" unicode="&#xfd;" horiz-adv-x="1230" 
d="M590 -18l-447 983l-120 39v20h466v-20l-124 -39l335 -744l332 744l-170 39v20h346v-20l-131 -39l-434 -965q-41 -90 -70.5 -148.5t-63.5 -113.5t-65 -85.5t-68 -48.5t-79 -18q-29 0 -58 7.5t-57.5 23.5t-46.5 47t-18 72q0 54 28.5 83t75.5 29q50 0 80.5 -30t30.5 -82v-82
q12 -6 22 -6q29 0 58.5 25t60.5 75.5t57 103t60 130.5zM492 1153l284 289l117 -119l-379 -193z" />
    <glyph glyph-name="thorn" unicode="&#xfe;" horiz-adv-x="1191" 
d="M39 -410v21l123 39v1755l-123 27v24l309 31l27 -27v-436l-6 -127l6 -6q134 141 336 141q198 0 299.5 -134.5t101.5 -362.5q0 -260 -131 -402.5t-367 -142.5q-138 0 -239 55v-395l184 -39v-21h-520zM375 846v-770q106 -56 200 -56q153 0 236.5 126.5t83.5 355.5
q0 206 -78.5 332.5t-208.5 126.5q-138 0 -233 -115z" />
    <glyph glyph-name="ydieresis" unicode="&#xff;" horiz-adv-x="1230" 
d="M590 -18l-447 983l-120 39v20h466v-20l-124 -39l335 -744l332 744l-170 39v20h346v-20l-131 -39l-434 -965q-41 -90 -70.5 -148.5t-63.5 -113.5t-65 -85.5t-68 -48.5t-79 -18q-29 0 -58 7.5t-57.5 23.5t-46.5 47t-18 72q0 54 28.5 83t75.5 29q50 0 80.5 -30t30.5 -82v-82
q12 -6 22 -6q29 0 58.5 25t60.5 75.5t57 103t60 130.5zM268 1276q0 57 37 94t94 37t94 -37t37 -94t-37 -94t-94 -37t-94 37t-37 94zM727 1276q0 57 37.5 94t93.5 37q57 0 95 -37t38 -94t-38 -94t-95 -37q-56 0 -93.5 37t-37.5 94z" />
    <glyph glyph-name="Amacron" unicode="&#x100;" horiz-adv-x="1546" 
d="M823 1434l576 -1375l131 -39v-20h-494v20l135 39l-172 416h-618l-180 -416l180 -39v-20h-365v20l140 39l600 1375h67zM698 1208l-299 -690h582zM532 1628v62h508v-62h-508z" />
    <glyph glyph-name="amacron" unicode="&#x101;" horiz-adv-x="1118" 
d="M750 123l-7 6q-71 -67 -166 -104t-200 -37q-138 0 -207.5 63t-69.5 174q0 139 118 209q94 55 333 99q51 9 164 27l1 1h1h1h1h1h1l1 1h1h1h1h1h1l1 1h1h1h1h1h1l1 1h1h1h1h1h1l1 1h1h2v193q0 108 -56 173.5t-157 65.5q-81 0 -151 -47v-166q0 -62 -35 -98.5t-90 -36.5
q-54 0 -88.5 34t-34.5 95q0 78 59 136.5t149.5 87t195.5 28.5q199 0 310 -87t111 -224v-625q0 -28 12 -39.5t38 -11.5q44 0 67 23l14 -15q-55 -55 -186 -55q-68 0 -106 29t-45 98zM743 176v359q-204 -32 -267 -53q-105 -35 -138 -109q-21 -49 -21 -121q0 -94 45.5 -143.5
t124.5 -49.5q69 0 137 31.5t119 85.5zM279 1219v61h507v-61h-507z" />
    <glyph glyph-name="Abreve" unicode="&#x102;" horiz-adv-x="1546" 
d="M823 1434l576 -1375l131 -39v-20h-494v20l135 39l-172 416h-618l-180 -416l180 -39v-20h-365v20l140 39l600 1375h67zM698 1208l-299 -690h582zM909 1696q0 50 30.5 81t76.5 31q47 0 75.5 -29.5t28.5 -74.5q0 -61 -55.5 -106t-129 -63.5t-149.5 -18.5q-77 0 -150.5 18.5
t-129 63t-55.5 106.5q0 46 29 75t75 29q48 0 78.5 -31t30.5 -81q0 -43 9 -73t20.5 -44.5t31.5 -22.5t31 -9t30 -1q18 0 29 1t31 9t32 22.5t21.5 44.5t9.5 73z" />
    <glyph glyph-name="abreve" unicode="&#x103;" horiz-adv-x="1118" 
d="M750 123l-7 6q-71 -67 -166 -104t-200 -37q-138 0 -207.5 63t-69.5 174q0 139 118 209q94 55 333 99q51 9 164 27l1 1h1h1h1h1h1l1 1h1h1h1h1h1l1 1h1h1h1h1h1l1 1h1h1h1h1h1l1 1h1h2v193q0 108 -56 173.5t-157 65.5q-81 0 -151 -47v-166q0 -62 -35 -98.5t-90 -36.5
q-54 0 -88.5 34t-34.5 95q0 78 59 136.5t149.5 87t195.5 28.5q199 0 310 -87t111 -224v-625q0 -28 12 -39.5t38 -11.5q44 0 67 23l14 -15q-55 -55 -186 -55q-68 0 -106 29t-45 98zM743 176v359q-204 -32 -267 -53q-105 -35 -138 -109q-21 -49 -21 -121q0 -94 45.5 -143.5
t124.5 -49.5q69 0 137 31.5t119 85.5zM666 1325q0 52 29.5 82.5t76.5 30.5t76 -30t29 -75q0 -61 -55.5 -106t-129 -63.5t-149.5 -18.5q-56 0 -113 11.5t-108 33.5t-83 60t-32 85q0 46 29 74.5t75 28.5q48 0 78.5 -30.5t30.5 -82.5q0 -42 9.5 -71.5t21.5 -44t32 -22t31 -8.5
t29 -1t29 1t31 8.5t32 22t21.5 44t9.5 71.5z" />
    <glyph glyph-name="Aogonek" unicode="&#x104;" horiz-adv-x="1546" 
d="M1522 -334l10 -10q-102 -102 -199 -102q-116 0 -116 124q0 81 47.5 165t132.5 157h-361v20l135 39l-172 416h-618l-180 -416l180 -39v-20h-365v20l140 39l600 1375h67l576 -1375l131 -39v-20h-105q-51 -71 -79.5 -152t-28.5 -137q0 -92 84 -92q33 0 66.5 13t54.5 34z
M698 1208l-299 -690h582z" />
    <glyph glyph-name="aogonek" unicode="&#x105;" horiz-adv-x="1118" 
d="M1077 -317l13 -11q-100 -100 -199 -100q-117 0 -117 125q0 72 41.5 150.5t114.5 148.5h-29q-68 0 -106 29t-45 98l-7 6q-71 -67 -166 -104t-200 -37q-138 0 -207.5 63t-69.5 174q0 139 118 209q94 55 333 99q51 9 164 27l1 1h1h1h1h1h1l1 1h1h1h1h1h1l1 1h1h1h1h1h1l1 1
h1h1h1h1h1l1 1h1h2v193q0 108 -56 173.5t-157 65.5q-81 0 -151 -47v-166q0 -62 -35 -98.5t-90 -36.5q-54 0 -88.5 34t-34.5 95q0 78 59 136.5t149.5 87t195.5 28.5q199 0 310 -87t111 -224v-625q0 -28 12 -39.5t38 -11.5q44 0 67 23l14 -15q-42 -42 -116 -51
q-45 -69 -71 -144.5t-26 -127.5q0 -90 82 -90q35 0 68.5 12.5t52.5 32.5zM743 176v359q-204 -32 -267 -53q-105 -35 -138 -109q-21 -49 -21 -121q0 -94 45.5 -143.5t124.5 -49.5q69 0 137 31.5t119 85.5z" />
    <glyph glyph-name="Cacute" unicode="&#x106;" horiz-adv-x="1441" 
d="M1313 219l22 -24q-204 -207 -530 -207q-324 0 -515.5 196t-191.5 533q0 335 191 532t508 197q122 0 233.5 -31t192.5 -92l86 51l20 -20v-283h-35q-17 81 -58 143t-89 96t-108.5 55t-107 27.5t-93.5 6.5q-238 0 -373 -173.5t-135 -500.5q0 -153 34 -275.5t100.5 -211.5
t172.5 -137t244 -48q269 0 432 166zM641 1522l283 288l116 -116l-378 -195z" />
    <glyph glyph-name="cacute" unicode="&#x107;" horiz-adv-x="1136" 
d="M778 772v176q-85 53 -174 53q-145 0 -225 -123t-80 -335q0 -232 96.5 -362t284.5 -130q178 0 301 123l23 -24q-160 -160 -408 -160q-252 0 -384 140t-132 378q0 245 135.5 384.5t384.5 139.5q111 0 207.5 -29t160.5 -91t64 -144q0 -64 -35 -97.5t-92 -33.5
q-58 0 -92.5 36.5t-34.5 98.5zM446 1153l283 289l117 -119l-379 -193z" />
    <glyph glyph-name="Ccircumflex" unicode="&#x108;" horiz-adv-x="1441" 
d="M1313 219l22 -24q-204 -207 -530 -207q-324 0 -515.5 196t-191.5 533q0 335 191 532t508 197q122 0 233.5 -31t192.5 -92l86 51l20 -20v-283h-35q-17 81 -58 143t-89 96t-108.5 55t-107 27.5t-93.5 6.5q-238 0 -373 -173.5t-135 -500.5q0 -153 34 -275.5t100.5 -211.5
t172.5 -137t244 -48q269 0 432 166zM778 1810h33l274 -288l-20 -23l-270 160l-271 -160l-20 23z" />
    <glyph glyph-name="ccircumflex" unicode="&#x109;" horiz-adv-x="1136" 
d="M778 772v176q-85 53 -174 53q-145 0 -225 -123t-80 -335q0 -232 96.5 -362t284.5 -130q178 0 301 123l23 -24q-160 -160 -408 -160q-252 0 -384 140t-132 378q0 245 135.5 384.5t384.5 139.5q111 0 207.5 -29t160.5 -91t64 -144q0 -64 -35 -97.5t-92 -33.5
q-58 0 -92.5 36.5t-34.5 98.5zM582 1442h30l277 -289l-23 -23l-270 158l-268 -158l-23 23z" />
    <glyph glyph-name="Cdotaccent" unicode="&#x10a;" horiz-adv-x="1441" 
d="M1313 219l22 -24q-204 -207 -530 -207q-324 0 -515.5 196t-191.5 533q0 335 191 532t508 197q122 0 233.5 -31t192.5 -92l86 51l20 -20v-283h-35q-17 81 -58 143t-89 96t-108.5 55t-107 27.5t-93.5 6.5q-238 0 -373 -173.5t-135 -500.5q0 -153 34 -275.5t100.5 -211.5
t172.5 -137t244 -48q269 0 432 166zM653 1681q0 59 39 97.5t99 38.5q58 0 96.5 -38.5t38.5 -97.5q0 -60 -38 -98.5t-97 -38.5q-60 0 -99 38.5t-39 98.5z" />
    <glyph glyph-name="cdotaccent" unicode="&#x10b;" horiz-adv-x="1136" 
d="M778 772v176q-85 53 -174 53q-145 0 -225 -123t-80 -335q0 -232 96.5 -362t284.5 -130q178 0 301 123l23 -24q-160 -160 -408 -160q-252 0 -384 140t-132 378q0 245 135.5 384.5t384.5 139.5q111 0 207.5 -29t160.5 -91t64 -144q0 -64 -35 -97.5t-92 -33.5
q-58 0 -92.5 36.5t-34.5 98.5zM459 1311q0 59 39.5 98t97.5 39t97.5 -39t39.5 -98t-39.5 -98t-97.5 -39t-97.5 39t-39.5 98z" />
    <glyph glyph-name="Ccaron" unicode="&#x10c;" horiz-adv-x="1441" 
d="M1313 219l22 -24q-204 -207 -530 -207q-324 0 -515.5 196t-191.5 533q0 335 191 532t508 197q122 0 233.5 -31t192.5 -92l86 51l20 -20v-283h-35q-17 81 -58 143t-89 96t-108.5 55t-107 27.5t-93.5 6.5q-238 0 -373 -173.5t-135 -500.5q0 -153 34 -275.5t100.5 -211.5
t172.5 -137t244 -48q269 0 432 166zM807 1499h-31l-276 289l20 22l271 -157l270 157l20 -22z" />
    <glyph glyph-name="ccaron" unicode="&#x10d;" horiz-adv-x="1136" 
d="M778 772v176q-85 53 -174 53q-145 0 -225 -123t-80 -335q0 -232 96.5 -362t284.5 -130q178 0 301 123l23 -24q-160 -160 -408 -160q-252 0 -384 140t-132 378q0 245 135.5 384.5t384.5 139.5q111 0 207.5 -29t160.5 -91t64 -144q0 -64 -35 -97.5t-92 -33.5
q-58 0 -92.5 36.5t-34.5 98.5zM616 1130h-32l-275 289l21 23l270 -160l270 160l21 -23z" />
    <glyph glyph-name="Dcaron" unicode="&#x10e;" horiz-adv-x="1486" 
d="M39 1434h653q205 0 362 -85.5t246 -249t89 -382.5q0 -221 -89 -384.5t-246 -248t-362 -84.5h-653v16l133 33v1335l-133 31v19zM692 1393h-299v-1352h299q210 0 337.5 173t127.5 501q0 329 -127.5 503.5t-337.5 174.5zM737 1499h-30l-277 289l23 22l268 -157l270 157
l23 -22z" />
    <glyph glyph-name="dcaron" unicode="&#x10f;" horiz-adv-x="1415" 
d="M1032 68l123 -27v-23l-307 -24l-27 26l6 103l-6 6q-133 -139 -336 -139q-200 0 -302.5 134.5t-102.5 362.5q0 260 132.5 402.5t369.5 142.5q127 0 239 -55v430l-123 27v22l308 33l26 -29v-1392zM821 176v772q-109 53 -203 53q-153 0 -236 -125.5t-83 -355.5
q0 -207 79 -334t210 -127q137 0 233 117zM1210 1069l-24 25q39 37 66.5 86t27.5 77q0 13 -8 21q-44 0 -74.5 28.5t-30.5 73.5q0 44 31 73.5t74 29.5q44 0 75 -29.5t31 -87.5q0 -43 -16.5 -87t-47 -86t-52 -67t-52.5 -57z" />
    <glyph glyph-name="Dcroat" unicode="&#x110;" horiz-adv-x="1486" 
d="M39 709v18l133 25v632l-133 31v19h653q205 0 362 -85.5t246 -249t89 -382.5q0 -221 -89 -384.5t-246 -248t-362 -84.5h-653v16l133 33v660h-133zM692 1393h-299v-641h350v-43h-350v-668h299q210 0 337.5 173t127.5 501q0 329 -127.5 503.5t-337.5 174.5z" />
    <glyph glyph-name="dcroat" unicode="&#x111;" horiz-adv-x="1196" 
d="M449 1221v41h372v145l-123 27v22l308 33l26 -29v-198l123 -23v-18h-123v-1153l123 -27v-23l-307 -24l-27 26l6 103l-6 6q-133 -139 -336 -139q-200 0 -302.5 134.5t-102.5 362.5q0 260 132.5 402.5t369.5 142.5q127 0 239 -55v244h-372zM821 176v772q-109 53 -203 53
q-153 0 -236 -125.5t-83 -355.5q0 -207 79 -334t210 -127q137 0 233 117z" />
    <glyph glyph-name="Emacron" unicode="&#x112;" horiz-adv-x="1267" 
d="M393 41h639l96 209h33v-250h-1122v16l133 33v1335l-133 31v19h1102v-252h-33l-96 211h-619v-631h500l43 160h31v-363h-31l-43 160h-500v-678zM381 1628v62h508v-62h-508z" />
    <glyph glyph-name="emacron" unicode="&#x113;" horiz-adv-x="1142" 
d="M1014 512h-715q0 -219 100.5 -339t296.5 -120q180 0 301 121l23 -24q-160 -160 -412 -160q-130 0 -232 39t-166 108t-97 161t-33 202q0 241 144 386.5t370 145.5q201 0 330 -114.5t129 -296.5q0 -45 -11 -82zM602 1001q-121 0 -209 -117.5t-94 -340.5l545 30
q0 211 -63 319.5t-179 108.5zM340 1219v61h508v-61h-508z" />
    <glyph glyph-name="Ebreve" unicode="&#x114;" horiz-adv-x="1267" 
d="M393 41h639l96 209h33v-250h-1122v16l133 33v1335l-133 31v19h1102v-252h-33l-96 211h-619v-631h500l43 160h31v-363h-31l-43 160h-500v-678zM758 1696q0 50 30 81t76 31q47 0 76 -29.5t29 -74.5q0 -61 -55.5 -106t-129 -63.5t-149.5 -18.5q-77 0 -151 18.5t-129.5 63.5
t-55.5 106q0 46 29 75t75 29q48 0 78.5 -31t30.5 -81q0 -43 9.5 -73t21.5 -44.5t32 -22.5t31 -9t29 -1t29 1t31 9t32 22.5t21.5 44.5t9.5 73z" />
    <glyph glyph-name="ebreve" unicode="&#x115;" horiz-adv-x="1142" 
d="M1014 512h-715q0 -219 100.5 -339t296.5 -120q180 0 301 121l23 -24q-160 -160 -412 -160q-130 0 -232 39t-166 108t-97 161t-33 202q0 241 144 386.5t370 145.5q201 0 330 -114.5t129 -296.5q0 -45 -11 -82zM602 1001q-121 0 -209 -117.5t-94 -340.5l545 30
q0 211 -63 319.5t-179 108.5zM711 1325q0 52 30 82.5t78 30.5q47 0 76 -30t29 -75q0 -61 -55.5 -106t-129.5 -63.5t-151 -18.5q-56 0 -112.5 11.5t-108 33.5t-83.5 60t-32 85q0 45 30 74t76 29q47 0 77 -30.5t30 -82.5q0 -42 9.5 -71.5t21.5 -44t32 -22t31 -8.5t29 -1t29 1
t31 8.5t32 22t21.5 44t9.5 71.5z" />
    <glyph glyph-name="Edotaccent" unicode="&#x116;" horiz-adv-x="1267" 
d="M393 41h639l96 209h33v-250h-1122v16l133 33v1335l-133 31v19h1102v-252h-33l-96 211h-619v-631h500l43 160h31v-363h-31l-43 160h-500v-678zM498 1681q0 59 38.5 97.5t98.5 38.5q58 0 96.5 -38.5t38.5 -97.5q0 -60 -38 -98.5t-97 -38.5q-60 0 -98.5 38.5t-38.5 98.5z
" />
    <glyph glyph-name="edotaccent" unicode="&#x117;" horiz-adv-x="1142" 
d="M1014 512h-715q0 -219 100.5 -339t296.5 -120q180 0 301 121l23 -24q-160 -160 -412 -160q-130 0 -232 39t-166 108t-97 161t-33 202q0 241 144 386.5t370 145.5q201 0 330 -114.5t129 -296.5q0 -45 -11 -82zM602 1001q-121 0 -209 -117.5t-94 -340.5l545 30
q0 211 -63 319.5t-179 108.5zM453 1311q0 59 39.5 98t97.5 39t97.5 -39t39.5 -98t-39.5 -98t-97.5 -39t-97.5 39t-39.5 98z" />
    <glyph glyph-name="Eogonek" unicode="&#x118;" horiz-adv-x="1267" 
d="M1159 -334l10 -10q-102 -102 -198 -102q-117 0 -117 124q0 81 48 165t134 157h-997v16l133 33v1335l-133 31v19h1102v-252h-33l-96 211h-619v-631h500l43 160h31v-363h-31l-43 160h-500v-678h639l96 209h33v-250h-98q-51 -71 -80 -152.5t-29 -136.5q0 -92 84 -92
q33 0 66.5 13t54.5 34z" />
    <glyph glyph-name="eogonek" unicode="&#x119;" horiz-adv-x="1142" 
d="M1042 -244l11 -10q-100 -100 -199 -100q-117 0 -117 123q0 137 131 274q-112 -53 -260 -53q-130 0 -232 39t-166 108t-97 161t-33 202q0 241 144 386.5t370 145.5q201 0 330 -114.5t129 -296.5q0 -45 -11 -82l-28 -27h-715q0 -219 100.5 -339t296.5 -120q180 0 301 121
l23 -24q-42 -42 -78 -66q-49 -69 -76.5 -148t-27.5 -135q0 -92 84 -92q33 0 66 13t54 34zM602 1001q-121 0 -209 -117.5t-94 -340.5l545 30q0 211 -63 319.5t-179 108.5z" />
    <glyph glyph-name="Ecaron" unicode="&#x11a;" horiz-adv-x="1267" 
d="M393 41h639l96 209h33v-250h-1122v16l133 33v1335l-133 31v19h1102v-252h-33l-96 211h-619v-631h500l43 160h31v-363h-31l-43 160h-500v-678zM649 1499h-31l-276 289l23 22l268 -157l270 157l23 -22z" />
    <glyph glyph-name="ecaron" unicode="&#x11b;" horiz-adv-x="1142" 
d="M1014 512h-715q0 -219 100.5 -339t296.5 -120q180 0 301 121l23 -24q-160 -160 -412 -160q-130 0 -232 39t-166 108t-97 161t-33 202q0 241 144 386.5t370 145.5q201 0 330 -114.5t129 -296.5q0 -45 -11 -82zM602 1001q-121 0 -209 -117.5t-94 -340.5l545 30
q0 211 -63 319.5t-179 108.5zM606 1130h-31l-274 289l21 23l270 -160l270 160l21 -23z" />
    <glyph glyph-name="Gcircumflex" unicode="&#x11c;" horiz-adv-x="1527" 
d="M1360 629v-555l-27 -27l-112 47q-172 -106 -412 -106q-327 0 -519 196t-192 533q0 336 192 532.5t511 196.5q122 0 234.5 -31t193.5 -92l88 51l20 -20v-283h-34q-17 81 -59 143t-90.5 96t-109.5 55t-108.5 27.5t-95.5 6.5q-242 0 -376 -175t-134 -511
q0 -307 131.5 -490.5t376.5 -183.5q183 0 303 92v498l-133 37v20h479v-20zM784 1810h31l277 -288l-23 -23l-270 160l-269 -160l-22 23z" />
    <glyph glyph-name="gcircumflex" unicode="&#x11d;" horiz-adv-x="1150" 
d="M907 961h-88q73 -43 113.5 -112t40.5 -155q0 -151 -118.5 -240t-311.5 -89q-163 0 -267 61q-57 -65 -57 -141q0 -113 162 -113h346q328 0 328 -252q0 -162 -143.5 -249t-424.5 -87q-199 0 -309 46t-110 137q0 117 188 225q-143 41 -143 194q0 70 32.5 126t106.5 128
q-137 91 -137 254q0 152 118.5 243t309.5 91q23 0 73 -4h431v-20zM317 696q0 -146 62 -223.5t164 -77.5q103 0 165 78t62 223q0 144 -62 222.5t-165 78.5q-102 0 -164 -78t-62 -223zM379 -23q-17 0 -62 5q-46 -52 -62.5 -91t-16.5 -81q0 -104 74.5 -147.5t217.5 -43.5
q182 0 288 57.5t106 159.5q0 62 -42.5 101.5t-133.5 39.5h-369zM526 1442h33l275 -289l-21 -23l-270 158l-271 -158l-20 23z" />
    <glyph glyph-name="Gbreve" unicode="&#x11e;" horiz-adv-x="1527" 
d="M1360 629v-555l-27 -27l-112 47q-172 -106 -412 -106q-327 0 -519 196t-192 533q0 336 192 532.5t511 196.5q122 0 234.5 -31t193.5 -92l88 51l20 -20v-283h-34q-17 81 -59 143t-90.5 96t-109.5 55t-108.5 27.5t-95.5 6.5q-242 0 -376 -175t-134 -511
q0 -307 131.5 -490.5t376.5 -183.5q183 0 303 92v498l-133 37v20h479v-20zM920 1696q0 50 30 81t76 31q49 0 78 -29.5t29 -74.5q0 -61 -56 -106t-130 -63.5t-150 -18.5t-150 18.5t-130 63.5t-56 106q0 46 29.5 75t76.5 29q46 0 76.5 -31t30.5 -81q0 -43 9.5 -73t21.5 -44.5
t32 -22.5t31 -9t29 -1t29 1t31 9t32 22.5t21.5 44.5t9.5 73z" />
    <glyph glyph-name="gbreve" unicode="&#x11f;" horiz-adv-x="1150" 
d="M907 961h-88q73 -43 113.5 -112t40.5 -155q0 -151 -118.5 -240t-311.5 -89q-163 0 -267 61q-57 -65 -57 -141q0 -113 162 -113h346q328 0 328 -252q0 -162 -143.5 -249t-424.5 -87q-199 0 -309 46t-110 137q0 117 188 225q-143 41 -143 194q0 70 32.5 126t106.5 128
q-137 91 -137 254q0 152 118.5 243t309.5 91q23 0 73 -4h431v-20zM317 696q0 -146 62 -223.5t164 -77.5q103 0 165 78t62 223q0 144 -62 222.5t-165 78.5q-102 0 -164 -78t-62 -223zM379 -23q-17 0 -62 5q-46 -52 -62.5 -91t-16.5 -81q0 -104 74.5 -147.5t217.5 -43.5
q182 0 288 57.5t106 159.5q0 62 -42.5 101.5t-133.5 39.5h-369zM666 1325q0 52 30 82.5t78 30.5q47 0 76 -30t29 -75q0 -61 -55.5 -106t-129.5 -63.5t-151 -18.5q-56 0 -112.5 11.5t-108 33.5t-83.5 60t-32 85q0 45 30 74t76 29q47 0 77 -30.5t30 -82.5q0 -42 9.5 -71.5
t21.5 -44t32 -22t31 -8.5t29 -1t29 1t31 8.5t32 22t21.5 44t9.5 71.5z" />
    <glyph glyph-name="Gdotaccent" unicode="&#x120;" horiz-adv-x="1527" 
d="M1360 629v-555l-27 -27l-112 47q-172 -106 -412 -106q-327 0 -519 196t-192 533q0 336 192 532.5t511 196.5q122 0 234.5 -31t193.5 -92l88 51l20 -20v-283h-34q-17 81 -59 143t-90.5 96t-109.5 55t-108.5 27.5t-95.5 6.5q-242 0 -376 -175t-134 -511
q0 -307 131.5 -490.5t376.5 -183.5q183 0 303 92v498l-133 37v20h479v-20zM659 1681q0 58 39.5 97t98.5 39t98 -39t39 -97q0 -60 -39 -98.5t-98 -38.5t-98.5 38.5t-39.5 98.5z" />
    <glyph glyph-name="gdotaccent" unicode="&#x121;" horiz-adv-x="1150" 
d="M907 961h-88q73 -43 113.5 -112t40.5 -155q0 -151 -118.5 -240t-311.5 -89q-163 0 -267 61q-57 -65 -57 -141q0 -113 162 -113h346q328 0 328 -252q0 -162 -143.5 -249t-424.5 -87q-199 0 -309 46t-110 137q0 117 188 225q-143 41 -143 194q0 70 32.5 126t106.5 128
q-137 91 -137 254q0 152 118.5 243t309.5 91q23 0 73 -4h431v-20zM317 696q0 -146 62 -223.5t164 -77.5q103 0 165 78t62 223q0 144 -62 222.5t-165 78.5q-102 0 -164 -78t-62 -223zM379 -23q-17 0 -62 5q-46 -52 -62.5 -91t-16.5 -81q0 -104 74.5 -147.5t217.5 -43.5
q182 0 288 57.5t106 159.5q0 62 -42.5 101.5t-133.5 39.5h-369zM408 1311q0 59 38.5 98t98.5 39q58 0 96.5 -39t38.5 -98t-38.5 -98t-96.5 -39q-60 0 -98.5 39t-38.5 98z" />
    <glyph glyph-name="Gcommaaccent" unicode="&#x122;" horiz-adv-x="1527" 
d="M1360 629v-555l-27 -27l-112 47q-172 -106 -412 -106q-327 0 -519 196t-192 533q0 336 192 532.5t511 196.5q122 0 234.5 -31t193.5 -92l88 51l20 -20v-283h-34q-17 81 -59 143t-90.5 96t-109.5 55t-108.5 27.5t-95.5 6.5q-242 0 -376 -175t-134 -511
q0 -307 131.5 -490.5t376.5 -183.5q183 0 303 92v498l-133 37v20h479v-20zM743 -512l-22 23q38 39 65 87.5t27 75.5q0 15 -6 21q-45 0 -76 29t-31 73t31.5 74.5t75.5 30.5t75 -30t31 -89q0 -42 -16.5 -85.5t-48 -86t-52 -66t-53.5 -57.5z" />
    <glyph glyph-name="gcommaaccent" unicode="&#x123;" horiz-adv-x="1150" 
d="M907 961h-88q73 -43 113.5 -112t40.5 -155q0 -151 -118.5 -240t-311.5 -89q-163 0 -267 61q-57 -65 -57 -141q0 -113 162 -113h346q328 0 328 -252q0 -162 -143.5 -249t-424.5 -87q-199 0 -309 46t-110 137q0 117 188 225q-143 41 -143 194q0 70 32.5 126t106.5 128
q-137 91 -137 254q0 152 118.5 243t309.5 91q23 0 73 -4h431v-20zM317 696q0 -146 62 -223.5t164 -77.5q103 0 165 78t62 223q0 144 -62 222.5t-165 78.5q-102 0 -164 -78t-62 -223zM379 -23q-17 0 -62 5q-46 -52 -62.5 -91t-16.5 -81q0 -104 74.5 -147.5t217.5 -43.5
q182 0 288 57.5t106 159.5q0 62 -42.5 101.5t-133.5 39.5h-369zM602 1536l25 -23q-39 -40 -67 -88.5t-28 -76.5q0 -12 9 -21q45 0 74.5 -28.5t29.5 -73.5q0 -43 -30 -73t-74 -30t-75.5 30t-31.5 89q0 42 16.5 85.5t47 85.5t52 67t52.5 57z" />
    <glyph glyph-name="Hcircumflex" unicode="&#x124;" horiz-adv-x="1525" 
d="M39 20l133 39v1315l-133 39v21h487v-21l-133 -39v-622h742v622l-134 39v21h486v-21l-133 -39v-1315l133 -39v-20h-486v20l134 39v650h-742v-650l133 -39v-20h-487v20zM748 1810h30l277 -288l-21 -23l-270 160l-270 -160l-21 23z" />
    <glyph glyph-name="hcircumflex" unicode="&#x125;" horiz-adv-x="1249" 
d="M375 834v-775l108 -39v-20h-444v20l123 39v1348l-123 27v22l309 33l27 -29v-436l-6 -139l6 -6q77 72 187 112.5t214 40.5q158 0 234.5 -93t76.5 -259v-621l123 -39v-20h-444v20l108 39v586q0 316 -202 316q-72 0 -155.5 -34.5t-141.5 -92.5zM608 1839h33l274 -289
l-20 -22l-270 158l-271 -158l-20 22z" />
    <glyph glyph-name="Hbar" unicode="&#x126;" horiz-adv-x="1492" 
d="M39 1042v19l133 24v289l-133 39v21h487v-21l-133 -39v-289h707v289l-133 39v21h487v-21l-133 -39v-289l133 -24v-19h-133v-983l133 -39v-20h-487v20l133 39v650h-707v-650l133 -39v-20h-487v20l133 39v983h-133zM393 752h707v290h-707v-290z" />
    <glyph glyph-name="hbar" unicode="&#x127;" horiz-adv-x="1249" 
d="M162 1245v162l-123 27v22l309 33l27 -29v-215h373v-41h-373v-180l-6 -139l6 -6q77 72 187 112.5t214 40.5q158 0 234.5 -93t76.5 -259v-621l123 -39v-20h-444v20l108 39v586q0 316 -202 316q-72 0 -155.5 -34.5t-141.5 -92.5v-775l108 -39v-20h-444v20l123 39v1145h-123
v17z" />
    <glyph glyph-name="Itilde" unicode="&#x128;" horiz-adv-x="565" 
d="M391 1374v-1315l127 -39v-20h-477v20l133 39v1315l-133 39v21h477v-21zM-37 1552l-26 25q102 100 157 139t96 39q40 0 117 -47t123 -47q39 0 88 25t90 67l25 -24q-89 -89 -153 -137t-109 -48q-31 0 -72 24t-85 48t-83 24q-80 0 -168 -88z" />
    <glyph glyph-name="itilde" unicode="&#x129;" 
d="M-51 1182l-25 24q99 100 155 139t99 39q39 0 115.5 -47t122.5 -47q38 0 87.5 25.5t92.5 66.5l25 -24q-182 -182 -265 -182q-31 0 -72 23.5t-84.5 47t-82.5 23.5q-80 0 -168 -88zM39 0v20l123 39v897l-123 27v23l309 32l27 -28v-951l123 -39v-20h-459z" />
    <glyph glyph-name="Imacron" unicode="&#x12a;" horiz-adv-x="565" 
d="M391 1374v-1315l127 -39v-20h-477v20l133 39v1315l-133 39v21h477v-21zM29 1628v62h508v-62h-508z" />
    <glyph glyph-name="imacron" unicode="&#x12b;" 
d="M14 1219v61h508v-61h-508zM39 0v20l123 39v897l-123 27v23l309 32l27 -28v-951l123 -39v-20h-459z" />
    <glyph glyph-name="Ibreve" unicode="&#x12c;" horiz-adv-x="565" 
d="M391 1374v-1315l127 -39v-20h-477v20l133 39v1315l-133 39v21h477v-21zM406 1696q0 50 30 81t76 31q48 0 77 -29.5t29 -74.5q0 -47 -32 -84.5t-83 -59t-108 -33t-112 -11.5q-76 0 -150 18.5t-130 63.5t-56 106q0 46 29.5 75t76.5 29q46 0 76.5 -31t30.5 -81
q0 -43 9.5 -73t21.5 -44.5t32 -22.5t31 -9t29 -1t29 1t31 9t32 22.5t21.5 44.5t9.5 73z" />
    <glyph glyph-name="ibreve" unicode="&#x12d;" 
d="M362 1325q0 52 30 82.5t77 30.5q46 0 75 -30t29 -75q0 -47 -32 -84.5t-82.5 -59t-107 -33t-111.5 -11.5q-56 0 -113 11.5t-108 33.5t-83 60t-32 85q0 46 29 74.5t75 28.5q48 0 78.5 -30.5t30.5 -82.5q0 -42 9.5 -71.5t21 -44t31.5 -22t31 -8.5t30 -1q18 0 29 1t31 8.5
t31.5 22t21 44t9.5 71.5zM39 0v20l123 39v897l-123 27v23l309 32l27 -28v-951l123 -39v-20h-459z" />
    <glyph glyph-name="Iogonek" unicode="&#x12e;" horiz-adv-x="565" 
d="M508 -334l10 -10q-102 -102 -196 -102q-119 0 -119 124q0 81 48 165t134 157h-344v20l133 39v1315l-133 39v21h477v-21l-127 -39v-1315l127 -39v-20h-106q-51 -70 -79 -151.5t-28 -137.5q0 -92 82 -92q33 0 66.5 13t54.5 34z" />
    <glyph glyph-name="iogonek" unicode="&#x12f;" 
d="M39 0v20l123 39v897l-123 27v23l309 32l27 -28v-951l123 -39v-20h-105q-52 -70 -80 -151t-28 -138q0 -92 82 -92q33 0 66 13t54 34l13 -10q-102 -102 -199 -102q-119 0 -119 124q0 81 48.5 165t134.5 157h-326zM109 1311q0 63 41 104t104 41t105 -41t42 -104t-42 -104.5
t-105 -41.5t-104 41.5t-41 104.5z" />
    <glyph glyph-name="Idotaccent" unicode="&#x130;" horiz-adv-x="565" 
d="M391 1374v-1315l127 -39v-20h-477v20l133 39v1315l-133 39v21h477v-21zM145 1681q0 58 39.5 97t98.5 39t98 -39t39 -97q0 -60 -39 -98.5t-98 -38.5t-98.5 38.5t-39.5 98.5z" />
    <glyph glyph-name="dotlessi" unicode="&#x131;" 
d="M39 0v20l123 39v897l-123 27v23l309 32l27 -28v-951l123 -39v-20h-459z" />
    <glyph glyph-name="IJ" unicode="&#x132;" horiz-adv-x="1124" 
d="M391 1374v-1315l127 -39v-20h-477v20l133 39v1315l-133 39v21h477v-21zM735 33v1341l-133 39v21h475v-21l-127 -39v-1341q0 -149 -79.5 -255.5t-239.5 -197.5l-25 23q67 95 98 198t31 232z" />
    <glyph glyph-name="ij" unicode="&#x133;" horiz-adv-x="1069" 
d="M39 0v20l123 39v897l-123 27v23l309 32l27 -28v-951l123 -39v-20h-459zM109 1311q0 63 41 104t104 41t105 -41t42 -104t-42 -104.5t-105 -41.5t-104 41.5t-41 104.5zM694 33v923l-123 27v23l310 32l26 -28v-977q0 -149 -78.5 -255.5t-236.5 -197.5l-23 23
q66 95 95.5 197.5t29.5 232.5zM641 1311q0 63 41 104t104 41t104.5 -41t41.5 -104t-41.5 -104.5t-104.5 -41.5t-104 41.5t-41 104.5z" />
    <glyph glyph-name="Jcircumflex" unicode="&#x134;" horiz-adv-x="565" 
d="M174 33v1341l-133 39v21h475v-21l-125 -39v-1341q0 -149 -80 -255.5t-241 -197.5l-23 23q66 95 96.5 198t30.5 232zM266 1810h33l274 -288l-20 -23l-270 160l-271 -160l-20 23z" />
    <glyph glyph-name="jcircumflex" unicode="&#x135;" 
d="M162 33v923l-123 27v23l309 32l27 -28v-977q0 -149 -79 -255.5t-237 -197.5l-22 23q66 95 95.5 197.5t29.5 232.5zM252 1442h33l274 -289l-20 -23l-271 158l-270 -158l-21 23z" />
    <glyph glyph-name="Kcommaaccent" unicode="&#x136;" horiz-adv-x="1411" 
d="M385 1374v-733l688 733l-166 39v21h369v-21l-146 -39l-434 -467l566 -854l118 -33v-20h-327l-508 758l-160 -172v-527l133 -39v-20h-485v20l133 39v1315l-133 39v21h485v-21zM641 -512l-23 23q38 39 65.5 88t27.5 75q0 15 -6 21q-45 0 -76 29t-31 73t31.5 74.5t75.5 30.5
t75 -30t31 -89q0 -42 -16.5 -85.5t-48 -86t-52 -66t-53.5 -57.5z" />
    <glyph glyph-name="kcommaaccent" unicode="&#x137;" horiz-adv-x="1153" 
d="M827 0l-327 537l-125 -136v-342l123 -39v-20h-459v20l123 39v1348l-123 27v22l309 33l27 -29v-1003l479 508l-158 39v20h348v-20l-135 -39l-266 -289l379 -623l108 -33v-20h-303zM512 -512l-23 23q38 39 65.5 88t27.5 75q0 14 -7 21q-44 0 -74 29t-30 73t30 74.5t74 30.5
t75.5 -30t31.5 -89q0 -125 -170 -295z" />
    <glyph glyph-name="Lacute" unicode="&#x139;" horiz-adv-x="1202" 
d="M393 41h568l96 209h33v-250h-1051v16l133 33v1325l-133 39v21h487v-21l-133 -39v-1333zM125 1522l283 288l116 -116l-379 -195z" />
    <glyph glyph-name="lacute" unicode="&#x13a;" 
d="M39 0v20l123 39v1348l-123 27v22l309 33l27 -29v-1401l123 -39v-20h-459zM111 1550l282 289l117 -119l-379 -192z" />
    <glyph glyph-name="Lcommaaccent" unicode="&#x13b;" horiz-adv-x="1202" 
d="M393 41h568l96 209h33v-250h-1051v16l133 33v1325l-133 39v21h487v-21l-133 -39v-1333zM543 -512l-25 23q38 40 66 88.5t28 74.5q0 13 -8 21q-44 0 -74 29t-30 73t30 74.5t74 30.5t75.5 -30t31.5 -89q0 -42 -16.5 -85.5t-47 -85.5t-52 -67t-52.5 -57z" />
    <glyph glyph-name="lcommaaccent" unicode="&#x13c;" 
d="M39 0v20l123 39v1348l-123 27v22l309 33l27 -29v-1401l123 -39v-20h-459zM205 -512l-23 23q38 39 65 87.5t27 75.5q0 15 -6 21q-44 0 -74 29t-30 73t30 74.5t74 30.5t75.5 -30t31.5 -89q0 -125 -170 -295z" />
    <glyph glyph-name="Lcaron" unicode="&#x13d;" horiz-adv-x="1202" 
d="M393 41h568l96 209h33v-250h-1051v16l133 33v1325l-133 39v21h487v-21l-133 -39v-1333zM299 1499h-33l-274 289l20 22l271 -157l270 157l20 -22z" />
    <glyph glyph-name="lcaron" unicode="&#x13e;" horiz-adv-x="757" 
d="M39 0v20l123 39v1348l-123 27v22l309 33l27 -29v-1401l123 -39v-20h-459zM553 1069l-25 23q38 38 66.5 87t28.5 76q0 12 -9 21q-44 0 -74 29t-30 73t30 74.5t74 30.5t75.5 -30.5t31.5 -88.5q0 -127 -168 -295z" />
    <glyph glyph-name="Ldot" unicode="&#x13f;" horiz-adv-x="1202" 
d="M393 41h568l96 209h33v-250h-1051v16l133 33v1325l-133 39v21h487v-21l-133 -39v-1333zM752 717q0 54 35.5 89.5t89.5 35.5t89 -35.5t35 -89.5t-35 -90.5t-89 -36.5t-89.5 36.5t-35.5 90.5z" />
    <glyph glyph-name="ldot" unicode="&#x140;" horiz-adv-x="872" 
d="M39 0v20l123 39v1348l-123 27v22l309 33l27 -29v-1401l123 -39v-20h-459zM571 614q0 54 36 90.5t89 36.5q54 0 90.5 -36.5t36.5 -90.5t-36.5 -89.5t-90.5 -35.5q-53 0 -89 35.5t-36 89.5z" />
    <glyph glyph-name="Lslash" unicode="&#x141;" horiz-adv-x="1202" 
d="M55 432l-28 29l145 147v766l-133 39v21h487v-21l-133 -39v-620l271 272l30 -31l-301 -301v-653h568l96 209h33v-250h-1051v16l133 33v500z" />
    <glyph glyph-name="lslash" unicode="&#x142;" 
d="M55 457l-28 28l135 138v784l-123 27v22l309 33l27 -29v-665l106 106l31 -31l-137 -135v-676l123 -39v-20h-459v20l123 39v504z" />
    <glyph glyph-name="Nacute" unicode="&#x143;" horiz-adv-x="1427" 
d="M39 16l133 39v1319l-133 39v21h364l809 -1127v1071l-133 37v19h310v-19l-134 -37v-1378h-63l-977 1356v-1301l133 -39v-16h-309v16zM555 1522l283 288l116 -116l-379 -195z" />
    <glyph glyph-name="nacute" unicode="&#x144;" horiz-adv-x="1249" 
d="M375 834v-775l108 -39v-20h-444v20l123 39v897l-123 27v23l309 32l27 -28l-6 -125l6 -6q75 72 186 112.5t215 40.5q157 0 234 -93.5t77 -258.5v-621l123 -39v-20h-444v20l108 39v586q0 144 -50.5 230t-159.5 86q-76 0 -155.5 -35t-133.5 -92zM465 1153l283 289l116 -119
l-379 -193z" />
    <glyph glyph-name="Ncommaaccent" unicode="&#x145;" horiz-adv-x="1427" 
d="M39 16l133 39v1319l-133 39v21h364l809 -1127v1071l-133 37v19h310v-19l-134 -37v-1378h-63l-977 1356v-1301l133 -39v-16h-309v16zM649 -512l-22 23q38 39 65 87.5t27 75.5q0 15 -6 21q-45 0 -76 29t-31 73t31.5 74.5t75.5 30.5t75 -30t31 -89q0 -42 -16.5 -85.5
t-48 -86t-52 -66t-53.5 -57.5z" />
    <glyph glyph-name="ncommaaccent" unicode="&#x146;" horiz-adv-x="1249" 
d="M375 834v-775l108 -39v-20h-444v20l123 39v897l-123 27v23l309 32l27 -28l-6 -125l6 -6q75 72 186 112.5t215 40.5q157 0 234 -93.5t77 -258.5v-621l123 -39v-20h-444v20l108 39v586q0 144 -50.5 230t-159.5 86q-76 0 -155.5 -35t-133.5 -92zM561 -512l-22 23
q38 39 65 87.5t27 75.5q0 15 -6 21q-45 0 -75 29t-30 73t30.5 74.5t74.5 30.5t75 -30t31 -89q0 -125 -170 -295z" />
    <glyph glyph-name="Ncaron" unicode="&#x147;" horiz-adv-x="1427" 
d="M39 16l133 39v1319l-133 39v21h364l809 -1127v1071l-133 37v19h310v-19l-134 -37v-1378h-63l-977 1356v-1301l133 -39v-16h-309v16zM729 1499h-33l-274 289l20 22l271 -157l270 157l21 -22z" />
    <glyph glyph-name="ncaron" unicode="&#x148;" horiz-adv-x="1249" 
d="M375 834v-775l108 -39v-20h-444v20l123 39v897l-123 27v23l309 32l27 -28l-6 -125l6 -6q75 72 186 112.5t215 40.5q157 0 234 -93.5t77 -258.5v-621l123 -39v-20h-444v20l108 39v586q0 144 -50.5 230t-159.5 86q-76 0 -155.5 -35t-133.5 -92zM641 1130h-33l-274 289
l20 23l271 -160l270 160l20 -23z" />
    <glyph glyph-name="Eng" unicode="&#x14a;" horiz-adv-x="1427" 
d="M39 16l133 39v1319l-133 39v21h358l815 -1278v1222l-133 37v19h310v-19l-134 -37v-1345q0 -148 -81 -255t-242 -198l-23 23q66 95 95.5 197.5t29.5 232.5v43l-819 1280v-1301l133 -39v-16h-309v16z" />
    <glyph glyph-name="eng" unicode="&#x14b;" horiz-adv-x="1249" 
d="M874 33v612q0 144 -50.5 230t-159.5 86q-76 0 -155.5 -35t-133.5 -92v-775l123 -39v-20h-459v20l123 39v897l-123 27v23l309 32l27 -28l-6 -125l6 -6q75 72 186 112.5t215 40.5q157 0 234 -93.5t77 -258.5v-647q0 -149 -78.5 -255.5t-236.5 -197.5l-22 23q65 94 94.5 197
t29.5 233z" />
    <glyph glyph-name="Omacron" unicode="&#x14c;" horiz-adv-x="1574" 
d="M98 717q0 220 87.5 386t243.5 254.5t359 88.5q202 0 358.5 -88.5t244.5 -255t88 -385.5q0 -334 -191.5 -531.5t-499.5 -197.5q-203 0 -359 87.5t-243.5 253.5t-87.5 388zM330 715q0 -336 125 -516.5t333 -180.5q206 0 331.5 180.5t125.5 516.5q0 337 -125.5 518.5
t-331.5 181.5q-208 0 -333 -181t-125 -519zM535 1628v62h507v-62h-507z" />
    <glyph glyph-name="omacron" unicode="&#x14d;" horiz-adv-x="1193" 
d="M80 510q0 236 143 379t375 143q230 0 373 -143t143 -379q0 -237 -142.5 -378.5t-373.5 -141.5q-232 0 -375 141.5t-143 378.5zM299 510q0 -236 81.5 -363t217.5 -127q137 0 218 127t81 363q0 237 -81 364t-218 127q-136 0 -217.5 -127t-81.5 -364zM344 1219v61h508v-61
h-508z" />
    <glyph glyph-name="Obreve" unicode="&#x14e;" horiz-adv-x="1574" 
d="M98 717q0 220 87.5 386t243.5 254.5t359 88.5q202 0 358.5 -88.5t244.5 -255t88 -385.5q0 -334 -191.5 -531.5t-499.5 -197.5q-203 0 -359 87.5t-243.5 253.5t-87.5 388zM330 715q0 -336 125 -516.5t333 -180.5q206 0 331.5 180.5t125.5 516.5q0 337 -125.5 518.5
t-331.5 181.5q-208 0 -333 -181t-125 -519zM911 1696q0 51 29.5 81.5t77.5 30.5q47 0 75.5 -29.5t28.5 -74.5q0 -61 -55.5 -106t-129 -63.5t-149.5 -18.5q-77 0 -150.5 18.5t-129 63t-55.5 106.5q0 46 29 75t75 29q48 0 77.5 -30.5t29.5 -81.5q0 -43 9.5 -73t21 -44.5
t32 -22.5t31.5 -9t30 -1q18 0 29 1t31 9t32 22.5t21.5 44.5t9.5 73z" />
    <glyph glyph-name="obreve" unicode="&#x14f;" horiz-adv-x="1193" 
d="M80 510q0 236 143 379t375 143q230 0 373 -143t143 -379q0 -237 -142.5 -378.5t-373.5 -141.5q-232 0 -375 141.5t-143 378.5zM299 510q0 -236 81.5 -363t217.5 -127q137 0 218 127t81 363q0 237 -81 364t-218 127q-136 0 -217.5 -127t-81.5 -364zM721 1325
q0 52 29.5 82.5t76.5 30.5q48 0 77.5 -30t29.5 -75q0 -61 -56 -106t-130 -63.5t-150 -18.5q-56 0 -113 11.5t-108 33.5t-83 60t-32 85q0 46 29.5 74.5t75.5 28.5q48 0 78 -30.5t30 -82.5q0 -42 9.5 -71.5t21.5 -44t32 -22t31 -8.5t29 -1t29 1t31 8.5t32 22t21.5 44t9.5 71.5
z" />
    <glyph glyph-name="Ohungarumlaut" unicode="&#x150;" horiz-adv-x="1574" 
d="M98 717q0 220 87.5 386t243.5 254.5t359 88.5q202 0 358.5 -88.5t244.5 -255t88 -385.5q0 -334 -191.5 -531.5t-499.5 -197.5q-203 0 -359 87.5t-243.5 253.5t-87.5 388zM330 715q0 -336 125 -516.5t333 -180.5q206 0 331.5 180.5t125.5 516.5q0 337 -125.5 518.5
t-331.5 181.5q-208 0 -333 -181t-125 -519zM436 1522l271 288l114 -116l-362 -195zM793 1522l268 288l117 -116l-365 -195z" />
    <glyph glyph-name="ohungarumlaut" unicode="&#x151;" horiz-adv-x="1193" 
d="M80 510q0 236 143 379t375 143q230 0 373 -143t143 -379q0 -237 -142.5 -378.5t-373.5 -141.5q-232 0 -375 141.5t-143 378.5zM299 510q0 -236 81.5 -363t217.5 -127q137 0 218 127t81 363q0 237 -81 364t-218 127q-136 0 -217.5 -127t-81.5 -364zM246 1153l270 289
l117 -119l-365 -193zM602 1153l270 289l115 -119l-362 -193z" />
    <glyph glyph-name="OE" unicode="&#x152;" horiz-adv-x="2045" 
d="M1217 41h593l95 209h34v-250h-1009q-68 -12 -142 -12q-203 0 -359 87.5t-243.5 253.5t-87.5 388q0 220 87.5 386t243.5 254.5t359 88.5q72 0 140 -12h991v-252h-35l-94 211h-573v-631h452l43 160h33v-363h-33l-43 160h-452v-678zM788 18q131 0 218 105v1186
q-87 106 -218 106q-208 0 -333 -181t-125 -519q0 -336 125 -516.5t333 -180.5z" />
    <glyph glyph-name="oe" unicode="&#x153;" horiz-adv-x="1925" 
d="M1796 512h-715q0 -219 100.5 -339t295.5 -120q182 0 303 121l22 -24q-163 -160 -411 -160q-278 0 -406 182q-63 -88 -163 -135t-224 -47q-232 0 -375 141.5t-143 378.5q0 236 143 379t375 143q127 0 228 -50t163 -142q65 93 164.5 142.5t222.5 49.5q200 0 328.5 -114.5
t128.5 -296.5q0 -48 -10 -82zM598 20q107 0 181.5 82t101.5 240q-19 78 -19 158q0 77 21 166q-26 165 -100 250t-185 85q-136 0 -217.5 -127t-81.5 -364q0 -236 81.5 -363t217.5 -127zM1384 1001q-121 0 -209 -117.5t-94 -340.5l545 30q0 211 -63 319.5t-179 108.5z" />
    <glyph glyph-name="Racute" unicode="&#x154;" horiz-adv-x="1349" 
d="M1161 1044q0 -152 -100 -251t-270 -121q43 -16 75.5 -53t65.5 -95l270 -471l119 -33v-20h-317l-373 662h-238v-603l133 -39v-20h-487v20l133 39v1325l-133 31v19h614q229 0 368.5 -104t139.5 -286zM627 1393h-234v-691h234q140 0 224.5 89t84.5 256q0 168 -84.5 257
t-224.5 89zM504 1522l284 288l117 -116l-379 -195z" />
    <glyph glyph-name="racute" unicode="&#x155;" horiz-adv-x="991" 
d="M162 59v897l-123 27v23l309 32l27 -28l-6 -181l6 -6q4 8 11.5 22.5t35 50.5t59.5 63.5t84 50t109 22.5q100 0 168.5 -61.5t68.5 -159.5q0 -69 -34.5 -103t-90.5 -34q-59 0 -95 37t-36 100v164q-11 8 -32 8q-45 0 -87.5 -24t-70.5 -58.5t-49 -68.5t-31 -58l-10 -24v-691
l184 -39v-20h-520v20zM346 1153l285 289l114 -119l-376 -193z" />
    <glyph glyph-name="Rcommaaccent" unicode="&#x156;" horiz-adv-x="1349" 
d="M1161 1044q0 -152 -100 -251t-270 -121q43 -16 75.5 -53t65.5 -95l270 -471l119 -33v-20h-317l-373 662h-238v-603l133 -39v-20h-487v20l133 39v1325l-133 31v19h614q229 0 368.5 -104t139.5 -286zM627 1393h-234v-691h234q140 0 224.5 89t84.5 256q0 168 -84.5 257
t-224.5 89zM610 -512l-22 23q38 39 65 87.5t27 75.5q0 15 -6 21q-45 0 -75 29t-30 73t30.5 74.5t74.5 30.5t75 -30t31 -89q0 -125 -170 -295z" />
    <glyph glyph-name="rcommaaccent" unicode="&#x157;" horiz-adv-x="991" 
d="M162 59v897l-123 27v23l309 32l27 -28l-6 -181l6 -6q4 8 11.5 22.5t35 50.5t59.5 63.5t84 50t109 22.5q100 0 168.5 -61.5t68.5 -159.5q0 -69 -34.5 -103t-90.5 -34q-59 0 -95 37t-36 100v164q-11 8 -32 8q-45 0 -87.5 -24t-70.5 -58.5t-49 -68.5t-31 -58l-10 -24v-691
l184 -39v-20h-520v20zM227 -512l-22 23q38 39 65 87.5t27 75.5q0 15 -6 21q-45 0 -75 29t-30 73t30.5 74.5t74.5 30.5t75 -30t31 -89q0 -125 -170 -295z" />
    <glyph glyph-name="Rcaron" unicode="&#x158;" horiz-adv-x="1349" 
d="M1161 1044q0 -152 -100 -251t-270 -121q43 -16 75.5 -53t65.5 -95l270 -471l119 -33v-20h-317l-373 662h-238v-603l133 -39v-20h-487v20l133 39v1325l-133 31v19h614q229 0 368.5 -104t139.5 -286zM627 1393h-234v-691h234q140 0 224.5 89t84.5 256q0 168 -84.5 257
t-224.5 89zM668 1499h-33l-275 289l21 22l270 -157l271 157l20 -22z" />
    <glyph glyph-name="rcaron" unicode="&#x159;" horiz-adv-x="991" 
d="M162 59v897l-123 27v23l309 32l27 -28l-6 -181l6 -6q4 8 11.5 22.5t35 50.5t59.5 63.5t84 50t109 22.5q100 0 168.5 -61.5t68.5 -159.5q0 -69 -34.5 -103t-90.5 -34q-59 0 -95 37t-36 100v164q-11 8 -32 8q-45 0 -87.5 -24t-70.5 -58.5t-49 -68.5t-31 -58l-10 -24v-691
l184 -39v-20h-520v20zM520 1130h-31l-276 289l23 23l268 -160l270 160l23 -23z" />
    <glyph glyph-name="Sacute" unicode="&#x15a;" horiz-adv-x="1206" 
d="M113 43v291h37q18 -77 55 -135.5t80 -92t96.5 -54t98 -27.5t91.5 -7q170 0 266.5 82.5t96.5 229.5q0 31 -5.5 58t-13.5 48.5t-24.5 41t-31 33.5t-41.5 28.5t-48.5 24.5t-58.5 22.5t-63.5 21t-72.5 21.5q-180 53 -252 89q-154 76 -192 212q-14 50 -14 110q0 179 119 292.5
t352 113.5q196 0 344 -96l86 59l20 -20v-291h-37q-17 76 -51 134.5t-73.5 92t-88 55t-89 28.5t-81.5 7q-149 0 -238 -80t-89 -209q0 -29 5.5 -54.5t13 -45.5t24.5 -38.5t30.5 -31.5t40.5 -27t45 -22.5t54.5 -21t57.5 -19.5t65 -20q65 -20 104 -33.5t96 -37.5t92 -46t75 -56
t62 -71t37 -88t15 -111q0 -89 -30.5 -163.5t-92 -131t-162 -88.5t-231.5 -32q-213 0 -371 96l-88 -61zM438 1522l285 288l117 -116l-379 -195z" />
    <glyph glyph-name="sacute" unicode="&#x15b;" horiz-adv-x="935" 
d="M100 39v223h43q53 -242 301 -242q120 0 192.5 55.5t72.5 151.5q0 26 -6.5 48t-17 38.5t-30.5 31t-38 24t-49.5 20.5t-56 18t-65.5 17q-147 39 -206 72q-132 79 -134 237q0 137 89 218t274 81q146 0 262 -61l43 35l21 -21v-221h-41q-15 70 -46 119.5t-72 73.5t-79.5 34
t-79.5 10q-104 0 -165.5 -52.5t-61.5 -137.5q0 -42 15 -71.5t50 -50.5t69 -34t95 -30q157 -48 220 -83q146 -81 153 -234v-17q0 -139 -98 -220t-305 -81q-168 0 -285 63l-43 -35zM309 1153l283 289l117 -119l-379 -193z" />
    <glyph glyph-name="Scircumflex" unicode="&#x15c;" horiz-adv-x="1206" 
d="M113 43v291h37q18 -77 55 -135.5t80 -92t96.5 -54t98 -27.5t91.5 -7q170 0 266.5 82.5t96.5 229.5q0 31 -5.5 58t-13.5 48.5t-24.5 41t-31 33.5t-41.5 28.5t-48.5 24.5t-58.5 22.5t-63.5 21t-72.5 21.5q-180 53 -252 89q-154 76 -192 212q-14 50 -14 110q0 179 119 292.5
t352 113.5q196 0 344 -96l86 59l20 -20v-291h-37q-17 76 -51 134.5t-73.5 92t-88 55t-89 28.5t-81.5 7q-149 0 -238 -80t-89 -209q0 -29 5.5 -54.5t13 -45.5t24.5 -38.5t30.5 -31.5t40.5 -27t45 -22.5t54.5 -21t57.5 -19.5t65 -20q65 -20 104 -33.5t96 -37.5t92 -46t75 -56
t62 -71t37 -88t15 -111q0 -89 -30.5 -163.5t-92 -131t-162 -88.5t-231.5 -32q-213 0 -371 96l-88 -61zM573 1810h33l275 -288l-21 -23l-270 160l-271 -160l-20 23z" />
    <glyph glyph-name="scircumflex" unicode="&#x15d;" horiz-adv-x="935" 
d="M100 39v223h43q53 -242 301 -242q120 0 192.5 55.5t72.5 151.5q0 26 -6.5 48t-17 38.5t-30.5 31t-38 24t-49.5 20.5t-56 18t-65.5 17q-147 39 -206 72q-132 79 -134 237q0 137 89 218t274 81q146 0 262 -61l43 35l21 -21v-221h-41q-15 70 -46 119.5t-72 73.5t-79.5 34
t-79.5 10q-104 0 -165.5 -52.5t-61.5 -137.5q0 -42 15 -71.5t50 -50.5t69 -34t95 -30q157 -48 220 -83q146 -81 153 -234v-17q0 -139 -98 -220t-305 -81q-168 0 -285 63l-43 -35zM455 1442h32l275 -289l-21 -23l-270 158l-270 -158l-21 23z" />
    <glyph glyph-name="Scedilla" unicode="&#x15e;" horiz-adv-x="1206" 
d="M451 -221l118 209q-203 6 -348 96l-88 -61l-20 20v291h37q18 -77 55 -135.5t80 -92t96.5 -54t98 -27.5t91.5 -7q170 0 266.5 82.5t96.5 229.5q0 31 -5.5 58t-13.5 48.5t-24.5 41t-31 33.5t-41.5 28.5t-48.5 24.5t-58.5 22.5t-63.5 21t-72.5 21.5q-180 53 -252 89
q-154 76 -192 212q-14 50 -14 110q0 179 119 292.5t352 113.5q196 0 344 -96l86 59l20 -20v-291h-37q-17 76 -51 134.5t-73.5 92t-88 55t-89 28.5t-81.5 7q-149 0 -238 -80t-89 -209q0 -29 5.5 -54.5t13 -45.5t24.5 -38.5t30.5 -31.5t40.5 -27t45 -22.5t54.5 -21t57.5 -19.5
t65 -20q65 -20 104 -33.5t96 -37.5t92 -46t75 -56t62 -71t37 -88t15 -111q0 -183 -125.5 -297t-376.5 -118l-51 -94q180 0 180 -93t-196 -274l-17 18q96 89 96 166q0 39 -35.5 53.5t-131.5 14.5z" />
    <glyph glyph-name="scedilla" unicode="&#x15f;" horiz-adv-x="935" 
d="M311 -221l121 211q-157 3 -268 63l-43 -35l-21 21v223h43q53 -242 301 -242q120 0 192.5 55.5t72.5 151.5q0 26 -6.5 48t-17 38.5t-30.5 31t-38 24t-49.5 20.5t-56 18t-65.5 17q-147 39 -206 72q-132 79 -134 237q0 137 89 218t274 81q146 0 262 -61l43 35l21 -21v-221
h-41q-15 70 -46 119.5t-72 73.5t-79.5 34t-79.5 10q-104 0 -165.5 -52.5t-61.5 -137.5q0 -42 15 -71.5t50 -50.5t69 -34t95 -30q157 -48 220 -83q146 -81 153 -234v-17q0 -135 -93 -216t-288 -85l-53 -96q180 0 180 -93q0 -90 -199 -274l-14 18q94 90 94 166
q0 39 -35.5 53.5t-132.5 14.5z" />
    <glyph glyph-name="Scaron" unicode="&#x160;" horiz-adv-x="1206" 
d="M113 43v291h37q18 -77 55 -135.5t80 -92t96.5 -54t98 -27.5t91.5 -7q170 0 266.5 82.5t96.5 229.5q0 31 -5.5 58t-13.5 48.5t-24.5 41t-31 33.5t-41.5 28.5t-48.5 24.5t-58.5 22.5t-63.5 21t-72.5 21.5q-180 53 -252 89q-154 76 -192 212q-14 50 -14 110q0 179 119 292.5
t352 113.5q196 0 344 -96l86 59l20 -20v-291h-37q-17 76 -51 134.5t-73.5 92t-88 55t-89 28.5t-81.5 7q-149 0 -238 -80t-89 -209q0 -29 5.5 -54.5t13 -45.5t24.5 -38.5t30.5 -31.5t40.5 -27t45 -22.5t54.5 -21t57.5 -19.5t65 -20q65 -20 104 -33.5t96 -37.5t92 -46t75 -56
t62 -71t37 -88t15 -111q0 -89 -30.5 -163.5t-92 -131t-162 -88.5t-231.5 -32q-213 0 -371 96l-88 -61zM606 1499h-33l-274 289l20 22l271 -157l270 157l21 -22z" />
    <glyph glyph-name="scaron" unicode="&#x161;" horiz-adv-x="935" 
d="M100 39v223h43q53 -242 301 -242q120 0 192.5 55.5t72.5 151.5q0 26 -6.5 48t-17 38.5t-30.5 31t-38 24t-49.5 20.5t-56 18t-65.5 17q-147 39 -206 72q-132 79 -134 237q0 137 89 218t274 81q146 0 262 -61l43 35l21 -21v-221h-41q-15 70 -46 119.5t-72 73.5t-79.5 34
t-79.5 10q-104 0 -165.5 -52.5t-61.5 -137.5q0 -42 15 -71.5t50 -50.5t69 -34t95 -30q157 -48 220 -83q146 -81 153 -234v-17q0 -139 -98 -220t-305 -81q-168 0 -285 63l-43 -35zM487 1130h-32l-275 289l21 23l270 -160l270 160l21 -23z" />
    <glyph glyph-name="Tcommaaccent" unicode="&#x162;" horiz-adv-x="1376" 
d="M1182 1393h-383v-1334l133 -39v-20h-488v20l134 39v1334h-381l-97 -211h-32v252h1243v-252h-35zM625 -512l-23 23q38 39 65 87.5t27 75.5q0 15 -6 21q-45 0 -75.5 29t-30.5 73t31 74.5t75 30.5t75.5 -30t31.5 -89q0 -125 -170 -295z" />
    <glyph glyph-name="tcommaaccent" unicode="&#x163;" horiz-adv-x="786" 
d="M37 983v16q104 25 182.5 95t128.5 166l27 -27v-209h336v-41h-336v-719q0 -98 43 -154.5t127 -56.5q92 0 164 72l22 -23q-109 -112 -278 -112q-143 0 -217 75t-74 199v719h-125zM360 -512l-24 23q38 40 66 88.5t28 74.5q0 13 -8 21q-45 0 -75 29t-30 73t30.5 74.5
t74.5 30.5t75 -30t31 -89q0 -42 -16.5 -85.5t-47 -85.5t-52 -67t-52.5 -57z" />
    <glyph glyph-name="Tcaron" unicode="&#x164;" horiz-adv-x="1376" 
d="M1182 1393h-383v-1334l133 -39v-20h-488v20l134 39v1334h-381l-97 -211h-32v252h1243v-252h-35zM705 1499h-33l-275 289l21 22l270 -157l270 157l21 -22z" />
    <glyph glyph-name="tcaron" unicode="&#x165;" horiz-adv-x="786" 
d="M37 983v16q104 25 182.5 95t128.5 166l27 -27v-209h336v-41h-336v-719q0 -98 43 -154.5t127 -56.5q92 0 164 72l22 -23q-109 -112 -278 -112q-143 0 -217 75t-74 199v719h-125zM594 1124l-23 23q38 39 65.5 88t27.5 76q0 13 -7 20q-44 0 -74 29.5t-30 73.5t30 74t74 30
t75.5 -30t31.5 -89q0 -125 -170 -295z" />
    <glyph glyph-name="Tbar" unicode="&#x166;" horiz-adv-x="1376" 
d="M330 717v41h248v635h-381l-97 -211h-32v252h1243v-252h-35l-94 211h-383v-635h248v-41h-248v-658l133 -39v-20h-488v20l134 39v658h-248z" />
    <glyph glyph-name="tbar" unicode="&#x167;" horiz-adv-x="786" 
d="M37 629v16l125 25v313h-125v16q104 25 182.5 95t128.5 166l27 -27v-209h336v-41h-336v-313h336v-41h-336v-365q0 -98 43 -154.5t127 -56.5q92 0 164 72l22 -23q-109 -112 -278 -112q-143 0 -217 75t-74 199v365h-125z" />
    <glyph glyph-name="Utilde" unicode="&#x168;" horiz-adv-x="1472" 
d="M1298 1378v-846q0 -252 -154.5 -398t-406.5 -146q-253 0 -409 147.5t-156 396.5v842l-133 39v21h487v-21l-133 -39v-842q0 -221 118 -342.5t308 -121.5q195 0 316.5 124.5t121.5 339.5v846l-133 37v19h308v-19zM444 1552l-24 25q100 100 155.5 139t98.5 39q39 0 115 -47
t122 -47q39 0 89 25t92 67l24 -24q-185 -185 -264 -185q-31 0 -72 24t-85 48t-83 24q-77 0 -168 -88z" />
    <glyph glyph-name="utilde" unicode="&#x169;" horiz-adv-x="1243" 
d="M1081 68l123 -27v-23l-309 -24l-27 26l6 117l-6 6q-73 -75 -177 -114t-206 -39q-157 0 -240 88t-83 235v643l-123 27v23l309 32l27 -28v-662q0 -133 51.5 -211t161.5 -78q73 0 149 34t131 95v768l-123 27v23l308 32l28 -28v-942zM295 1182l-25 24q99 100 155 139t99 39
q39 0 115.5 -47t122.5 -47q38 0 87.5 25.5t92.5 66.5l25 -24q-182 -182 -265 -182q-31 0 -72 23.5t-84.5 47t-82.5 23.5q-80 0 -168 -88z" />
    <glyph glyph-name="Umacron" unicode="&#x16a;" horiz-adv-x="1472" 
d="M1298 1378v-846q0 -252 -154.5 -398t-406.5 -146q-253 0 -409 147.5t-156 396.5v842l-133 39v21h487v-21l-133 -39v-842q0 -221 118 -342.5t308 -121.5q195 0 316.5 124.5t121.5 339.5v846l-133 37v19h308v-19zM510 1628v62h508v-62h-508z" />
    <glyph glyph-name="umacron" unicode="&#x16b;" horiz-adv-x="1243" 
d="M1081 68l123 -27v-23l-309 -24l-27 26l6 117l-6 6q-73 -75 -177 -114t-206 -39q-157 0 -240 88t-83 235v643l-123 27v23l309 32l27 -28v-662q0 -133 51.5 -211t161.5 -78q73 0 149 34t131 95v768l-123 27v23l308 32l28 -28v-942zM367 1219v61h507v-61h-507z" />
    <glyph glyph-name="Ubreve" unicode="&#x16c;" horiz-adv-x="1472" 
d="M1298 1378v-846q0 -252 -154.5 -398t-406.5 -146q-253 0 -409 147.5t-156 396.5v842l-133 39v21h487v-21l-133 -39v-842q0 -221 118 -342.5t308 -121.5q195 0 316.5 124.5t121.5 339.5v846l-133 37v19h308v-19zM887 1696q0 51 30 81.5t78 30.5q47 0 76 -29.5t29 -74.5
q0 -61 -55.5 -106t-129.5 -63.5t-151 -18.5q-76 0 -150 18.5t-130 63.5t-56 106q0 45 30.5 74.5t76.5 29.5t76 -31t30 -81q0 -43 9.5 -73t21.5 -44.5t32 -22.5t31 -9t29 -1t29 1t31 9t32 22.5t21.5 44.5t9.5 73z" />
    <glyph glyph-name="ubreve" unicode="&#x16d;" horiz-adv-x="1243" 
d="M1081 68l123 -27v-23l-309 -24l-27 26l6 117l-6 6q-73 -75 -177 -114t-206 -39q-157 0 -240 88t-83 235v643l-123 27v23l309 32l27 -28v-662q0 -133 51.5 -211t161.5 -78q73 0 149 34t131 95v768l-123 27v23l308 32l28 -28v-942zM735 1325q0 52 29.5 82.5t77.5 30.5
q46 0 75 -30t29 -75q0 -61 -55.5 -106t-129.5 -63.5t-151 -18.5q-56 0 -112.5 11.5t-107 33.5t-82.5 60t-32 85q0 46 29.5 74.5t75.5 28.5q48 0 77 -30.5t29 -82.5q0 -42 9.5 -71.5t21.5 -44t32 -22t31 -8.5t29 -1q19 0 30.5 1t31.5 8.5t32 22t21.5 44t9.5 71.5z" />
    <glyph glyph-name="Uring" unicode="&#x16e;" horiz-adv-x="1472" 
d="M1298 1378v-846q0 -252 -154.5 -398t-406.5 -146q-253 0 -409 147.5t-156 396.5v842l-133 39v21h487v-21l-133 -39v-842q0 -221 118 -342.5t308 -121.5q195 0 316.5 124.5t121.5 339.5v846l-133 37v19h308v-19zM592 1655q0 76 47 121t123 45q77 0 125.5 -45t48.5 -121
q0 -77 -48 -121.5t-126 -44.5q-76 0 -123 44.5t-47 121.5zM672 1655q0 -57 25 -91t65 -34q41 0 66.5 34t25.5 91t-25.5 91t-66.5 34q-40 0 -65 -34t-25 -91z" />
    <glyph glyph-name="uring" unicode="&#x16f;" horiz-adv-x="1243" 
d="M1081 68l123 -27v-23l-309 -24l-27 26l6 117l-6 6q-73 -75 -177 -114t-206 -39q-157 0 -240 88t-83 235v643l-123 27v23l309 32l27 -28v-662q0 -133 51.5 -211t161.5 -78q73 0 149 34t131 95v768l-123 27v23l308 32l28 -28v-942zM432 1286q0 74 47 119t123 45
q77 0 125.5 -45t48.5 -119q0 -77 -48 -122.5t-126 -45.5q-76 0 -123 45.5t-47 122.5zM512 1286q0 -58 25 -92.5t65 -34.5q42 0 67 34.5t25 92.5q0 57 -25.5 91t-66.5 34q-40 0 -65 -34t-25 -91z" />
    <glyph glyph-name="Uhungarumlaut" unicode="&#x170;" horiz-adv-x="1472" 
d="M1298 1378v-846q0 -252 -154.5 -398t-406.5 -146q-253 0 -409 147.5t-156 396.5v842l-133 39v21h487v-21l-133 -39v-842q0 -221 118 -342.5t308 -121.5q195 0 316.5 124.5t121.5 339.5v846l-133 37v19h308v-19zM414 1522l268 288l117 -116l-365 -195zM770 1522l268 288
l117 -116l-364 -195z" />
    <glyph glyph-name="uhungarumlaut" unicode="&#x171;" horiz-adv-x="1243" 
d="M1081 68l123 -27v-23l-309 -24l-27 26l6 117l-6 6q-73 -75 -177 -114t-206 -39q-157 0 -240 88t-83 235v643l-123 27v23l309 32l27 -28v-662q0 -133 51.5 -211t161.5 -78q73 0 149 34t131 95v768l-123 27v23l308 32l28 -28v-942zM264 1153l268 289l117 -119l-364 -193z
M618 1153l271 289l117 -119l-365 -193z" />
    <glyph glyph-name="Uogonek" unicode="&#x172;" horiz-adv-x="1472" 
d="M963 -334l10 -10q-102 -102 -199 -102q-117 0 -117 124q0 79 46 162t128 154q-47 -6 -94 -6q-253 0 -409 147.5t-156 396.5v842l-133 39v21h487v-21l-133 -39v-842q0 -221 118 -342.5t308 -121.5q195 0 316.5 124.5t121.5 339.5v846l-133 37v19h308v-19l-134 -37v-846
q0 -218 -117 -359t-317 -175q-49 -71 -76.5 -151t-27.5 -136q0 -92 82 -92q33 0 66.5 13t54.5 34z" />
    <glyph glyph-name="uogonek" unicode="&#x173;" horiz-adv-x="1243" 
d="M1180 -326l12 -12q-100 -100 -199 -100q-116 0 -116 125q0 81 47 163.5t131 155.5l-160 -12l-27 26l6 117l-6 6q-73 -75 -177 -114t-206 -39q-157 0 -240 88t-83 235v643l-123 27v23l309 32l27 -28v-662q0 -133 51.5 -211t161.5 -78q73 0 149 34t131 95v768l-123 27v23
l308 32l28 -28v-942l123 -27v-23l-125 -10h6q-51 -71 -79.5 -152.5t-28.5 -138.5q0 -90 82 -90q35 0 68.5 13t52.5 34z" />
    <glyph glyph-name="Wcircumflex" unicode="&#x174;" horiz-adv-x="2435" 
d="M1649 0l-435 1040l-426 -1040h-65l-576 1374l-131 39v21h494v-21l-135 -39l471 -1149l346 869l-119 280l-131 39v21h494v-21l-136 -39l472 -1149l462 1149l-180 39v21h365v-21l-140 -39l-563 -1374h-67zM1223 1810h30l277 -288l-21 -23l-270 160l-270 -160l-21 23z" />
    <glyph glyph-name="wcircumflex" unicode="&#x175;" horiz-adv-x="1841" 
d="M1214 0l-290 698l-293 -698h-74l-414 965l-120 39v20h454v-20l-112 -39l311 -762l225 549l-90 213l-113 39v20h457v-20l-125 -39l303 -762l303 762l-168 39v20h344v-20l-129 -39l-393 -965h-76zM942 1442h33l274 -289l-20 -23l-271 158l-270 -158l-20 23z" />
    <glyph glyph-name="Ycircumflex" unicode="&#x176;" horiz-adv-x="1482" 
d="M375 1374l446 -706l453 706l-172 39v21h364v-21l-145 -39l-479 -751v-564l127 -39v-20h-480v20l134 39v564l-480 751l-127 39v21h494v-21zM727 1810h33l274 -288l-20 -23l-271 160l-270 -160l-20 23z" />
    <glyph glyph-name="ycircumflex" unicode="&#x177;" horiz-adv-x="1230" 
d="M590 -18l-447 983l-120 39v20h466v-20l-124 -39l335 -744l332 744l-170 39v20h346v-20l-131 -39l-434 -965q-41 -90 -70.5 -148.5t-63.5 -113.5t-65 -85.5t-68 -48.5t-79 -18q-29 0 -58 7.5t-57.5 23.5t-46.5 47t-18 72q0 54 28.5 83t75.5 29q50 0 80.5 -30t30.5 -82v-82
q12 -6 22 -6q29 0 58.5 25t60.5 75.5t57 103t60 130.5zM606 1442h31l276 -289l-20 -23l-270 158l-271 -158l-20 23z" />
    <glyph glyph-name="Ydieresis" unicode="&#x178;" horiz-adv-x="1482" 
d="M375 1374l446 -706l453 706l-172 39v21h364v-21l-145 -39l-479 -751v-564l127 -39v-20h-480v20l134 39v564l-480 751l-127 39v21h494v-21zM379 1647q0 55 37.5 93t93.5 38q57 0 95 -37.5t38 -93.5q0 -57 -38 -95.5t-95 -38.5q-56 0 -93.5 38.5t-37.5 95.5zM840 1647
q0 56 37 93.5t94 37.5q55 0 93 -38t38 -93q0 -57 -37.5 -95.5t-93.5 -38.5q-57 0 -94 38.5t-37 95.5z" />
    <glyph glyph-name="Zacute" unicode="&#x179;" horiz-adv-x="1255" 
d="M84 0v31l850 1362h-701l-98 -211h-35v252h1063v-31l-846 -1362h732l98 209h35v-250h-1098zM467 1522l285 288l116 -116l-379 -195z" />
    <glyph glyph-name="zacute" unicode="&#x17a;" horiz-adv-x="989" 
d="M74 0v31l610 958h-489l-66 -188h-35v223h807v-31l-608 -958h518l66 188h34v-223h-837zM336 1153l282 289l117 -119l-379 -193z" />
    <glyph glyph-name="Zdotaccent" unicode="&#x17b;" horiz-adv-x="1255" 
d="M84 0v31l850 1362h-701l-98 -211h-35v252h1063v-31l-846 -1362h732l98 209h35v-250h-1098zM489 1681q0 58 39.5 97t98.5 39t98 -39t39 -97q0 -60 -39 -98.5t-98 -38.5t-98.5 38.5t-39.5 98.5z" />
    <glyph glyph-name="zdotaccent" unicode="&#x17c;" horiz-adv-x="989" 
d="M74 0v31l610 958h-489l-66 -188h-35v223h807v-31l-608 -958h518l66 188h34v-223h-837zM356 1311q0 58 39.5 97.5t98.5 39.5q58 0 97.5 -39t39.5 -98t-39.5 -98t-97.5 -39q-59 0 -98.5 39.5t-39.5 97.5z" />
    <glyph glyph-name="Zcaron" unicode="&#x17d;" horiz-adv-x="1255" 
d="M84 0v31l850 1362h-701l-98 -211h-35v252h1063v-31l-846 -1362h732l98 209h35v-250h-1098zM643 1499h-31l-276 289l20 22l271 -157l270 157l21 -22z" />
    <glyph glyph-name="zcaron" unicode="&#x17e;" horiz-adv-x="989" 
d="M74 0v31l610 958h-489l-66 -188h-35v223h807v-31l-608 -958h518l66 188h34v-223h-837zM510 1130h-33l-274 289l20 23l271 -160l270 160l20 -23z" />
    <glyph glyph-name="longs" unicode="&#x17f;" horiz-adv-x="866" 
d="M162 1038v138q0 144 90.5 225.5t265.5 81.5q76 0 139 -18t106.5 -61.5t43.5 -105.5q0 -51 -27.5 -80.5t-74.5 -29.5q-52 0 -86.5 35.5t-34.5 95.5v117q-32 16 -60 16q-69 0 -109 -75t-40 -201v-1117l184 -39v-20h-520v20l123 39v924h-123v16z" />
    <glyph glyph-name="uni018F" unicode="&#x18f;" horiz-adv-x="1503" 
d="M197 1214l-23 23q203 209 524 209q322 0 514.5 -197t192.5 -530q0 -222 -88.5 -389t-244.5 -254.5t-357 -87.5q-277 0 -447 159t-170 412q0 67 15 113l37 39h1024q0 204 -58.5 352t-183.5 232.5t-307 84.5q-265 0 -428 -166zM713 23q203 0 330 170t131 485l-859 -47
q0 -302 102.5 -455t295.5 -153z" />
    <glyph glyph-name="florin" unicode="&#x192;" horiz-adv-x="782" 
d="M-123 -377q64 0 114.5 99t94.5 311l201 950h-154l4 16l164 39l29 138q32 145 139 226t283 81q75 0 134 -17t93.5 -59t21.5 -102q-11 -50 -45.5 -80.5t-81.5 -30.5q-51 0 -78 36.5t-14 94.5l23 111q-28 16 -55 16q-69 0 -125 -75t-82 -201l-33 -152h332l-11 -41h-331
l-201 -950q-46 -218 -163 -335.5t-290 -117.5q-102 0 -143.5 39t-28.5 100q10 50 49 82.5t87 32.5q50 0 74 -34t12 -89z" />
    <glyph glyph-name="uni01DD" unicode="&#x1dd;" horiz-adv-x="1142" 
d="M129 510h715q0 219 -98.5 339t-290.5 120q-177 0 -295 -121l-23 24q157 160 406 160q170 0 289 -68t175 -181t56 -261q0 -241 -144.5 -386.5t-369.5 -145.5q-201 0 -330 114.5t-129 296.5q0 46 10 80zM541 20q121 0 209 118t94 341l-545 -30q0 -211 63 -320t179 -109z
" />
    <glyph glyph-name="Aringacute" unicode="&#x1fa;" horiz-adv-x="1546" 
d="M614 1589q0 76 47 121t123 45q77 0 125.5 -45t48.5 -121q0 -65 -36 -108t-97 -54l574 -1368l131 -39v-20h-494v20l135 39l-172 416h-618l-180 -416l180 -39v-20h-365v20l140 39l596 1366q-63 9 -100.5 52.5t-37.5 111.5zM698 1208l-299 -690h582zM586 1749l284 289
l117 -117l-379 -195zM694 1589q0 -57 25 -91t65 -34q42 0 67.5 34t25.5 91q0 58 -25.5 92.5t-67.5 34.5q-40 0 -65 -34.5t-25 -92.5z" />
    <glyph glyph-name="aringacute" unicode="&#x1fb;" horiz-adv-x="1118" 
d="M750 123l-7 6q-71 -67 -166 -104t-200 -37q-138 0 -207.5 63t-69.5 174q0 139 118 209q94 55 333 99q51 9 164 27l1 1h1h1h1h1h1l1 1h1h1h1h1h1l1 1h1h1h1h1h1l1 1h1h1h1h1h1l1 1h1h2v193q0 108 -56 173.5t-157 65.5q-81 0 -151 -47v-166q0 -62 -35 -98.5t-90 -36.5
q-54 0 -88.5 34t-34.5 95q0 78 59 136.5t149.5 87t195.5 28.5q199 0 310 -87t111 -224v-625q0 -28 12 -39.5t38 -11.5q44 0 67 23l14 -15q-55 -55 -186 -55q-68 0 -106 29t-45 98zM743 176v359q-204 -32 -267 -53q-105 -35 -138 -109q-21 -49 -21 -121q0 -94 45.5 -143.5
t124.5 -49.5q69 0 137 31.5t119 85.5zM362 1241q0 76 47 121t123 45q77 0 126 -45t49 -121t-49 -121t-126 -45q-76 0 -123 45t-47 121zM442 1241q0 -57 25 -91t65 -34q42 0 67.5 34t25.5 91q0 58 -25.5 92.5t-67.5 34.5q-40 0 -65 -34.5t-25 -92.5zM334 1407l284 289
l117 -117l-379 -195z" />
    <glyph glyph-name="AEacute" unicode="&#x1fc;" horiz-adv-x="1726" 
d="M879 49l-72 426h-430l-176 -416l180 -39v-20h-365v20l140 39l583 1375h860v-252h-32l-97 211h-612l109 -631h385l43 160h30v-363h-30l-43 160h-379l117 -678h401l96 209h33v-250h-872v16zM684 1208l-291 -690h408zM780 1522l283 288l117 -116l-379 -195z" />
    <glyph glyph-name="aeacute" unicode="&#x1fd;" horiz-adv-x="1691" 
d="M743 129q-151 -141 -368 -141q-137 0 -206 59.5t-69 165.5q0 55 16.5 96.5t61 73.5t86 52.5t131 41t154.5 32t194 32.5v217q0 108 -56 173.5t-157 65.5q-81 0 -151 -47v-166q0 -62 -35 -98.5t-90 -36.5q-54 0 -88.5 34t-34.5 95q0 78 59 136.5t149 87t193 28.5
q189 0 299 -102q128 104 312 104q201 0 330 -114.5t129 -296.5q0 -45 -11 -82l-28 -27h-625v-315q95 -144 305 -144q182 0 303 121l23 -24q-81 -80 -181 -120t-235 -40q-265 0 -410 139zM743 174v336q-92 -14 -137.5 -22t-105 -22.5t-85 -31t-53 -43.5t-36.5 -63t-9 -86
q0 -90 45 -136.5t125 -46.5q68 0 136 31t120 84zM938 719v-172l457 26q0 210 -64 319t-180 109q-69 0 -130.5 -43.5t-102.5 -130.5q20 -50 20 -108zM686 1153l283 289l116 -119l-378 -193z" />
    <glyph glyph-name="Oslashacute" unicode="&#x1fe;" horiz-adv-x="1574" 
d="M170 0h-72l178 197q-178 197 -178 520q0 220 87.5 386t243.5 254.5t359 88.5q285 0 472 -172l145 160h74l-181 -199q181 -197 181 -518q0 -334 -191.5 -531.5t-499.5 -197.5q-289 0 -473 172zM1245 715q0 232 -63 395l-768 -842q61 -124 156.5 -187t217.5 -63
q206 0 331.5 180.5t125.5 516.5zM330 715q0 -230 61 -393l768 841q-61 124 -156.5 188t-214.5 64q-208 0 -333 -181t-125 -519zM627 1522l284 288l117 -116l-379 -195z" />
    <glyph glyph-name="oslashacute" unicode="&#x1ff;" horiz-adv-x="1193" 
d="M160 0h-80l131 141q-131 137 -131 369q0 236 143 379t375 143q203 0 340 -112l98 104h78l-135 -143q135 -141 135 -371q0 -237 -142.5 -378.5t-373.5 -141.5q-211 0 -344 112zM897 510q0 143 -31 248l-516 -553q77 -185 248 -185q137 0 218 127t81 363zM299 510
q0 -139 31 -244l514 551q-78 184 -246 184q-136 0 -217.5 -127t-81.5 -364zM436 1153l285 289l117 -119l-379 -193z" />
    <glyph glyph-name="Scommaaccent" unicode="&#x218;" horiz-adv-x="1206" 
d="M113 43v291h37q18 -77 55 -135.5t80 -92t96.5 -54t98 -27.5t91.5 -7q170 0 266.5 82.5t96.5 229.5q0 31 -5.5 58t-13.5 48.5t-24.5 41t-31 33.5t-41.5 28.5t-48.5 24.5t-58.5 22.5t-63.5 21t-72.5 21.5q-180 53 -252 89q-154 76 -192 212q-14 50 -14 110q0 179 119 292.5
t352 113.5q196 0 344 -96l86 59l20 -20v-291h-37q-17 76 -51 134.5t-73.5 92t-88 55t-89 28.5t-81.5 7q-149 0 -238 -80t-89 -209q0 -29 5.5 -54.5t13 -45.5t24.5 -38.5t30.5 -31.5t40.5 -27t45 -22.5t54.5 -21t57.5 -19.5t65 -20q65 -20 104 -33.5t96 -37.5t92 -46t75 -56
t62 -71t37 -88t15 -111q0 -89 -30.5 -163.5t-92 -131t-162 -88.5t-231.5 -32q-213 0 -371 96l-88 -61zM518 -512l-24 23q38 40 66 88.5t28 74.5q0 13 -8 21q-45 0 -75 29t-30 73t30.5 74.5t74.5 30.5t75 -30t31 -89q0 -42 -16.5 -85.5t-47 -85.5t-52 -67t-52.5 -57z" />
    <glyph glyph-name="scommaaccent" unicode="&#x219;" horiz-adv-x="935" 
d="M100 39v223h43q53 -242 301 -242q120 0 192.5 55.5t72.5 151.5q0 26 -6.5 48t-17 38.5t-30.5 31t-38 24t-49.5 20.5t-56 18t-65.5 17q-147 39 -206 72q-132 79 -134 237q0 137 89 218t274 81q146 0 262 -61l43 35l21 -21v-221h-41q-15 70 -46 119.5t-72 73.5t-79.5 34
t-79.5 10q-104 0 -165.5 -52.5t-61.5 -137.5q0 -42 15 -71.5t50 -50.5t69 -34t95 -30q157 -48 220 -83q146 -81 153 -234v-17q0 -139 -98 -220t-305 -81q-168 0 -285 63l-43 -35zM381 -512l-23 23q38 39 65.5 88t27.5 75q0 14 -7 21q-44 0 -74 29t-30 73t30 74.5t74 30.5
t75.5 -30t31.5 -89q0 -125 -170 -295z" />
    <glyph glyph-name="uni021A" unicode="&#x21a;" horiz-adv-x="1376" 
d="M1182 1393h-383v-1334l133 -39v-20h-488v20l134 39v1334h-381l-97 -211h-32v252h1243v-252h-35zM625 -512l-23 23q38 39 65 87.5t27 75.5q0 15 -6 21q-45 0 -75.5 29t-30.5 73t31 74.5t75 30.5t75.5 -30t31.5 -89q0 -125 -170 -295z" />
    <glyph glyph-name="uni021B" unicode="&#x21b;" horiz-adv-x="786" 
d="M37 983v16q104 25 182.5 95t128.5 166l27 -27v-209h336v-41h-336v-719q0 -98 43 -154.5t127 -56.5q92 0 164 72l22 -23q-109 -112 -278 -112q-143 0 -217 75t-74 199v719h-125zM360 -512l-24 23q38 40 66 88.5t28 74.5q0 13 -8 21q-45 0 -75 29t-30 73t30.5 74.5
t74.5 30.5t75 -30t31 -89q0 -42 -16.5 -85.5t-47 -85.5t-52 -67t-52.5 -57z" />
    <glyph glyph-name="dotlessj" unicode="&#x237;" 
d="M162 33v923l-123 27v23l309 32l27 -28v-977q0 -149 -79 -255.5t-237 -197.5l-22 23q66 95 95.5 197.5t29.5 232.5z" />
    <glyph glyph-name="circumflex" unicode="&#x2c6;" horiz-adv-x="749" 
d="M358 1442h33l275 -289l-21 -23l-270 158l-271 -158l-20 23z" />
    <glyph glyph-name="caron" unicode="&#x2c7;" horiz-adv-x="749" 
d="M391 1130h-33l-274 289l20 23l271 -160l270 160l21 -23z" />
    <glyph glyph-name="breve" unicode="&#x2d8;" horiz-adv-x="921" 
d="M584 1325q0 52 30 82.5t78 30.5q47 0 76 -30t29 -75q0 -61 -55.5 -106t-129.5 -63.5t-151 -18.5q-56 0 -112.5 11.5t-108 33.5t-83.5 60t-32 85q0 45 30 74t76 29q47 0 77 -30.5t30 -82.5q0 -42 9.5 -71.5t21.5 -44t32 -22t31 -8.5t29 -1t29 1t31 8.5t32 22t21.5 44
t9.5 71.5z" />
    <glyph glyph-name="dotaccent" unicode="&#x2d9;" horiz-adv-x="509" 
d="M117 1311q0 59 39.5 98t97.5 39t97.5 -39t39.5 -98t-39.5 -98t-97.5 -39t-97.5 39t-39.5 98z" />
    <glyph glyph-name="ring" unicode="&#x2da;" horiz-adv-x="499" 
d="M78 1286q0 74 47 119t123 45q77 0 125.5 -45t48.5 -119q0 -77 -48 -122.5t-126 -45.5q-76 0 -123 45.5t-47 122.5zM158 1286q0 -58 25 -92.5t65 -34.5q42 0 67 34.5t25 92.5q0 57 -25.5 91t-66.5 34q-40 0 -65 -34t-25 -91z" />
    <glyph glyph-name="ogonek" unicode="&#x2db;" horiz-adv-x="376" 
d="M322 -334l12 -10q-102 -102 -199 -102q-119 0 -119 124q0 81 48.5 165t134.5 157h28q-52 -70 -80 -151t-28 -138q0 -92 82 -92q33 0 66.5 13t54.5 34z" />
    <glyph glyph-name="tilde" unicode="&#x2dc;" horiz-adv-x="843" 
d="M102 1182l-24 24q99 100 155 139t99 39q39 0 115 -47t122 -47q38 0 88 25.5t91 66.5l26 -24q-182 -182 -264 -182q-31 0 -72 23.5t-85 47t-83 23.5q-83 0 -168 -88z" />
    <glyph glyph-name="hungarumlaut" unicode="&#x2dd;" horiz-adv-x="909" 
d="M84 1153l268 289l117 -119l-365 -193zM440 1153l269 289l116 -119l-364 -193z" />
    <glyph glyph-name="uni0400" unicode="&#x400;" horiz-adv-x="1267" 
d="M393 41h639l96 209h33v-250h-1122v16l133 33v1335l-133 31v19h1102v-252h-33l-96 211h-619v-631h500l43 160h31v-363h-31l-43 160h-500v-678zM508 1810l285 -288l-23 -23l-377 195z" />
    <glyph glyph-name="afii10023" unicode="&#x401;" horiz-adv-x="1267" 
d="M393 41h639l96 209h33v-250h-1122v16l133 33v1335l-133 31v19h1102v-252h-33l-96 211h-619v-631h500l43 160h31v-363h-31l-43 160h-500v-678zM272 1686q0 57 37.5 94t93.5 37q57 0 95.5 -37t38.5 -94t-38.5 -94.5t-95.5 -37.5q-56 0 -93.5 37.5t-37.5 94.5zM733 1686
q0 57 37 94t94 37q56 0 93.5 -37t37.5 -94t-37.5 -94.5t-93.5 -37.5q-57 0 -94 37.5t-37 94.5z" />
    <glyph glyph-name="afii10051" unicode="&#x402;" horiz-adv-x="1656" 
d="M1231 -221v-88q64 0 93.5 98t29.5 309v377q0 147 -57 233.5t-181 86.5q-83 0 -170 -35t-147 -92v-609l125 -39v-20h-480v20l134 39v1334h-385l-95 -211h-35v252h1250v-252h-33l-96 211h-385v-549l-6 -125l6 -6q88 72 214 112.5t236 40.5q165 0 244.5 -94t79.5 -258v-416
q0 -218 -94 -335t-269 -117q-103 0 -153.5 39.5t-50.5 99.5q0 52 32 83.5t80 31.5q50 0 81.5 -33.5t31.5 -87.5z" />
    <glyph glyph-name="afii10052" unicode="&#x403;" horiz-adv-x="1173" 
d="M436 1522l285 288l115 -116l-377 -195zM393 1393v-1334l195 -39v-20h-549v20l133 39v1325l-133 31v19h1055v-252h-35l-94 211h-572z" />
    <glyph glyph-name="afii10053" unicode="&#x404;" horiz-adv-x="1441" 
d="M1313 219l22 -22q-206 -209 -530 -209t-515.5 196t-191.5 533q0 335 191 532t508 197q122 0 233.5 -31t192.5 -92l86 51l20 -20v-283h-35q-17 82 -56 143.5t-84.5 95.5t-103.5 55t-105 27.5t-97 6.5q-248 0 -378.5 -165.5t-139.5 -481.5h743v-41h-743q2 -309 141 -483.5
t408 -174.5q271 0 434 166z" />
    <glyph glyph-name="afii10054" unicode="&#x405;" horiz-adv-x="1198" 
d="M113 43v291h37q18 -77 55 -135.5t80 -92t96.5 -54t98 -27.5t91.5 -7q170 0 266.5 82.5t96.5 229.5q0 31 -5.5 58t-13.5 48.5t-24.5 41t-31 33.5t-41.5 28.5t-48.5 24.5t-58.5 22.5t-63.5 21t-72.5 21.5q-180 53 -252 89q-154 76 -192 212q-14 50 -14 110q0 179 119 292.5
t352 113.5q196 0 344 -96l86 59l20 -20v-291h-37q-17 76 -51 134.5t-73.5 92t-88 55t-89 28.5t-81.5 7q-149 0 -238 -80t-89 -209q0 -29 5.5 -54.5t13 -45.5t24.5 -38.5t30.5 -31.5t40.5 -27t45 -22.5t54.5 -21t57.5 -19.5t65 -20q65 -20 104 -33.5t96 -37.5t92 -46t75 -56
t62 -71t37 -88t15 -111q0 -89 -30.5 -163.5t-92 -131t-162 -88.5t-231.5 -32q-213 0 -371 96l-88 -61z" />
    <glyph glyph-name="afii10055" unicode="&#x406;" horiz-adv-x="565" 
d="M391 1374v-1315l127 -39v-20h-477v20l133 39v1315l-133 39v21h477v-21z" />
    <glyph glyph-name="afii10056" unicode="&#x407;" horiz-adv-x="565" 
d="M391 1374v-1315l127 -39v-20h-477v20l133 39v1315l-133 39v21h477v-21zM-35 1647q0 56 37 93.5t94 37.5t94 -37.5t37 -93.5q0 -57 -37 -95.5t-94 -38.5t-94 38.5t-37 95.5zM338 1647q0 56 37 93.5t94 37.5t94 -37.5t37 -93.5q0 -57 -37 -95.5t-94 -38.5t-94 38.5
t-37 95.5z" />
    <glyph glyph-name="afii10057" unicode="&#x408;" horiz-adv-x="565" 
d="M174 33v1341l-133 39v21h475v-21l-125 -39v-1341q0 -149 -80 -255.5t-241 -197.5l-23 23q66 95 96.5 198t30.5 232z" />
    <glyph glyph-name="afii10058" unicode="&#x409;" horiz-adv-x="2228" 
d="M416 305l116 1079l-133 31v19h1051v-19l-133 -31v-591h272q242 0 391.5 -107t149.5 -289q0 -184 -149 -290.5t-392 -106.5h-624v16l133 33v1344h-525l-114 -1082q-17 -165 -68.5 -243t-146.5 -78q-44 0 -83.5 13t-70.5 49.5t-31 92.5q0 60 33.5 93.5t87.5 33.5
q55 0 89 -35t34 -96v-69q12 -4 19 -4q30 0 56 63.5t38 173.5zM1317 41h231q162 0 259.5 91.5t97.5 264.5q0 172 -97.5 262.5t-259.5 90.5h-231v-709z" />
    <glyph glyph-name="afii10059" unicode="&#x40a;" horiz-adv-x="2220" 
d="M39 20l133 39v1315l-133 39v21h487v-21l-133 -39v-602h699v602l-134 39v21h486v-21l-133 -39v-602h272q243 0 392 -103.5t149 -281.5q0 -179 -149 -283t-392 -104h-625v16l134 33v680h-699v-670l133 -39v-20h-487v20zM1311 41h229q162 0 260 89.5t98 256.5t-97.5 254.5
t-260.5 87.5h-229v-688z" />
    <glyph glyph-name="afii10060" unicode="&#x40b;" horiz-adv-x="1744" 
d="M799 668v-609l125 -39v-20h-480v20l134 39v1334h-385l-95 -211h-35v252h1250v-252h-33l-96 211h-385v-549l-6 -125l6 -6q88 72 214 112.5t236 40.5q165 0 244.5 -94t79.5 -260v-453l133 -39v-20h-489v20l137 39v420q0 93 -22.5 161.5t-77 111.5t-138.5 43q-83 0 -170 -35
t-147 -92z" />
    <glyph glyph-name="afii10061" unicode="&#x40c;" horiz-adv-x="1411" 
d="M1350 78l16 -17q-70 -73 -199 -73q-119 0 -180 71t-96 220l-43 192q-28 125 -96.5 185.5t-210.5 60.5h-156v-658l133 -39v-20h-487v20l133 39v1315l-133 39v21h487v-21l-133 -39v-618q143 0 224.5 64.5t115.5 185.5l41 147q14 53 27.5 92t36.5 79t51 65t69.5 41t93.5 16
q85 0 141 -39t56 -117q0 -60 -33 -93.5t-88 -33.5q-58 0 -90.5 36t-32.5 95v80q-13 8 -34 8q-95 0 -154 -227l-39 -149q-52 -190 -197 -252h39q204 0 308 -62.5t139 -210.5l45 -186q31 -133 63 -190.5t95 -57.5q42 0 88 31zM553 1522l283 288l116 -116l-379 -195z" />
    <glyph glyph-name="uni040D" unicode="&#x40d;" horiz-adv-x="1525" 
d="M637 1810l285 -288l-23 -23l-377 195zM39 20l133 39v1315l-133 39v21h487v-21l-133 -39v-1173l740 1142v31l-134 39v21h486v-21l-133 -39v-1315l133 -39v-20h-486v20l134 39v1180l-740 -1143v-37l133 -39v-20h-487v20z" />
    <glyph glyph-name="afii10062" unicode="&#x40e;" horiz-adv-x="1433" 
d="M862 1571v125q0 50 30.5 81t78.5 31q47 0 75.5 -29.5t28.5 -74.5q0 -61 -55.5 -106t-129.5 -63.5t-151 -18.5q-55 0 -111.5 11.5t-107 33t-82.5 59t-32 84.5q0 46 29 75t75 29t76 -31t30 -81v-125q67 -25 123 -25q59 0 123 25zM678 379l-516 995l-133 39v21h493v-21
l-133 -39l408 -786l424 786l-181 39v21h365v-21l-139 -39l-533 -983q-39 -73 -67.5 -121.5t-61.5 -98.5t-62 -80.5t-63.5 -55.5t-71 -36t-79.5 -11q-34 0 -67.5 7t-67.5 23t-55 48.5t-21 78.5q0 60 35 94.5t88 34.5q54 0 87 -33.5t33 -86.5v-101q12 -6 27 -6q69 0 140 88.5
t151 243.5z" />
    <glyph glyph-name="afii10145" unicode="&#x40f;" horiz-adv-x="1509" 
d="M688 0h-649v16l133 33v1325l-133 39v21h487v-21l-133 -39v-1333h725v1333l-133 39v21h485v-21l-133 -39v-1325l133 -33v-16h-643l-45 -311h-49z" />
    <glyph glyph-name="afii10017" unicode="&#x410;" horiz-adv-x="1546" 
d="M823 1434l576 -1375l131 -39v-20h-494v20l135 39l-172 416h-618l-180 -416l180 -39v-20h-365v20l140 39l600 1375h67zM698 1208l-299 -690h582z" />
    <glyph glyph-name="afii10018" unicode="&#x411;" horiz-adv-x="1318" 
d="M393 1393v-580h287q243 0 392 -108.5t149 -296.5t-149.5 -298t-391.5 -110h-641v16l133 33v1335l-133 31v19h1059v-252h-35l-94 211h-576zM393 41h246q162 0 259 94.5t97 272.5t-97 271t-259 93h-246v-731z" />
    <glyph glyph-name="afii10019" unicode="&#x412;" horiz-adv-x="1339" 
d="M39 1434h655q220 0 356 -96t136 -261q0 -134 -89 -223t-243 -119q180 -30 284.5 -124t104.5 -238q0 -171 -151.5 -272t-397.5 -101h-655v16l133 33v1335l-133 31v19zM393 41h260q165 0 265 87t100 249q0 164 -99.5 250t-265.5 86h-260v-672zM653 1393h-260v-639h260
q139 0 223.5 82t84.5 237q0 154 -85 237t-223 83z" />
    <glyph glyph-name="afii10020" unicode="&#x413;" horiz-adv-x="1173" 
d="M393 1393v-1334l195 -39v-20h-549v20l133 39v1325l-133 31v19h1055v-252h-35l-94 211h-572z" />
    <glyph glyph-name="afii10021" unicode="&#x414;" horiz-adv-x="1460" 
d="M1276 0h-1092l-98 -311h-49v352h162q34 13 63 83.5t41 180.5l117 1079l-133 31v19h1116v-19l-133 -31v-1343h153v-352h-49zM471 1393l-115 -1082q-21 -208 -88 -270h783v1352h-580z" />
    <glyph glyph-name="afii10022" unicode="&#x415;" horiz-adv-x="1267" 
d="M393 41h639l96 209h33v-250h-1122v16l133 33v1335l-133 31v19h1102v-252h-33l-96 211h-619v-631h500l43 160h31v-363h-31l-43 160h-500v-678z" />
    <glyph glyph-name="afii10024" unicode="&#x416;" horiz-adv-x="2168" 
d="M393 1374v-80q0 -59 -32.5 -95t-90.5 -36q-55 0 -87.5 33.5t-32.5 93.5q0 78 55.5 117t138.5 39q60 0 104.5 -20.5t75 -63.5t49.5 -90t39 -119l41 -147q34 -122 110 -186t210 -64v618l-133 39v21h487v-21l-133 -39v-618q134 0 209.5 64t109.5 186l43 147q19 72 39 121
t50.5 90.5t74.5 61.5t103 20q82 0 138 -39t56 -117q0 -60 -33 -93.5t-88 -33.5q-58 0 -90 35.5t-32 95.5v80q-13 8 -31 8q-84 0 -146 -227l-41 -149q-27 -91 -69 -154.5t-115 -97.5h41q203 0 303 -66.5t135 -236.5l31 -156q26 -129 58 -188.5t92 -59.5q43 0 86 31l16 -17
q-70 -73 -192 -73q-114 0 -175.5 73t-89.5 218l-28 161q-26 144 -92.5 210.5t-213.5 66.5h-149v-658l133 -39v-20h-487v20l133 39v658h-150q-146 0 -211.5 -66t-93.5 -211l-29 -161q-28 -146 -88.5 -218.5t-175.5 -72.5q-122 0 -192 73l16 17q43 -31 86 -31q59 0 91.5 58.5
t58.5 189.5l32 156q33 168 133.5 235.5t305.5 67.5h39q-131 60 -183 252l-41 149q-62 227 -147 227q-18 0 -31 -8z" />
    <glyph glyph-name="afii10025" unicode="&#x417;" horiz-adv-x="1249" 
d="M162 1106h-35v274l20 21l86 -45q69 44 169 67t204 23q218 0 353 -99.5t135 -269.5q0 -133 -87.5 -222t-240.5 -120q176 -28 280.5 -123t104.5 -239q0 -178 -150 -281.5t-393 -103.5q-110 0 -216.5 24t-178.5 70l-86 -47l-21 20v277h35q16 -73 53 -128t80 -86t97.5 -50
t97.5 -25t86 -6q170 0 270.5 87t100.5 253q0 167 -103.5 251.5t-281.5 84.5q-85 0 -176 -6v55q81 -8 176 -8q151 0 239 80.5t88 238.5q0 160 -85.5 243t-227.5 83q-37 0 -75.5 -5.5t-91 -24t-95 -48.5t-79.5 -86t-52 -129z" />
    <glyph glyph-name="afii10026" unicode="&#x418;" horiz-adv-x="1525" 
d="M39 20l133 39v1315l-133 39v21h487v-21l-133 -39v-1173l740 1142v31l-134 39v21h486v-21l-133 -39v-1315l133 -39v-20h-486v20l134 39v1180l-740 -1143v-37l133 -39v-20h-487v20z" />
    <glyph glyph-name="afii10027" unicode="&#x419;" horiz-adv-x="1525" 
d="M885 1612v123q0 52 29.5 82t76.5 30q49 0 78 -29.5t29 -74.5q0 -47 -32 -84.5t-83.5 -59.5t-108.5 -33.5t-112 -11.5t-112 11.5t-108.5 33.5t-83.5 60.5t-32 85.5q0 46 29.5 74t76.5 28t77 -30.5t30 -81.5v-123q60 -25 123 -25t123 25zM39 20l133 39v1315l-133 39v21h487
v-21l-133 -39v-1173l740 1142v31l-134 39v21h486v-21l-133 -39v-1315l133 -39v-20h-486v20l134 39v1180l-740 -1143v-37l133 -39v-20h-487v20z" />
    <glyph glyph-name="afii10028" unicode="&#x41a;" horiz-adv-x="1400" 
d="M1350 78l16 -17q-70 -73 -199 -73q-119 0 -180 71t-96 220l-43 192q-28 125 -96.5 185.5t-210.5 60.5h-156v-658l133 -39v-20h-487v20l133 39v1315l-133 39v21h487v-21l-133 -39v-618q143 0 224.5 64.5t115.5 185.5l41 147q14 53 27.5 92t36.5 79t51 65t69.5 41t93.5 16
q85 0 141 -39t56 -117q0 -60 -33 -93.5t-88 -33.5q-58 0 -90.5 36t-32.5 95v80q-13 8 -34 8q-95 0 -154 -227l-39 -149q-52 -190 -197 -252h39q204 0 308 -62.5t139 -210.5l45 -186q31 -133 63 -190.5t95 -57.5q42 0 88 31z" />
    <glyph glyph-name="afii10029" unicode="&#x41b;" horiz-adv-x="1521" 
d="M416 305l116 1079l-133 31v19h1082v-19l-133 -31v-1325l133 -39v-20h-486v20l133 39v1334h-544l-115 -1082q-34 -321 -225 -321q-44 0 -83.5 13t-70.5 49.5t-31 92.5q0 60 33.5 93.5t87.5 33.5q55 0 89 -35t34 -96v-69q12 -4 19 -4q30 0 56 63.5t38 173.5z" />
    <glyph glyph-name="afii10030" unicode="&#x41c;" horiz-adv-x="1884" 
d="M1632 1374l94 -1315l127 -39v-20h-479v20l133 39l-86 1186l-526 -1245h-68l-534 1247l-88 -1192l125 -39v-16h-301v16l133 39l96 1319l-133 39v21h313l512 -1209l508 1209h301v-21z" />
    <glyph glyph-name="afii10031" unicode="&#x41d;" horiz-adv-x="1525" 
d="M39 20l133 39v1315l-133 39v21h487v-21l-133 -39v-622h742v622l-134 39v21h486v-21l-133 -39v-1315l133 -39v-20h-486v20l134 39v650h-742v-650l133 -39v-20h-487v20z" />
    <glyph glyph-name="afii10032" unicode="&#x41e;" horiz-adv-x="1574" 
d="M98 717q0 220 87.5 386t243.5 254.5t359 88.5q202 0 358.5 -88.5t244.5 -255t88 -385.5q0 -334 -191.5 -531.5t-499.5 -197.5q-203 0 -359 87.5t-243.5 253.5t-87.5 388zM330 715q0 -336 125 -516.5t333 -180.5q206 0 331.5 180.5t125.5 516.5q0 337 -125.5 518.5
t-331.5 181.5q-208 0 -333 -181t-125 -519z" />
    <glyph glyph-name="afii10033" unicode="&#x41f;" horiz-adv-x="1509" 
d="M39 20l133 39v1325l-133 31v19h1431v-19l-133 -31v-1325l133 -39v-20h-485v20l133 39v1334h-725v-1334l133 -39v-20h-487v20z" />
    <glyph glyph-name="afii10034" unicode="&#x420;" horiz-adv-x="1282" 
d="M590 1393h-197v-1334l205 -39v-20h-559v20l133 39v1325l-133 31v19h577q246 0 397.5 -110t151.5 -300t-151.5 -300t-397.5 -110h-165l-27 27v14h166q159 0 254.5 95t95.5 274t-95.5 274t-254.5 95z" />
    <glyph glyph-name="afii10035" unicode="&#x421;" horiz-adv-x="1441" 
d="M1313 219l22 -24q-204 -207 -530 -207q-324 0 -515.5 196t-191.5 533q0 335 191 532t508 197q122 0 233.5 -31t192.5 -92l86 51l20 -20v-283h-35q-17 81 -58 143t-89 96t-108.5 55t-107 27.5t-93.5 6.5q-238 0 -373 -173.5t-135 -500.5q0 -153 34 -275.5t100.5 -211.5
t172.5 -137t244 -48q269 0 432 166z" />
    <glyph glyph-name="afii10036" unicode="&#x422;" horiz-adv-x="1376" 
d="M1196 1393h-383v-1334l133 -39v-20h-487v20l133 39v1334h-381l-96 -211h-33v252h1243v-252h-35z" />
    <glyph glyph-name="afii10037" unicode="&#x423;" horiz-adv-x="1433" 
d="M678 379l-516 995l-133 39v21h493v-21l-133 -39l408 -786l424 786l-181 39v21h365v-21l-139 -39l-533 -983q-39 -73 -67.5 -121.5t-61.5 -98.5t-62 -80.5t-63.5 -55.5t-71 -36t-79.5 -11q-34 0 -67.5 7t-67.5 23t-55 48.5t-21 78.5q0 60 35 94.5t88 34.5q54 0 87 -33.5
t33 -86.5v-101q12 -6 27 -6q69 0 140 88.5t151 243.5z" />
    <glyph glyph-name="afii10038" unicode="&#x424;" horiz-adv-x="1787" 
d="M1004 1374v-100q313 0 500.5 -149.5t187.5 -407.5q0 -260 -187 -409.5t-501 -149.5v-99l126 -39v-20h-479v20l133 39v99q-313 0 -499.5 149.5t-186.5 409.5q0 258 186.5 407.5t499.5 149.5v100l-133 39v21h479v-21zM784 188v1055q-211 0 -332.5 -135t-121.5 -393
q0 -257 121.5 -392t332.5 -135zM1004 1243v-1055q211 0 332.5 135t121.5 392q0 258 -121.5 393t-332.5 135z" />
    <glyph glyph-name="afii10039" unicode="&#x425;" horiz-adv-x="1519" 
d="M1133 59l-447 619l-459 -619l172 -39v-20h-366v20l145 39l481 650l-477 665l-125 39v21h488v-21l-133 -39l407 -573l408 573l-174 39v21h366v-21l-143 -39l-430 -606l514 -709l127 -39v-20h-490v20z" />
    <glyph glyph-name="afii10040" unicode="&#x426;" horiz-adv-x="1519" 
d="M1325 0h-1286v16l133 33v1325l-133 39v21h487v-21l-133 -39v-1333h715v1333l-133 39v21h485v-21l-133 -39v-1333h154v-352h-49z" />
    <glyph glyph-name="afii10041" unicode="&#x427;" horiz-adv-x="1433" 
d="M393 1374v-364q0 -170 66.5 -260.5t220.5 -90.5q84 0 186 24t174 67v624l-133 39v21h488v-21l-133 -39v-1315l133 -39v-20h-488v20l133 39v650q-89 -56 -215.5 -85.5t-238.5 -29.5q-208 0 -311 101.5t-103 285.5v393l-133 39v21h487v-21z" />
    <glyph glyph-name="afii10042" unicode="&#x428;" horiz-adv-x="2224" 
d="M39 16l133 33v1325l-133 39v21h487v-21l-133 -39v-1333h608v1333l-133 39v21h488v-21l-133 -39v-1333h608v1333l-133 39v21h487v-21l-133 -39v-1325l133 -33v-16h-2146v16z" />
    <glyph glyph-name="afii10043" unicode="&#x429;" horiz-adv-x="2244" 
d="M2050 0h-2011v16l133 33v1325l-133 39v21h487v-21l-133 -39v-1333h608v1333l-133 39v21h488v-21l-133 -39v-1333h608v1333l-133 39v21h487v-21l-133 -39v-1333h152v-352h-47z" />
    <glyph glyph-name="afii10044" unicode="&#x42a;" horiz-adv-x="1658" 
d="M750 1384v-591h270q242 0 391.5 -107t149.5 -289q0 -184 -149 -290.5t-392 -106.5h-625v16l133 33v1344h-321l-94 -211h-35v252h805v-19zM750 41h229q162 0 259 91.5t97 264.5q0 172 -97 262.5t-259 90.5h-229v-709z" />
    <glyph glyph-name="afii10045" unicode="&#x42b;" horiz-adv-x="1814" 
d="M393 1374v-581h273q241 0 390.5 -107t149.5 -289q0 -183 -149.5 -290t-390.5 -107h-627v16l133 33v1325l-133 39v21h487v-21zM393 41h230q162 0 260 91.5t98 264.5q0 172 -98 262.5t-260 90.5h-230v-709zM1640 1374v-1315l127 -39v-20h-479v20l133 39v1315l-133 39v21
h479v-21z" />
    <glyph glyph-name="afii10046" unicode="&#x42c;" horiz-adv-x="1302" 
d="M393 1374v-581h273q241 0 390.5 -107t149.5 -289q0 -183 -149.5 -290t-390.5 -107h-627v16l133 33v1325l-133 39v21h487v-21zM393 41h230q162 0 260 91.5t98 264.5q0 172 -98 262.5t-260 90.5h-230v-709z" />
    <glyph glyph-name="afii10047" unicode="&#x42d;" horiz-adv-x="1441" 
d="M1120 711h-743v41h743q-8 311 -137 479t-377 168q-38 0 -76 -4.5t-86.5 -16t-91.5 -35.5t-83 -58.5t-69.5 -89.5t-43.5 -124h-35v283l20 20l86 -51q82 61 194 92t232 31q317 0 509 -197t192 -532t-192.5 -532t-512.5 -197q-123 0 -238.5 31t-195.5 92l-86 -52l-20 21v280
h34q15 -68 45 -122t70.5 -88t83.5 -57.5t92 -35t87.5 -16t78.5 -4.5q253 0 386.5 169t133.5 505z" />
    <glyph glyph-name="afii10048" unicode="&#x42e;" horiz-adv-x="2052" 
d="M39 20l133 39v1315l-133 39v21h487v-21l-133 -39v-622h283q9 317 185 505.5t454 188.5q285 0 462 -198.5t177 -530.5q0 -222 -81 -388t-225.5 -253.5t-332.5 -87.5q-187 0 -331 87t-225.5 251t-82.5 383h-283v-650l133 -39v-20h-487v20zM907 715q0 -336 112 -516.5
t296 -180.5t295.5 180.5t111.5 516.5q0 338 -111.5 519t-295.5 181t-296 -181t-112 -519z" />
    <glyph glyph-name="afii10049" unicode="&#x42f;" horiz-adv-x="1349" 
d="M33 61l16 17q43 -31 86 -31q56 0 87 52.5t61 176.5l34 148q29 121 91 186t174 90q-188 22 -295 118.5t-107 246.5q0 171 140 270t372 99h619v-19l-133 -31v-1325l133 -39v-20h-498v20l145 39v625h-133q-137 0 -202 -66t-95 -202l-34 -152q-31 -137 -93.5 -206.5
t-175.5 -69.5q-122 0 -192 73zM958 1393h-239q-142 0 -227.5 -85.5t-85.5 -248.5q0 -164 85.5 -249t227.5 -85h239v668z" />
    <glyph glyph-name="afii10065" unicode="&#x430;" horiz-adv-x="1118" 
d="M750 123l-7 6q-71 -67 -166 -104t-200 -37q-138 0 -207.5 63t-69.5 174q0 139 118 209q94 55 333 99q51 9 164 27l1 1h1h1h1h1h1l1 1h1h1h1h1h1l1 1h1h1h1h1h1l1 1h1h1h1h1h1l1 1h1h2v193q0 108 -56 173.5t-157 65.5q-81 0 -151 -47v-166q0 -62 -35 -98.5t-90 -36.5
q-54 0 -88.5 34t-34.5 95q0 78 59 136.5t149.5 87t195.5 28.5q199 0 310 -87t111 -224v-625q0 -28 12 -39.5t38 -11.5q44 0 67 23l14 -15q-55 -55 -186 -55q-68 0 -106 29t-45 98zM743 176v359q-204 -32 -267 -53q-105 -35 -138 -109q-21 -49 -21 -121q0 -94 45.5 -143.5
t124.5 -49.5q69 0 137 31.5t119 85.5z" />
    <glyph glyph-name="afii10066" unicode="&#x431;" horiz-adv-x="1218" 
d="M219 825h8q48 93 156 150t246 57q228 0 368 -143t140 -383q0 -236 -140.5 -376t-378.5 -140q-245 0 -377 167t-132 517q0 139 21.5 251.5t58.5 187.5t88 131.5t108.5 88t121.5 53t126 29t122.5 14.5t110 11t90.5 16t62 33l26 -29q-32 -63 -81 -104t-103.5 -59t-116 -27
t-121.5 -14t-118 -15t-108 -35.5t-88.5 -69t-62 -122t-26.5 -189.5zM336 510q0 -236 79.5 -363t213.5 -127q133 0 212 127t79 363q0 238 -79 364.5t-212 126.5t-213 -127t-80 -364z" />
    <glyph glyph-name="afii10067" unicode="&#x432;" horiz-adv-x="1112" 
d="M39 1024h610q153 0 247.5 -67.5t94.5 -184.5q0 -95 -65.5 -160t-177.5 -86q137 -19 215.5 -87t78.5 -171q0 -124 -108 -196t-285 -72h-610v16l123 33v926l-123 31v18zM584 508h-209v-471h209q111 0 175 60t64 175t-64 175.5t-175 60.5zM375 547h209q87 0 138.5 56.5
t51.5 162.5q0 107 -51.5 163t-138.5 56h-209v-438z" />
    <glyph glyph-name="afii10068" unicode="&#x433;" horiz-adv-x="942" 
d="M776 983h-401v-924l184 -39v-20h-520v20l123 39v916l-123 31v18h835v-223h-32z" />
    <glyph glyph-name="afii10069" unicode="&#x434;" horiz-adv-x="1191" 
d="M1016 0h-840l-84 -274h-45v315h125q41 12 73 83t44 181l84 670l-123 31v18h883v-18l-123 -31v-934h137v-315h-45zM412 983l-78 -672q-24 -207 -98 -270h561v942h-385z" />
    <glyph glyph-name="afii10070" unicode="&#x435;" horiz-adv-x="1142" 
d="M1014 512h-715q0 -219 100.5 -339t296.5 -120q180 0 301 121l23 -24q-160 -160 -412 -160q-130 0 -232 39t-166 108t-97 161t-33 202q0 241 144 386.5t370 145.5q201 0 330 -114.5t129 -296.5q0 -45 -11 -82zM602 1001q-121 0 -209 -117.5t-94 -340.5l545 30
q0 211 -63 319.5t-179 108.5z" />
    <glyph glyph-name="afii10072" unicode="&#x436;" horiz-adv-x="1714" 
d="M1389 877v88q-6 4 -23 4q-75 0 -109 -148l-24 -108q-28 -123 -127 -172h41q158 0 236 -51t104 -173l24 -106q21 -91 41 -130.5t56 -39.5q31 0 59 22l14 -14q-27 -28 -75 -43.5t-101 -15.5q-49 0 -82.5 14t-55 45.5t-33 63.5t-25.5 88l-27 125q-25 99 -71.5 141.5
t-147.5 42.5h-98v-451l114 -39v-20h-450v20l123 39v451h-99q-103 0 -149.5 -42.5t-69.5 -141.5l-28 -125q-12 -54 -24.5 -87.5t-34 -64.5t-55.5 -45t-83 -14q-53 0 -101 15.5t-75 43.5l14 14q31 -22 59 -22q37 0 57.5 39t41.5 131l22 106q28 122 105.5 173t236.5 51h39
q-99 49 -127 172l-24 108q-34 148 -109 148q-14 0 -22 -4v-88q0 -52 -31 -82.5t-82 -30.5t-80 30t-29 87q0 78 53 115.5t128 37.5q93 0 144 -57t73 -158l24 -106q20 -77 77.5 -123.5t148.5 -46.5v422l-123 39v20h458v-20l-122 -39v-422q91 0 148 46t77 124l24 106
q48 215 218 215q75 0 126.5 -37t51.5 -116q0 -57 -29 -87t-78 -30q-53 0 -83.5 30.5t-30.5 82.5z" />
    <glyph glyph-name="afii10073" unicode="&#x437;" horiz-adv-x="1021" 
d="M340 506v49q76 -6 133 -6q219 0 219 219q0 115 -54 173t-153 58q-31 0 -64 -6.5t-72 -24.5t-70.5 -46t-57.5 -76.5t-35 -110.5h-43v252l21 21l45 -37q135 61 313 61q181 0 285 -69t104 -187q0 -95 -67.5 -160.5t-186.5 -85.5q137 -19 216 -87.5t79 -174.5
q0 -129 -117 -203.5t-327 -74.5q-107 0 -199 22.5t-154.5 72.5t-62.5 118q0 50 31 80t78 30q49 0 80.5 -35t31.5 -96v-119q81 -40 176 -40q116 0 180 64t64 187q0 238 -256 238q-60 0 -137 -6z" />
    <glyph glyph-name="afii10074" unicode="&#x438;" horiz-adv-x="1249" 
d="M39 20l123 39v906l-123 39v20h444v-20l-108 -39v-613l-6 -157l6 -7l499 740v37l-108 39v20h444v-20l-123 -39v-906l123 -39v-20h-444v20l108 39v613l7 157l-7 7l-499 -740v-37l108 -39v-20h-444v20z" />
    <glyph glyph-name="afii10075" unicode="&#x439;" horiz-adv-x="1249" 
d="M748 1202v123q0 52 30 82.5t78 30.5q47 0 76 -30t29 -75q0 -61 -55.5 -106t-129.5 -63.5t-151 -18.5q-56 0 -112.5 11.5t-108 33.5t-83.5 60t-32 85q0 45 30 74t76 29q47 0 77 -30.5t30 -82.5v-123q57 -24 123 -24t123 24zM39 20l123 39v906l-123 39v20h444v-20l-108 -39
v-613l-6 -157l6 -7l499 740v37l-108 39v20h444v-20l-123 -39v-906l123 -39v-20h-444v20l108 39v613l7 157l-7 7l-499 -740v-37l108 -39v-20h-444v20z" />
    <glyph glyph-name="afii10076" unicode="&#x43a;" horiz-adv-x="1161" 
d="M821 879v88q-9 6 -22 6q-80 0 -115 -152l-25 -108q-28 -124 -133 -172h37q167 0 248 -51t109 -173l24 -106q22 -92 43 -131t60 -39q30 0 61 22l16 -14q-28 -28 -77.5 -43.5t-102.5 -15.5q-51 0 -86.5 14t-58 45.5t-35.5 64t-27 87.5l-28 125q-25 99 -73.5 141.5
t-156.5 42.5h-104v-451l117 -39v-20h-453v20l123 39v906l-123 39v20h459v-20l-123 -39v-422q97 0 158.5 46t80.5 124l23 106q22 102 74 158.5t149 56.5q77 0 130.5 -36.5t53.5 -114.5q0 -57 -29.5 -87t-78.5 -30q-51 0 -83 31t-32 82z" />
    <glyph glyph-name="afii10077" unicode="&#x43b;" horiz-adv-x="1191" 
d="M362 305l72 670l-123 31v18h840v-18l-123 -31v-916l123 -39v-20h-442v20l108 39v924h-342l-69 -672q-34 -321 -209 -321q-66 0 -115 35.5t-49 111.5q0 55 28.5 85t75.5 30q51 0 82 -30t31 -81v-69q12 -4 18 -4q30 0 56 63.5t38 173.5z" />
    <glyph glyph-name="afii10078" unicode="&#x43c;" horiz-adv-x="1470" 
d="M1278 965l43 -906l123 -39v-20h-459v20l123 39l-41 813l-385 -872h-59l-394 877l-43 -822l123 -39v-16h-282v16l123 39l45 910l-123 39v20h313l352 -799l355 799h309v-20z" />
    <glyph glyph-name="afii10079" unicode="&#x43d;" horiz-adv-x="1247" 
d="M39 20l123 39v906l-123 39v20h442v-20l-106 -39v-418h497v418l-106 39v20h442v-20l-123 -39v-906l123 -39v-20h-442v20l106 39v445h-497v-445l106 -39v-20h-442v20z" />
    <glyph glyph-name="afii10080" unicode="&#x43e;" horiz-adv-x="1193" 
d="M80 510q0 236 143 379t375 143q230 0 373 -143t143 -379q0 -237 -142.5 -378.5t-373.5 -141.5q-232 0 -375 141.5t-143 378.5zM299 510q0 -236 81.5 -363t217.5 -127q137 0 218 127t81 363q0 237 -81 364t-218 127q-136 0 -217.5 -127t-81.5 -364z" />
    <glyph glyph-name="afii10081" unicode="&#x43f;" horiz-adv-x="1247" 
d="M39 20l123 39v916l-123 31v18h1169v-18l-123 -31v-916l123 -39v-20h-442v20l106 39v924h-497v-924l106 -39v-20h-442v20z" />
    <glyph glyph-name="afii10082" unicode="&#x440;" horiz-adv-x="1191" 
d="M39 -410v21l123 39v1306l-123 27v23l309 32l27 -28l-6 -113l6 -6q134 141 336 141q198 0 299.5 -134.5t101.5 -362.5q0 -260 -131 -402.5t-367 -142.5q-138 0 -239 55v-395l184 -39v-21h-520zM375 846v-770q106 -56 200 -56q153 0 236.5 126.5t83.5 355.5
q0 206 -78.5 332.5t-208.5 126.5q-138 0 -233 -115z" />
    <glyph glyph-name="afii10083" unicode="&#x441;" horiz-adv-x="1136" 
d="M778 772v176q-85 53 -174 53q-145 0 -225 -123t-80 -335q0 -232 96.5 -362t284.5 -130q178 0 301 123l23 -24q-160 -160 -408 -160q-252 0 -384 140t-132 378q0 245 135.5 384.5t384.5 139.5q111 0 207.5 -29t160.5 -91t64 -144q0 -64 -35 -97.5t-92 -33.5
q-58 0 -92.5 36.5t-34.5 98.5z" />
    <glyph glyph-name="afii10084" unicode="&#x442;" horiz-adv-x="1103" 
d="M938 983h-281v-924l123 -39v-20h-458v20l122 39v924h-280l-64 -182h-32v223h968v-223h-35z" />
    <glyph glyph-name="afii10085" unicode="&#x443;" horiz-adv-x="1230" 
d="M590 -18l-447 983l-120 39v20h466v-20l-124 -39l335 -744l332 744l-170 39v20h346v-20l-131 -39l-434 -965q-41 -90 -70.5 -148.5t-63.5 -113.5t-65 -85.5t-68 -48.5t-79 -18q-29 0 -58 7.5t-57.5 23.5t-46.5 47t-18 72q0 54 28.5 83t75.5 29q50 0 80.5 -30t30.5 -82v-82
q12 -6 22 -6q29 0 58.5 25t60.5 75.5t57 103t60 130.5z" />
    <glyph glyph-name="afii10086" unicode="&#x444;" horiz-adv-x="1669" 
d="M942 950q100 84 260 84q132 0 220.5 -64.5t127.5 -173t39 -257.5q0 -262 -121 -402.5t-340 -140.5q-89 0 -186 37v-383l123 -39v-21h-459v21l123 39v346l6 61l-6 6q-94 -75 -260 -75q-197 0 -293 133.5t-96 361.5q0 262 122 403.5t343 141.5q90 0 184 -37v416l-123 27v22
l307 33l29 -29v-432l-6 -72zM565 41q94 0 164 61v859q-72 34 -145 34q-137 0 -211 -125t-74 -360q0 -218 70.5 -343.5t195.5 -125.5zM1108 975q-95 0 -166 -62v-850q80 -34 145 -34q137 0 210 124t73 361q0 217 -69.5 339t-192.5 122z" />
    <glyph glyph-name="afii10087" unicode="&#x445;" horiz-adv-x="1198" 
d="M829 59l-303 406l-311 -406l164 -39v-20h-346v20l135 39l332 439l-340 467l-117 39v20h461v-20l-123 -39l281 -381l290 381l-164 39v20h347v-20l-134 -39l-313 -414l363 -492l116 -39v-20h-462v20z" />
    <glyph glyph-name="afii10088" unicode="&#x446;" horiz-adv-x="1261" 
d="M1085 0h-1046v16l123 33v916l-123 39v20h442v-20l-106 -39v-924h491v924l-108 39v20h444v-20l-123 -39v-924h135v-315h-45z" />
    <glyph glyph-name="afii10089" unicode="&#x447;" horiz-adv-x="1202" 
d="M375 965v-220q0 -280 194 -280q64 0 135.5 23.5t122.5 66.5v410l-106 39v20h442v-20l-123 -39v-906l123 -39v-20h-458v20l122 39v455q-70 -57 -166 -86t-188 -29q-154 0 -232.5 84.5t-78.5 231.5v250l-123 39v20h442v-20z" />
    <glyph glyph-name="afii10090" unicode="&#x448;" horiz-adv-x="1769" 
d="M778 965l-102 39v20h420v-20l-105 -39v-924h404v924l-105 39v20h441v-20l-123 -39v-916l123 -33v-16h-1692v16l123 33v916l-123 39v20h440v-20l-104 -39v-924h403v924z" />
    <glyph glyph-name="afii10091" unicode="&#x449;" horiz-adv-x="1789" 
d="M1614 0h-1575v16l123 33v916l-123 39v20h440v-20l-104 -39v-924h403v924l-102 39v20h420v-20l-105 -39v-924h404v924l-105 39v20h441v-20l-123 -39v-924h135v-315h-45z" />
    <glyph glyph-name="afii10092" unicode="&#x44a;" horiz-adv-x="1320" 
d="M750 1024v-20l-123 -39v-381h227q176 0 285.5 -79.5t109.5 -213.5t-109 -212.5t-286 -78.5h-563v16l123 33v934h-250l-64 -182h-32v223h682zM788 545h-161v-508h161q112 0 178 65.5t66 188.5t-66 188.5t-178 65.5z" />
    <glyph glyph-name="afii10093" unicode="&#x44b;" horiz-adv-x="1540" 
d="M602 0h-563v16l123 33v916l-123 39v20h459v-20l-123 -39v-381h227q177 0 287 -79.5t110 -213.5q0 -133 -110 -212t-287 -79zM539 545h-164v-508h164q110 0 175.5 65.5t65.5 188.5t-65.5 188.5t-175.5 65.5zM1376 965v-906l123 -39v-20h-459v20l123 39v906l-123 39v20h459
v-20z" />
    <glyph glyph-name="afii10094" unicode="&#x44c;" horiz-adv-x="1069" 
d="M602 0h-563v16l123 33v916l-123 39v20h459v-20l-123 -39v-381h227q177 0 287 -79.5t110 -213.5q0 -133 -110 -212t-287 -79zM539 545h-164v-508h164q110 0 175.5 65.5t65.5 188.5t-65.5 188.5t-175.5 65.5z" />
    <glyph glyph-name="afii10095" unicode="&#x44d;" horiz-adv-x="1101" 
d="M369 506v41h436q-6 215 -94.5 333.5t-241.5 118.5q-45 0 -87.5 -12t-85.5 -40t-74.5 -82.5t-43.5 -129.5h-43v252l21 21l45 -37q119 61 276 61q263 0 404 -143t141 -383t-137.5 -378t-395.5 -138q-101 0 -189.5 24t-148 75.5t-59.5 119.5q0 50 31 80t78 30q49 0 80.5 -35
t31.5 -96v-120q94 -48 179 -48q149 0 230 129t83 357h-436z" />
    <glyph glyph-name="afii10096" unicode="&#x44e;" horiz-adv-x="1642" 
d="M39 20l123 39v906l-123 39v20h442v-20l-106 -39v-420h200q10 222 145.5 354.5t348.5 132.5q220 0 357 -143t137 -379q0 -237 -137 -378.5t-357 -141.5t-356.5 140t-137.5 374h-200v-445l106 -39v-20h-442v20zM793 510q0 -237 75.5 -363.5t200.5 -126.5q126 0 200 127
t74 363q0 238 -74 364.5t-200 126.5q-125 0 -200.5 -127t-75.5 -364z" />
    <glyph glyph-name="afii10097" unicode="&#x44f;" horiz-adv-x="1167" 
d="M33 49l14 14q31 -22 62 -22q14 0 25 4t20.5 16t16 21.5t15 34t13 38.5t14.5 50l29 96q26 86 82 134t151 65q-148 14 -234.5 83t-86.5 177q0 122 108 193t285 71h579v-18l-122 -31v-916l122 -39v-20h-458v20l123 39v422h-103q-107 0 -163 -43t-83 -135l-28 -108
q-16 -55 -27.5 -84.5t-34 -61.5t-57 -45.5t-84.5 -13.5q-119 0 -178 59zM621 520h170v465h-170q-116 0 -183 -59t-67 -172t67.5 -173.5t182.5 -60.5z" />
    <glyph glyph-name="uni0450" unicode="&#x450;" horiz-adv-x="1142" 
d="M1014 512h-715q0 -219 100.5 -339t296.5 -120q180 0 301 121l23 -24q-160 -160 -412 -160q-130 0 -232 39t-166 108t-97 161t-33 202q0 241 144 386.5t370 145.5q201 0 330 -114.5t129 -296.5q0 -45 -11 -82zM602 1001q-121 0 -209 -117.5t-94 -340.5l545 30
q0 211 -63 319.5t-179 108.5zM473 1442l283 -289l-21 -23l-379 193z" />
    <glyph glyph-name="afii10071" unicode="&#x451;" horiz-adv-x="1142" 
d="M1014 512h-715q0 -219 100.5 -339t296.5 -120q180 0 301 121l23 -24q-160 -160 -412 -160q-130 0 -232 39t-166 108t-97 161t-33 202q0 241 144 386.5t370 145.5q201 0 330 -114.5t129 -296.5q0 -45 -11 -82zM602 1001q-121 0 -209 -117.5t-94 -340.5l545 30
q0 211 -63 319.5t-179 108.5zM227 1249q0 56 37 93.5t94 37.5t94 -37.5t37 -93.5q0 -57 -37 -94t-94 -37t-94 37t-37 94zM686 1249q0 55 38 93t93 38q57 0 95 -37.5t38 -93.5q0 -57 -38 -94t-95 -37q-56 0 -93.5 37t-37.5 94z" />
    <glyph glyph-name="afii10099" unicode="&#x452;" horiz-adv-x="1249" 
d="M39 20l123 39v1145h-123v17l123 24v162l-123 27v22l309 33l27 -29v-215h373v-41h-373v-180l-6 -139l6 -6q77 72 187 112.5t214 40.5q158 0 234.5 -93t76.5 -259v-647q0 -149 -78.5 -255.5t-236.5 -197.5l-22 23q65 94 94.5 197t29.5 233v612q0 316 -202 316
q-72 0 -155.5 -34.5t-141.5 -92.5v-775l123 -39v-20h-459v20z" />
    <glyph glyph-name="afii10100" unicode="&#x453;" horiz-adv-x="942" 
d="M322 1153l284 289l117 -119l-379 -193zM776 983h-401v-924l184 -39v-20h-520v20l123 39v916l-123 31v18h835v-223h-32z" />
    <glyph glyph-name="afii10101" unicode="&#x454;" horiz-adv-x="1116" 
d="M80 500q0 243 144.5 387.5t414.5 144.5q160 0 276 -61l46 37l20 -21v-252h-41q-10 62 -34 110.5t-53.5 77t-67 47t-71 25t-69.5 6.5q-159 0 -250 -120.5t-96 -333.5h494v-41h-494q0 -215 96.5 -334t284.5 -119q180 0 301 121l23 -24q-160 -160 -410 -160t-382 139
t-132 371z" />
    <glyph glyph-name="afii10102" unicode="&#x455;" horiz-adv-x="927" 
d="M94 39v223h41q55 -242 303 -242q120 0 192 55.5t72 151.5q0 37 -13 65t-32 46.5t-57 35t-70 26t-90 24.5q-147 39 -206 72q-132 79 -134 237q0 137 89 218t274 81q144 0 260 -61l45 35l20 -21v-221h-43q-14 70 -45 119.5t-71.5 73.5t-78.5 34t-79 10q-104 0 -165.5 -52.5
t-61.5 -137.5q0 -42 15 -71.5t50 -50.5t69 -34t95 -30q157 -48 220 -83q146 -81 153 -234v-17q0 -139 -98.5 -220t-305.5 -81q-167 0 -284 63l-43 -35z" />
    <glyph glyph-name="afii10103" unicode="&#x456;" 
d="M39 0v20l123 39v897l-123 27v23l309 32l27 -28v-951l123 -39v-20h-459zM109 1311q0 63 41 104t104 41t105 -41t42 -104t-42 -104.5t-105 -41.5t-104 41.5t-41 104.5z" />
    <glyph glyph-name="afii10104" unicode="&#x457;" 
d="M39 0v20l123 39v897l-123 27v23l309 32l27 -28v-951l123 -39v-20h-459zM-41 1276q0 57 37 94t94 37q56 0 93.5 -37t37.5 -94t-37.5 -94t-93.5 -37q-57 0 -94 37t-37 94zM295 1276q0 57 37.5 94t93.5 37q57 0 95 -37t38 -94t-38 -94t-95 -37q-56 0 -93.5 37t-37.5 94z" />
    <glyph glyph-name="afii10105" unicode="&#x458;" 
d="M162 33v923l-123 27v23l309 32l27 -28v-977q0 -149 -79 -255.5t-237 -197.5l-22 23q66 95 95.5 197.5t29.5 232.5zM109 1311q0 63 41 104t104 41t105 -41t42 -104t-42 -104.5t-105 -41.5t-104 41.5t-41 104.5z" />
    <glyph glyph-name="afii10106" unicode="&#x459;" horiz-adv-x="1722" 
d="M1255 0h-561v16l123 33v934h-342l-69 -672q-34 -321 -209 -321q-66 0 -115 35.5t-49 111.5q0 55 28.5 85t75.5 30q51 0 82 -30t31 -81v-69q12 -4 18 -4q30 0 56 63.5t38 173.5l72 670l-123 31v18h840v-18l-123 -33v-389h227q179 0 288.5 -79.5t109.5 -213.5
t-109.5 -212.5t-288.5 -78.5zM1192 545h-164v-508h164q110 0 176 65.5t66 188.5t-66 188.5t-176 65.5z" />
    <glyph glyph-name="afii10107" unicode="&#x45a;" horiz-adv-x="1765" 
d="M1313 0h-547v20l106 35v449h-497v-445l106 -39v-20h-442v20l123 39v906l-123 39v20h442v-20l-106 -39v-418h497v418l-106 39v20h442v-20l-123 -39v-418h228q170 0 276.5 -75t106.5 -200q0 -126 -106 -199t-277 -73zM1247 504h-162v-467h162q106 0 168 60t62 173
t-62.5 173.5t-167.5 60.5z" />
    <glyph glyph-name="afii10108" unicode="&#x45b;" horiz-adv-x="1249" 
d="M162 1245v162l-123 27v22l309 33l27 -29v-215h373v-41h-373v-180l-6 -139l6 -6q77 72 187 112.5t214 40.5q158 0 234.5 -93t76.5 -259v-621l123 -39v-20h-444v20l108 39v586q0 316 -202 316q-72 0 -155.5 -34.5t-141.5 -92.5v-775l108 -39v-20h-444v20l123 39v1145h-123
v17z" />
    <glyph glyph-name="afii10109" unicode="&#x45c;" horiz-adv-x="1161" 
d="M821 879v88q-9 6 -22 6q-80 0 -115 -152l-25 -108q-28 -124 -133 -172h37q167 0 248 -51t109 -173l24 -106q22 -92 43 -131t60 -39q30 0 61 22l16 -14q-28 -28 -77.5 -43.5t-102.5 -15.5q-51 0 -86.5 14t-58 45.5t-35.5 64t-27 87.5l-28 125q-25 99 -73.5 141.5
t-156.5 42.5h-104v-451l117 -39v-20h-453v20l123 39v906l-123 39v20h459v-20l-123 -39v-422q97 0 158.5 46t80.5 124l23 106q22 102 74 158.5t149 56.5q77 0 130.5 -36.5t53.5 -114.5q0 -57 -29.5 -87t-78.5 -30q-51 0 -83 31t-32 82zM420 1153l285 289l116 -119l-379 -193z
" />
    <glyph glyph-name="uni045D" unicode="&#x45d;" horiz-adv-x="1249" 
d="M500 1442l282 -289l-20 -23l-379 193zM39 20l123 39v906l-123 39v20h444v-20l-108 -39v-613l-6 -157l6 -7l499 740v37l-108 39v20h444v-20l-123 -39v-906l123 -39v-20h-444v20l108 39v613l7 157l-7 7l-499 -740v-37l108 -39v-20h-444v20z" />
    <glyph glyph-name="afii10110" unicode="&#x45e;" horiz-adv-x="1230" 
d="M772 1202v123q0 52 30.5 82.5t78.5 30.5q46 0 75 -30t29 -75q0 -61 -55.5 -106t-129.5 -63.5t-151 -18.5q-56 0 -112.5 11.5t-108 33.5t-83.5 60t-32 85q0 45 30.5 74t76.5 29q47 0 76.5 -30.5t29.5 -82.5v-123q57 -24 123 -24t123 24zM590 -18l-447 983l-120 39v20h466
v-20l-124 -39l335 -744l332 744l-170 39v20h346v-20l-131 -39l-434 -965q-41 -90 -70.5 -148.5t-63.5 -113.5t-65 -85.5t-68 -48.5t-79 -18q-29 0 -58 7.5t-57.5 23.5t-46.5 47t-18 72q0 54 28.5 83t75.5 29q50 0 80.5 -30t30.5 -82v-82q12 -6 22 -6q29 0 58.5 25t60.5 75.5
t57 103t60 130.5z" />
    <glyph glyph-name="afii10193" unicode="&#x45f;" horiz-adv-x="1247" 
d="M559 0h-520v16l123 33v916l-123 39v20h442v-20l-106 -39v-924h497v924l-106 39v20h442v-20l-123 -39v-916l123 -33v-16h-520l-43 -274h-43z" />
    <glyph glyph-name="afii10050" unicode="&#x490;" horiz-adv-x="1091" 
d="M39 1434h860l92 208h35v-249h-633v-1334l195 -39v-20h-549v20l133 39v1325l-133 31v19z" />
    <glyph glyph-name="afii10098" unicode="&#x491;" horiz-adv-x="874" 
d="M807 983h-432v-924l184 -39v-20h-520v20l123 39v916l-123 31v18h663l70 182h35v-223z" />
    <glyph glyph-name="uni04D8" unicode="&#x4d8;" horiz-adv-x="1503" 
d="M197 1214l-23 23q203 209 524 209q322 0 514.5 -197t192.5 -530q0 -222 -88.5 -389t-244.5 -254.5t-357 -87.5q-277 0 -447 159t-170 412q0 67 15 113l37 39h1024q0 204 -58.5 352t-183.5 232.5t-307 84.5q-265 0 -428 -166zM713 23q203 0 330 170t131 485l-859 -47
q0 -302 102.5 -455t295.5 -153z" />
    <glyph glyph-name="afii10846" unicode="&#x4d9;" horiz-adv-x="1142" 
d="M129 510h715q0 219 -98.5 339t-290.5 120q-177 0 -295 -121l-23 24q157 160 406 160q170 0 289 -68t175 -181t56 -261q0 -241 -144.5 -386.5t-369.5 -145.5q-201 0 -330 114.5t-129 296.5q0 46 10 80zM541 20q121 0 209 118t94 341l-545 -30q0 -211 63 -320t179 -109z
" />
    <glyph glyph-name="Wgrave" unicode="&#x1e80;" horiz-adv-x="2435" 
d="M1649 0l-435 1040l-426 -1040h-65l-576 1374l-131 39v21h494v-21l-135 -39l471 -1149l346 869l-119 280l-131 39v21h494v-21l-136 -39l472 -1149l462 1149l-180 39v21h365v-21l-140 -39l-563 -1374h-67zM1114 1810l285 -288l-23 -23l-379 195z" />
    <glyph glyph-name="wgrave" unicode="&#x1e81;" horiz-adv-x="1841" 
d="M1214 0l-290 698l-293 -698h-74l-414 965l-120 39v20h454v-20l-112 -39l311 -762l225 549l-90 213l-113 39v20h457v-20l-125 -39l303 -762l303 762l-168 39v20h344v-20l-129 -39l-393 -965h-76zM834 1442l282 -289l-20 -23l-379 193z" />
    <glyph glyph-name="Wacute" unicode="&#x1e82;" horiz-adv-x="2435" 
d="M1649 0l-435 1040l-426 -1040h-65l-576 1374l-131 39v21h494v-21l-135 -39l471 -1149l346 869l-119 280l-131 39v21h494v-21l-136 -39l472 -1149l462 1149l-180 39v21h365v-21l-140 -39l-563 -1374h-67zM1081 1522l283 288l117 -116l-379 -195z" />
    <glyph glyph-name="wacute" unicode="&#x1e83;" horiz-adv-x="1841" 
d="M1214 0l-290 698l-293 -698h-74l-414 965l-120 39v20h454v-20l-112 -39l311 -762l225 549l-90 213l-113 39v20h457v-20l-125 -39l303 -762l303 762l-168 39v20h344v-20l-129 -39l-393 -965h-76zM776 1153l283 289l117 -119l-379 -193z" />
    <glyph glyph-name="Wdieresis" unicode="&#x1e84;" horiz-adv-x="2435" 
d="M1661 0l-434 1040l-424 -1040h-68l-573 1374l-133 39v21h493v-21l-133 -39l469 -1149l346 869l-117 280l-131 39v21h494v-21l-135 -39l471 -1149l461 1149l-179 39v21h365v-21l-141 -39l-563 -1374h-68zM864 1647q0 55 38 93t93 38q57 0 94 -37.5t37 -93.5
q0 -57 -37 -95.5t-94 -38.5q-56 0 -93.5 38.5t-37.5 95.5zM1323 1647q0 56 38 93.5t95 37.5q56 0 93.5 -38t37.5 -93q0 -57 -37.5 -95.5t-93.5 -38.5q-57 0 -95 38.5t-38 95.5z" />
    <glyph glyph-name="wdieresis" unicode="&#x1e85;" horiz-adv-x="1841" 
d="M1214 0l-290 698l-293 -698h-74l-414 965l-120 39v20h454v-20l-112 -39l311 -762l225 549l-90 213l-113 39v20h457v-20l-125 -39l303 -762l303 762l-168 39v20h344v-20l-129 -39l-393 -965h-76zM596 1276q0 57 37.5 94t93.5 37q57 0 95 -37t38 -94t-38 -94t-95 -37
q-56 0 -93.5 37t-37.5 94zM1055 1276q0 57 38 94t95 37q56 0 93.5 -37t37.5 -94t-37.5 -94t-93.5 -37q-57 0 -95 37t-38 94z" />
    <glyph glyph-name="Ygrave" unicode="&#x1ef2;" horiz-adv-x="1482" 
d="M375 1374l446 -706l453 706l-172 39v21h364v-21l-145 -39l-479 -751v-564l127 -39v-20h-480v20l134 39v564l-480 751l-127 39v21h494v-21zM621 1810l282 -288l-20 -23l-379 195z" />
    <glyph glyph-name="ygrave" unicode="&#x1ef3;" horiz-adv-x="1230" 
d="M590 -18l-447 983l-120 39v20h466v-20l-124 -39l335 -744l332 744l-170 39v20h346v-20l-131 -39l-434 -965q-41 -90 -70.5 -148.5t-63.5 -113.5t-65 -85.5t-68 -48.5t-79 -18q-29 0 -58 7.5t-57.5 23.5t-46.5 47t-18 72q0 54 28.5 83t75.5 29q50 0 80.5 -30t30.5 -82v-82
q12 -6 22 -6q29 0 58.5 25t60.5 75.5t57 103t60 130.5zM498 1442l282 -289l-20 -23l-379 193z" />
    <glyph glyph-name="figuredash" unicode="&#x2012;" horiz-adv-x="1030" 
d="M78 686v62h874v-62h-874z" />
    <glyph glyph-name="endash" unicode="&#x2013;" horiz-adv-x="1030" 
d="M78 559v62h874v-62h-874z" />
    <glyph glyph-name="emdash" unicode="&#x2014;" horiz-adv-x="1439" 
d="M78 559v62h1284v-62h-1284z" />
    <glyph glyph-name="quoteleft" unicode="&#x2018;" horiz-adv-x="411" 
d="M283 1444l24 -25q-44 -44 -76 -100.5t-32 -87.5q0 -13 8 -25q54 0 89.5 -33.5t35.5 -87.5t-35.5 -88t-89.5 -34t-90.5 35.5t-36.5 103.5q0 48 19 97t57 99t62 76.5t65 69.5z" />
    <glyph glyph-name="quoteright" unicode="&#x2019;" horiz-adv-x="411" 
d="M129 963l-25 24q44 44 76.5 101t32.5 88q0 17 -8 22q-53 0 -89 35t-36 88t36 88t89 35q54 0 90.5 -35.5t36.5 -103.5q0 -48 -19.5 -97.5t-55.5 -97.5t-62.5 -78t-65.5 -69z" />
    <glyph glyph-name="quotesinglbase" unicode="&#x201a;" horiz-adv-x="411" 
d="M129 -238l-25 25q44 44 76.5 101t32.5 89q0 18 -8 23q-53 0 -89 34.5t-36 86.5q0 54 36 89.5t89 35.5t90 -36.5t37 -103.5q0 -48 -19.5 -98t-55 -98t-63 -79t-65.5 -69z" />
    <glyph glyph-name="quotedblleft" unicode="&#x201c;" horiz-adv-x="741" 
d="M612 1444l25 -25q-44 -44 -76.5 -100.5t-32.5 -87.5q0 -11 9 -25q53 0 89 -34t36 -87t-36 -87.5t-89 -34.5q-54 0 -90.5 35.5t-36.5 103.5q0 48 19 97t56.5 98.5t61.5 77t65 69.5zM283 1444l24 -25q-44 -44 -76 -100.5t-32 -87.5q0 -13 8 -25q54 0 89.5 -33.5t35.5 -87.5
t-35.5 -88t-89.5 -34t-90.5 35.5t-36.5 103.5q0 48 19 97t57 99t62 76.5t65 69.5z" />
    <glyph glyph-name="quotedblright" unicode="&#x201d;" horiz-adv-x="741" 
d="M129 963l-25 24q44 44 76.5 101t32.5 88q0 17 -8 22q-53 0 -89 35t-36 88t36 88t89 35q54 0 90.5 -35.5t36.5 -103.5q0 -48 -19.5 -97.5t-55.5 -97.5t-62.5 -78t-65.5 -69zM459 963l-25 24q44 44 76.5 101t32.5 88q0 17 -8 22q-53 0 -89 35t-36 88t36 88t89 35
q54 0 90.5 -35.5t36.5 -103.5q0 -48 -19.5 -97.5t-55.5 -97.5t-62.5 -78t-65.5 -69z" />
    <glyph glyph-name="quotedblbase" unicode="&#x201e;" horiz-adv-x="741" 
d="M129 -238l-25 25q44 44 76.5 101t32.5 89q0 18 -8 23q-53 0 -89 34.5t-36 86.5q0 54 36 89.5t89 35.5t90 -36.5t37 -103.5q0 -48 -19.5 -98t-55 -98t-63 -79t-65.5 -69zM459 -238l-25 25q44 44 76.5 101t32.5 89q0 18 -8 23q-53 0 -89 34.5t-36 86.5q0 54 36 89.5
t89 35.5t90 -36.5t37 -103.5q0 -48 -19.5 -98t-55 -98t-63 -79t-65.5 -69z" />
    <glyph glyph-name="dagger" unicode="&#x2020;" horiz-adv-x="1036" 
d="M496 1022q-7 98 -21.5 172t-25.5 111.5t-11 54.5q0 35 22.5 58.5t57.5 23.5q34 0 57 -23.5t23 -58.5q0 -17 -10.5 -54.5t-25 -111.5t-21.5 -172q98 7 172 21.5t111.5 25t54.5 10.5q35 0 58.5 -22.5t23.5 -57.5q0 -34 -23.5 -56.5t-58.5 -22.5q-17 0 -54.5 10.5t-111.5 25
t-172 21.5q7 -324 21.5 -568.5t25 -366t10.5 -173.5q0 -35 -22.5 -58.5t-57.5 -23.5q-34 0 -57 23.5t-23 58.5q0 52 11 173.5t25.5 366t21.5 568.5q-97 -7 -171 -21.5t-112 -25t-55 -10.5q-35 0 -57.5 22t-22.5 57q0 34 22.5 57t57.5 23q17 0 55 -10.5t112 -25t171 -21.5z
" />
    <glyph glyph-name="daggerdbl" unicode="&#x2021;" horiz-adv-x="1036" 
d="M496 1022q-7 98 -21.5 172t-25.5 111.5t-11 54.5q0 35 22.5 58.5t57.5 23.5q34 0 57 -23.5t23 -58.5q0 -17 -10.5 -54.5t-25 -111.5t-21.5 -172q98 7 172 21.5t111.5 25t54.5 10.5q35 0 58.5 -22.5t23.5 -57.5q0 -34 -23.5 -56.5t-58.5 -22.5q-17 0 -54.5 10.5t-111.5 25
t-172 21.5v-479q98 7 172 21.5t111.5 25t54.5 10.5q35 0 58.5 -22.5t23.5 -57.5q0 -34 -23.5 -57t-58.5 -23q-17 0 -54.5 11t-111.5 26t-172 23q7 -172 21.5 -302t25 -193.5t10.5 -90.5q0 -35 -22.5 -58.5t-57.5 -23.5q-34 0 -57 23.5t-23 58.5q0 26 11 90t25.5 194
t21.5 302q-97 -8 -171 -23t-112 -26t-55 -11q-35 0 -57.5 23t-22.5 57q0 35 22.5 57.5t57.5 22.5q17 0 55 -10.5t112 -25t171 -21.5v479q-97 -7 -171 -21.5t-112 -25t-55 -10.5q-35 0 -57.5 22t-22.5 57q0 34 22.5 57t57.5 23q17 0 55 -10.5t112 -25t171 -21.5z" />
    <glyph glyph-name="bullet" unicode="&#x2022;" horiz-adv-x="487" 
d="M63 614q0 76 53 128.5t128 52.5q76 0 128 -52t52 -129q0 -76 -52 -128t-128 -52q-75 0 -128 52t-53 128z" />
    <glyph glyph-name="ellipsis" unicode="&#x2026;" horiz-adv-x="1226" 
d="M80 119q0 54 36 90.5t89 36.5q55 0 91 -36.5t36 -90.5t-36 -90.5t-91 -36.5q-53 0 -89 36.5t-36 90.5zM487 119q0 54 36 90.5t89 36.5q54 0 90.5 -36.5t36.5 -90.5t-36.5 -90.5t-90.5 -36.5q-53 0 -89 36.5t-36 90.5zM895 119q0 54 36 90.5t89 36.5q54 0 90.5 -36.5
t36.5 -90.5t-36.5 -90.5t-90.5 -36.5q-53 0 -89 36.5t-36 90.5z" />
    <glyph glyph-name="perthousand" unicode="&#x2030;" horiz-adv-x="2189" 
d="M90 1075q0 168 84 269.5t217 101.5t216 -101t83 -270q0 -170 -82.5 -270t-216.5 -100t-217.5 100t-83.5 270zM233 1075q0 -164 43.5 -252t114.5 -88t114.5 88t43.5 252t-43.5 252t-114.5 88t-114.5 -88t-43.5 -252zM365 0h-80l852 1434h80zM809 358q0 168 84 269.5
t217 101.5t216 -101t83 -270q0 -170 -82.5 -270t-216.5 -100t-217.5 100t-83.5 270zM952 358q0 -164 43.5 -252t114.5 -88t114.5 88t43.5 252t-43.5 252t-114.5 88t-114.5 -88t-43.5 -252zM1497 358q0 168 84 269.5t217 101.5t216 -101t83 -270q0 -170 -82.5 -270
t-216.5 -100t-217.5 100t-83.5 270zM1640 358q0 -164 43.5 -252t114.5 -88t114.5 88t43.5 252t-43.5 252t-114.5 88t-114.5 -88t-43.5 -252z" />
    <glyph glyph-name="guilsinglleft" unicode="&#x2039;" horiz-adv-x="524" 
d="M76 557v33l330 315l22 -20l-199 -312l199 -311l-22 -20z" />
    <glyph glyph-name="guilsinglright" unicode="&#x203a;" horiz-adv-x="524" 
d="M449 590v-33l-330 -315l-23 20l199 311l-199 312l23 20z" />
    <glyph glyph-name="fraction" unicode="&#x2044;" horiz-adv-x="704" 
d="M70 0h-68l631 1434h67z" />
    <glyph glyph-name="Euro" unicode="&#x20ac;" horiz-adv-x="1441" 
d="M57 811v63h54q43 266 226.5 419t459.5 153q124 0 239.5 -31t200.5 -92h92v-252h-35q-17 81 -58 143t-89 96t-108.5 55t-107 27.5t-93.5 6.5q-209 0 -340 -135t-160 -390h723v-63h-729q-2 -29 -2 -86q0 -71 4 -104h727v-62h-721q35 -239 170.5 -372.5t370.5 -133.5
q269 0 432 166l22 -24q-204 -207 -530 -207q-284 0 -467.5 151t-226.5 420h-54v62h45q-4 62 -4 96q0 32 4 94h-45z" />
    <glyph glyph-name="uni20B4" unicode="&#x20b4;" horiz-adv-x="1153" 
d="M80 559v62h930v-62h-602q-109 -98 -109 -227q0 -126 99 -203.5t274 -77.5q206 0 329 123l23 -24q-84 -82 -191 -121t-251 -39q-238 0 -370 92t-132 237q0 135 121 240h-121zM80 811v63h604q102 92 102 230q0 129 -87 203.5t-259 74.5q-99 0 -174.5 -28.5t-140.5 -93.5
l-25 24q82 80 182 120t250 40q235 0 351 -90.5t116 -235.5t-116 -244h127v-63h-930z" />
    <glyph glyph-name="uni20BD" unicode="&#x20bd;" horiz-adv-x="1282" 
d="M39 381v18l133 25v190h-133v17l133 24v729l-133 31v19h577q246 0 397.5 -110t151.5 -300t-151.5 -300t-397.5 -110h-223v-190h424v-43h-424v-322l205 -39v-20h-559v20l133 39v322h-133zM590 1393h-197v-738h197q159 0 254.5 95t95.5 274t-95.5 274t-254.5 95z" />
    <glyph glyph-name="afii61352" unicode="&#x2116;" horiz-adv-x="2150" 
d="M39 16l133 39v1319l-133 39v21h364l809 -1127v1071l-133 37v19h310v-19l-134 -37v-1378h-63l-977 1356v-1301l133 -39v-16h-309v16zM1448 1075q0 168 84 269.5t217 101.5t216 -101t83 -270q0 -170 -82.5 -270t-216.5 -100t-217.5 100t-83.5 270zM1591 1075
q0 -164 43.5 -252t114.5 -88t114.5 88t43.5 252t-43.5 252t-114.5 88t-114.5 -88t-43.5 -252zM1458 559v62h580v-62h-580z" />
    <glyph glyph-name="trademark" unicode="&#x2122;" horiz-adv-x="1660" 
d="M598 1411h-178v-663l65 -19v-12h-262v12l66 19v663h-178l-54 -108h-16v131h627v-131h-17zM1524 1401l47 -653l61 -19v-12h-258v12l64 19l-39 579l-256 -610h-41l-260 612l-41 -584l61 -20v-8h-151v8l65 20l47 656l-65 20v13h172l248 -584l243 584h166v-13z" />
    <glyph glyph-name="arrowleft" unicode="&#x2190;" horiz-adv-x="1460" 
d="M88 573v33l330 316l22 -21l-180 -280h1112v-62h-1112l180 -280l-22 -21z" />
    <glyph glyph-name="arrowup" unicode="&#x2191;" horiz-adv-x="1460" 
d="M715 1233h30l318 -330l-23 -22l-278 180v-1114h-64v1114l-278 -180l-23 22z" />
    <glyph glyph-name="arrowright" unicode="&#x2192;" horiz-adv-x="1460" 
d="M1372 606v-33l-330 -315l-20 21l180 280h-1114v62h1114l-180 280l20 21z" />
    <glyph glyph-name="arrowdown" unicode="&#x2193;" horiz-adv-x="1460" 
d="M745 -53h-30l-318 329l23 23l278 -180v1114h64v-1114l278 180l23 -23z" />
    <glyph glyph-name="uni2196" unicode="&#x2196;" horiz-adv-x="1460" 
d="M264 1034l23 23l456 -10l2 -31l-325 -72l788 -786l-45 -45l-786 788l-72 -326l-31 3z" />
    <glyph glyph-name="uni2197" unicode="&#x2197;" horiz-adv-x="1460" 
d="M1174 1055l22 -21l-10 -459h-31l-70 324l-788 -786l-43 43l786 788l-325 72l2 28z" />
    <glyph glyph-name="uni2198" unicode="&#x2198;" horiz-adv-x="1460" 
d="M1196 145l-20 -22l-459 10v31l325 72l-788 788l45 43l786 -786l72 323l29 -2z" />
    <glyph glyph-name="uni2199" unicode="&#x2199;" horiz-adv-x="1460" 
d="M287 123l-23 22l10 457l31 2l70 -325l788 788l45 -45l-788 -786l325 -72l-2 -31z" />
    <glyph glyph-name="minus" unicode="&#x2212;" horiz-adv-x="927" 
d="M78 686v62h772v-62h-772z" />
    <glyph glyph-name="commaaccent" unicode="&#xf6c3;" horiz-adv-x="411" 
d="M143 -512l-24 23q38 40 66 88.5t28 74.5q0 13 -8 21q-45 0 -75 29t-30 73t30.5 74.5t74.5 30.5t75 -30t31 -89q0 -42 -16.5 -85.5t-47 -85.5t-52 -67t-52.5 -57z" />
    <glyph glyph-name="dollaroldstyle" unicode="&#xf724;" horiz-adv-x="935" 
d="M473 -102h-47v92q-154 3 -262 63l-43 -35l-21 21v223h43q51 -234 285 -242l6 406q-40 11 -62 17.5t-58 19t-56.5 24t-48 29t-43.5 38t-31.5 47t-22 60t-6.5 72.5q0 132 82.5 212.5t255.5 86.5l2 94h50l-2 -94q130 -6 237 -61l43 35l21 -21v-221h-41q-14 66 -43 114
t-66.5 73t-74 36.5t-76.5 13.5l-7 -378q39 -12 60 -18.5t57.5 -20t57 -23.5t50.5 -27t47 -33t37.5 -39t30.5 -47.5t17.5 -56t7.5 -67.5q0 -134 -92 -214.5t-285 -86.5zM709 227q0 79 -53.5 117t-172.5 70l-8 -394q107 8 170.5 62.5t63.5 144.5zM250 811q0 -72 45.5 -109
t142.5 -67l6 364q-90 -7 -142 -59t-52 -129z" />
    <glyph glyph-name="zerooldstyle" unicode="&#xf730;" horiz-adv-x="1310" 
d="M98 512q0 239 154 381.5t403 142.5t404 -142.5t155 -381.5q0 -240 -155 -382t-404 -142t-403 142t-154 382zM324 512q0 -238 90 -366t241 -128q150 0 242 128.5t92 365.5t-92 365.5t-242 128.5q-151 0 -241 -128t-90 -366z" />
    <glyph glyph-name="oneoldstyle" unicode="&#xf731;" horiz-adv-x="729" 
d="M94 0v20l170 39v887h-196v31l383 61l26 -28v-951l172 -39v-20h-555z" />
    <glyph glyph-name="twooldstyle" unicode="&#xf732;" horiz-adv-x="1017" 
d="M78 0v78q70 50 105 75.5t98.5 73t97.5 76.5t84.5 75t78.5 79.5t61.5 78.5t50 84.5t28.5 85t12 91.5q0 99 -56 151.5t-153 52.5q-48 0 -80.5 -11t-68.5 -38v-180q0 -62 -35.5 -98.5t-93.5 -36.5q-57 0 -92 33.5t-35 99.5q0 115 117 188.5t309 73.5q121 0 210.5 -26.5
t142 -84t52.5 -141.5q0 -54 -23 -110t-58.5 -104t-93 -100t-111.5 -92t-130 -88t-133 -80.5t-135 -74.5h611l69 188h35v-319h-864z" />
    <glyph glyph-name="threeoldstyle" unicode="&#xf733;" horiz-adv-x="1118" 
d="M803 102q0 82 -27 139.5t-77.5 89.5t-112.5 46t-142 14h-71v41h67q143 0 224 71.5t81 219.5q0 131 -63 201.5t-166 70.5q-92 0 -158 -47v-160q0 -62 -33.5 -98.5t-88.5 -36.5q-54 0 -88.5 33.5t-34.5 93.5q0 81 68 141t165 87.5t203 27.5q190 0 302 -86t112 -233
q0 -119 -78 -196t-221 -105q83 -15 145.5 -39.5t112 -62.5t75 -95t25.5 -131q0 -224 -233.5 -358t-634.5 -148l-21 21q183 19 315.5 65.5t208.5 114t111 146t35 173.5z" />
    <glyph glyph-name="fouroldstyle" unicode="&#xf734;" horiz-adv-x="1175" 
d="M932 -410h-213v410h-619v31q84 143 141 255.5t107 238.5t74 249.5t24 249.5h213q0 -138 -36.5 -267t-110.5 -252.5t-158.5 -229.5t-206.5 -234h572v401l184 187l29 -29v-559h147v-41h-147v-410z" />
    <glyph glyph-name="fiveoldstyle" unicode="&#xf735;" horiz-adv-x="1056" 
d="M756 111q0 148 -84.5 230.5t-245.5 82.5q-155 0 -256 -76l-23 25l64 645q407 0 666 35v-176h-603l-96 -486q136 84 326 84q229 0 349 -103t120 -274q0 -156 -103.5 -270t-292.5 -175.5t-450 -70.5l-21 21q650 75 650 508z" />
    <glyph glyph-name="sixoldstyle" unicode="&#xf736;" horiz-adv-x="1171" 
d="M313 754q109 112 303 112q207 0 334 -118.5t127 -317.5q0 -201 -128.5 -320.5t-340.5 -119.5q-251 0 -382.5 170.5t-131.5 474.5q0 393 217.5 604t612.5 246l20 -21q-164 -35 -282 -100.5t-190.5 -159t-110 -203t-48.5 -247.5zM311 657q0 -140 17 -254t50.5 -201
t89 -134.5t128.5 -47.5q121 0 192.5 110t71.5 300q0 185 -80 290t-205 105q-89 0 -159.5 -46t-104.5 -122z" />
    <glyph glyph-name="sevenoldstyle" unicode="&#xf737;" horiz-adv-x="1091" 
d="M586 -410h-213q0 125 25 246.5t63.5 218.5t94.5 206t109.5 196.5t118 204t109.5 215.5h-676l-82 -189h-33v336h877v-31q-38 -111 -102.5 -278.5t-108.5 -287.5t-89.5 -266.5t-69 -289.5t-23.5 -281z" />
    <glyph glyph-name="eightoldstyle" unicode="&#xf738;" horiz-adv-x="1150" 
d="M993 1145q0 -71 -21 -127.5t-60.5 -96t-82 -65.5t-98.5 -49q79 -32 131.5 -62.5t101 -77t72 -111.5t23.5 -150q0 -90 -28 -164t-86 -132t-157 -90t-233 -32q-230 0 -345.5 95t-115.5 255q0 78 26 140.5t75.5 107t101.5 74t123 57.5q-67 27 -112 55t-84.5 69.5t-59 101
t-19.5 138.5q0 86 24.5 157t75.5 128t138.5 89t204.5 32q200 0 302.5 -93t102.5 -249zM557 666q-57 19 -90 32q-65 -35 -105 -71.5t-67 -104t-27 -162.5q0 -340 305 -340q154 0 238 83t84 233q0 51 -9 90.5t-31.5 70.5t-46.5 53t-68 43.5t-81.5 36t-101.5 36.5zM616 852
l50 -18q82 55 121.5 123t39.5 178q0 155 -66.5 237t-191.5 82q-124 0 -195 -79.5t-71 -209.5q0 -45 8.5 -81t28 -65t43 -51t62.5 -43t76.5 -36.5t94.5 -36.5z" />
    <glyph glyph-name="nineoldstyle" unicode="&#xf739;" horiz-adv-x="1165" 
d="M848 270q-110 -110 -295 -110q-206 0 -332.5 115t-126.5 313q0 203 132 324.5t347 121.5q245 0 371.5 -163t126.5 -461q0 -202 -59.5 -355t-173 -252t-269.5 -153.5t-358 -67.5l-21 21q144 22 253 65t181 101t119.5 138t71 166.5t33.5 196.5zM854 367q0 141 -15 254
t-46.5 200.5t-85 135t-125.5 47.5q-126 0 -201.5 -114.5t-75.5 -305.5q0 -182 79.5 -282.5t203.5 -100.5q89 0 158.5 44.5t107.5 121.5z" />
    <glyph glyph-name="T_h" horiz-adv-x="2459" 
d="M1585 834v-775l109 -39v-20h-445v20l123 39v1334h-573v-1334l133 -39v-20h-488v20l134 39v1334h-381l-97 -211h-32v252h1181l307 47l29 -27v-430l-6 -139l6 -6q75 72 186 112.5t216 40.5q156 0 233.5 -93t77.5 -259v-621l123 -39v-20h-445v20l109 39v586q0 316 -203 316
q-73 0 -156.5 -34.5t-140.5 -92.5z" />
    <glyph glyph-name="T_h.caron" horiz-adv-x="2459" 
d="M1585 834v-775l109 -39v-20h-445v20l123 39v1334h-573v-1334l133 -39v-20h-488v20l134 39v1334h-381l-97 -211h-32v252h1181l307 47l29 -27v-430l-6 -139l6 -6q75 72 186 112.5t216 40.5q156 0 233.5 -93t77.5 -259v-621l123 -39v-20h-445v20l109 39v586q0 316 -203 316
q-73 0 -156.5 -34.5t-140.5 -92.5zM705 1499h-33l-275 289l21 22l270 -157l270 157l21 -22z" />
    <glyph glyph-name="T_h.commaaccent" horiz-adv-x="2459" 
d="M1585 834v-775l109 -39v-20h-445v20l123 39v1334h-573v-1334l133 -39v-20h-488v20l134 39v1334h-381l-97 -211h-32v252h1181l307 47l29 -27v-430l-6 -139l6 -6q75 72 186 112.5t216 40.5q156 0 233.5 -93t77.5 -259v-621l123 -39v-20h-445v20l109 39v586q0 316 -203 316
q-73 0 -156.5 -34.5t-140.5 -92.5zM625 -512l-23 23q38 39 65 87.5t27 75.5q0 15 -6 21q-45 0 -75.5 29t-30.5 73t31 74.5t75 30.5t75.5 -30t31.5 -89q0 -125 -170 -295z" />
    <glyph glyph-name="A.smcp" horiz-adv-x="1239" 
d="M659 1032l428 -985l99 -31v-16h-395v16l100 31l-125 287h-442l-129 -287l135 -31v-16h-277v16l107 31l442 985h57zM551 840l-213 -473h414z" />
    <glyph glyph-name="Aacute.smcp" horiz-adv-x="1239" 
d="M659 1032l428 -985l99 -31v-16h-395v16l100 31l-125 287h-442l-129 -287l135 -31v-16h-277v16l107 31l442 985h57zM551 840l-213 -473h414zM504 1094l211 221l98 -98l-293 -140z" />
    <glyph glyph-name="Abreve.smcp" horiz-adv-x="1239" 
d="M659 1032l428 -985l99 -31v-16h-395v16l100 31l-125 287h-442l-129 -287l135 -31v-16h-277v16l107 31l442 985h57zM551 840l-213 -473h414zM713 1217q0 42 24 66t62 24t61 -23t23 -59t-24.5 -63.5t-64 -43t-82.5 -23.5t-85 -8q-58 0 -113 13t-98 46t-43 81
q0 35 23.5 57.5t60.5 22.5q38 0 62 -24t24 -66q0 -30 6.5 -51.5t14.5 -32t21.5 -16t21.5 -6.5t20 -1q16 0 26.5 2t26.5 11t24.5 33t8.5 61z" />
    <glyph glyph-name="Acircumflex.smcp" horiz-adv-x="1239" 
d="M659 1032l428 -985l99 -31v-16h-395v16l100 31l-125 287h-442l-129 -287l135 -31v-16h-277v16l107 31l442 985h57zM551 840l-213 -473h414zM614 1315h27l205 -221l-15 -17l-204 113l-201 -113l-16 17z" />
    <glyph glyph-name="Agrave.smcp" horiz-adv-x="1239" 
d="M659 1032l428 -985l99 -31v-16h-395v16l100 31l-125 287h-442l-129 -287l135 -31v-16h-277v16l107 31l442 985h57zM551 840l-213 -473h414zM543 1315l209 -221l-15 -17l-295 140z" />
    <glyph glyph-name="Adieresis.smcp" horiz-adv-x="1239" 
d="M659 1032l428 -985l99 -31v-16h-395v16l100 31l-125 287h-442l-129 -287l135 -31v-16h-277v16l107 31l442 985h57zM551 840l-213 -473h414zM350 1190q0 44 30.5 73t76.5 29q44 0 74 -29t30 -73t-30 -73.5t-74 -29.5q-46 0 -76.5 29.5t-30.5 73.5zM694 1190q0 44 29.5 73
t75.5 29t76 -29t30 -73t-30 -73.5t-76 -29.5t-75.5 29.5t-29.5 73.5z" />
    <glyph glyph-name="Amacron.smcp" horiz-adv-x="1239" 
d="M659 1032l428 -985l99 -31v-16h-395v16l100 31l-125 287h-442l-129 -287l135 -31v-16h-277v16l107 31l442 985h57zM551 840l-213 -473h414zM434 1169v50h387v-50h-387z" />
    <glyph glyph-name="Aogonek.smcp" horiz-adv-x="1239" 
d="M1180 -244l6 -8q-78 -78 -150 -78q-86 0 -86 92q0 58 37.5 121t104.5 117h-301v16l100 31l-125 287h-442l-129 -287l135 -31v-16h-277v16l107 31l442 985h57l428 -985l99 -31v-16h-76q-38 -53 -59 -112.5t-21 -100.5q0 -63 60 -63q54 0 90 32zM551 840l-213 -473h414z
" />
    <glyph glyph-name="Aring.smcp" horiz-adv-x="1239" 
d="M659 1032l428 -985l99 -31v-16h-395v16l100 31l-125 287h-442l-129 -287l135 -31v-16h-277v16l107 31l442 985h57zM551 840l-213 -473h414zM500 1192q0 56 35 88.5t92 32.5q58 0 94.5 -32.5t36.5 -88.5q0 -55 -36.5 -88t-94.5 -33q-56 0 -91.5 33t-35.5 88zM563 1192
q0 -39 18.5 -63.5t45.5 -24.5q28 0 45.5 24t17.5 64q0 41 -17.5 65.5t-45.5 24.5q-27 0 -45.5 -25t-18.5 -65z" />
    <glyph glyph-name="Atilde.smcp" horiz-adv-x="1239" 
d="M659 1032l428 -985l99 -31v-16h-395v16l100 31l-125 287h-442l-129 -287l135 -31v-16h-277v16l107 31l442 985h57zM551 840l-213 -473h414zM381 1118l-19 17q81 81 123.5 111t75.5 30q27 0 86 -34t94 -34q30 0 68.5 17.5t69.5 48.5l18 -19q-147 -143 -207 -143
q-26 0 -85.5 35t-96.5 35q-60 0 -127 -64z" />
    <glyph glyph-name="AE.smcp" horiz-adv-x="1359" 
d="M678 39l-51 295h-308l-124 -287l135 -31v-16h-277v16l107 31l434 985h635v-188h-27l-78 155h-432l78 -450h270l35 119h25v-271h-25l-35 119h-264l84 -483h279l78 155h26v-188h-661v14zM541 840l-207 -473h289z" />
    <glyph glyph-name="AEacute.smcp" horiz-adv-x="1359" 
d="M678 39l-51 295h-308l-124 -287l135 -31v-16h-277v16l107 31l434 985h635v-188h-27l-78 155h-432l78 -450h270l35 119h25v-271h-25l-35 119h-264l84 -483h279l78 155h26v-188h-661v14zM541 840l-207 -473h289zM618 1094l209 221l99 -98l-291 -140z" />
    <glyph glyph-name="B.smcp" horiz-adv-x="1095" 
d="M70 1032h501q167 0 269 -69t102 -187q0 -95 -66.5 -159.5t-179.5 -86.5q132 -22 209.5 -90.5t77.5 -169.5q0 -126 -113 -198t-299 -72h-501v14l98 25v954l-98 25v14zM360 33h177q117 0 185.5 59.5t68.5 177.5q0 122 -68.5 183t-185.5 61h-177v-481zM537 999h-177v-454
h177q96 0 153.5 57t57.5 170t-57.5 170t-153.5 57z" />
    <glyph glyph-name="C.smcp" horiz-adv-x="1150" 
d="M1018 158l16 -17q-154 -151 -395 -151q-240 0 -383 142t-143 384q0 241 142.5 382.5t377.5 141.5q189 0 311 -82l72 39l14 -16v-213h-26q-14 59 -44.5 103t-65 68.5t-77.5 40t-77 20t-68 4.5q-171 0 -265 -121t-94 -361q0 -222 98 -349.5t298 -127.5q193 0 309 113z" />
    <glyph glyph-name="Cacute.smcp" horiz-adv-x="1150" 
d="M1018 158l16 -17q-154 -151 -395 -151q-240 0 -383 142t-143 384q0 241 142.5 382.5t377.5 141.5q189 0 311 -82l72 39l14 -16v-213h-26q-14 59 -44.5 103t-65 68.5t-77.5 40t-77 20t-68 4.5q-171 0 -265 -121t-94 -361q0 -222 98 -349.5t298 -127.5q193 0 309 113z
M512 1094l209 221l98 -98l-291 -140z" />
    <glyph glyph-name="Ccaron.smcp" horiz-adv-x="1150" 
d="M1018 158l16 -17q-154 -151 -395 -151q-240 0 -383 142t-143 384q0 241 142.5 382.5t377.5 141.5q189 0 311 -82l72 39l14 -16v-213h-26q-14 59 -44.5 103t-65 68.5t-77.5 40t-77 20t-68 4.5q-171 0 -265 -121t-94 -361q0 -222 98 -349.5t298 -127.5q193 0 309 113z
M643 1077h-27l-204 221l16 17l203 -113l200 113l17 -17z" />
    <glyph glyph-name="Ccedilla.smcp" horiz-adv-x="1150" 
d="M537 -166l92 156q-236 3 -376 144.5t-140 381.5q0 241 142.5 382.5t377.5 141.5q189 0 311 -82l72 39l14 -16v-213h-26q-14 59 -44.5 103t-65 68.5t-77.5 40t-77 20t-68 4.5q-171 0 -265 -121t-94 -361q0 -222 98 -349.5t298 -127.5q193 0 309 113l16 -17
q-148 -145 -379 -151l-34 -62q133 0 133 -71q0 -66 -150 -201l-12 10q67 63 67 117q0 29 -26 40t-96 11z" />
    <glyph glyph-name="Ccircumflex.smcp" horiz-adv-x="1150" 
d="M1018 158l16 -17q-154 -151 -395 -151q-240 0 -383 142t-143 384q0 241 142.5 382.5t377.5 141.5q189 0 311 -82l72 39l14 -16v-213h-26q-14 59 -44.5 103t-65 68.5t-77.5 40t-77 20t-68 4.5q-171 0 -265 -121t-94 -361q0 -222 98 -349.5t298 -127.5q193 0 309 113z
M618 1315h29l205 -221l-16 -17l-203 113l-203 -113l-14 17z" />
    <glyph glyph-name="Cdotaccent.smcp" horiz-adv-x="1150" 
d="M1018 158l16 -17q-154 -151 -395 -151q-240 0 -383 142t-143 384q0 241 142.5 382.5t377.5 141.5q189 0 311 -82l72 39l14 -16v-213h-26q-14 59 -44.5 103t-65 68.5t-77.5 40t-77 20t-68 4.5q-171 0 -265 -121t-94 -361q0 -222 98 -349.5t298 -127.5q193 0 309 113z
M518 1214q0 46 32 77.5t81 31.5q46 0 77 -31.5t31 -77.5q0 -47 -31 -78.5t-77 -31.5q-49 0 -81 31.5t-32 78.5z" />
    <glyph glyph-name="D.smcp" horiz-adv-x="1198" 
d="M70 1032h495q233 0 376.5 -139t143.5 -377q0 -240 -143 -378t-377 -138h-495v14l98 25v954l-98 25v14zM565 999h-205v-966h205q147 0 233.5 120.5t86.5 360.5q0 241 -86.5 363t-233.5 122z" />
    <glyph glyph-name="Dcaron.smcp" horiz-adv-x="1198" 
d="M70 1032h495q233 0 376.5 -139t143.5 -377q0 -240 -143 -378t-377 -138h-495v14l98 25v954l-98 25v14zM565 999h-205v-966h205q147 0 233.5 120.5t86.5 360.5q0 241 -86.5 363t-233.5 122zM596 1077h-27l-204 221l16 17l203 -113l202 113l17 -17z" />
    <glyph glyph-name="Dcroat.smcp" horiz-adv-x="1198" 
d="M70 510v14l98 17v452l-98 25v14h495q233 0 376.5 -139t143.5 -377q0 -240 -143 -378t-377 -138h-495v14l98 25v471h-98zM565 999h-205v-458h246v-31h-246v-477h205q147 0 233.5 120.5t86.5 360.5q0 241 -86.5 363t-233.5 122z" />
    <glyph glyph-name="Eth.smcp" horiz-adv-x="1198" 
d="M74 510v14l94 17v452l-98 25v14h495q233 0 376.5 -139t143.5 -377q0 -240 -143 -378t-377 -138h-495v14l98 25v471h-94zM565 999h-205v-458h246v-31h-246v-477h205q147 0 233.5 120.5t86.5 360.5q0 241 -86.5 363t-233.5 122z" />
    <glyph glyph-name="Thorn.smcp" horiz-adv-x="1042" 
d="M360 985v-160h158q184 0 298 -79t114 -214q0 -134 -113.5 -212t-298.5 -78h-115l-20 18v12h113q110 0 174.5 65.5t64.5 194.5t-64.5 196t-174.5 67h-136v-748l154 -31v-16h-444v16l98 31v938l-98 31v16h383v-16z" />
    <glyph glyph-name="E.smcp" horiz-adv-x="1032" 
d="M360 33h453l76 155h26v-188h-845v14l98 25v954l-98 25v14h829v-188h-27l-75 155h-437v-450h353l35 119h24v-271h-24l-35 119h-353v-483z" />
    <glyph glyph-name="Eacute.smcp" horiz-adv-x="1032" 
d="M360 33h453l76 155h26v-188h-845v14l98 25v954l-98 25v14h829v-188h-27l-75 155h-437v-450h353l35 119h24v-271h-24l-35 119h-353v-483zM391 1094l209 221l98 -98l-290 -140z" />
    <glyph glyph-name="Ebreve.smcp" horiz-adv-x="1032" 
d="M360 33h453l76 155h26v-188h-845v14l98 25v954l-98 25v14h829v-188h-27l-75 155h-437v-450h353l35 119h24v-271h-24l-35 119h-353v-483zM602 1217q0 42 23 66t61 24t61 -23t23 -59q0 -47 -43 -79.5t-98.5 -45.5t-112.5 -13q-42 0 -85 8t-82.5 23.5t-64 44t-24.5 64.5
q0 35 23.5 57.5t60.5 22.5q39 0 62.5 -24t23.5 -66q0 -37 8.5 -61t24.5 -33t26.5 -11t26.5 -2t26.5 2t26.5 11t24.5 33t8.5 61z" />
    <glyph glyph-name="Ecaron.smcp" horiz-adv-x="1032" 
d="M360 33h453l76 155h26v-188h-845v14l98 25v954l-98 25v14h829v-188h-27l-75 155h-437v-450h353l35 119h24v-271h-24l-35 119h-353v-483zM528 1077h-26l-205 221l16 17l201 -113l205 113l14 -17z" />
    <glyph glyph-name="Ecircumflex.smcp" horiz-adv-x="1032" 
d="M360 33h453l76 155h26v-188h-845v14l98 25v954l-98 25v14h829v-188h-27l-75 155h-437v-450h353l35 119h24v-271h-24l-35 119h-353v-483zM502 1315h26l205 -221l-14 -17l-205 113l-201 -113l-16 17z" />
    <glyph glyph-name="Edieresis.smcp" horiz-adv-x="1032" 
d="M360 33h453l76 155h26v-188h-845v14l98 25v954l-98 25v14h829v-188h-27l-75 155h-437v-450h353l35 119h24v-271h-24l-35 119h-353v-483zM240 1190q0 44 29 73t75 29q45 0 75 -29t30 -73t-30.5 -73.5t-74.5 -29.5q-46 0 -75 29.5t-29 73.5zM582 1190q0 44 30 73t76 29
q45 0 75 -29t30 -73t-30.5 -73.5t-74.5 -29.5q-46 0 -76 29.5t-30 73.5z" />
    <glyph glyph-name="Edotaccent.smcp" horiz-adv-x="1032" 
d="M360 33h453l76 155h26v-188h-845v14l98 25v954l-98 25v14h829v-188h-27l-75 155h-437v-450h353l35 119h24v-271h-24l-35 119h-353v-483zM406 1214q0 47 30.5 78t79.5 31q47 0 79 -31.5t32 -77.5q0 -47 -32 -78.5t-79 -31.5q-49 0 -79.5 31t-30.5 79z" />
    <glyph glyph-name="Egrave.smcp" horiz-adv-x="1032" 
d="M360 33h453l76 155h26v-188h-845v14l98 25v954l-98 25v14h829v-188h-27l-75 155h-437v-450h353l35 119h24v-271h-24l-35 119h-353v-483zM428 1315l211 -221l-16 -17l-291 140z" />
    <glyph glyph-name="Emacron.smcp" horiz-adv-x="1032" 
d="M360 33h453l76 155h26v-188h-845v14l98 25v954l-98 25v14h829v-188h-27l-75 155h-437v-450h353l35 119h24v-271h-24l-35 119h-353v-483zM324 1169v50h387v-50h-387z" />
    <glyph glyph-name="Eogonek.smcp" horiz-adv-x="1030" 
d="M911 -244l9 -8q-78 -78 -152 -78q-84 0 -84 92q0 58 37 121t102 117h-753v14l98 25v954l-98 25v14h829v-188h-27l-75 155h-437v-450h353l35 119h24v-271h-24l-35 119h-353v-483h453l76 155h26v-188h-71q-38 -53 -60 -112.5t-22 -100.5q0 -63 63 -63q54 0 86 32z" />
    <glyph glyph-name="F.smcp" horiz-adv-x="995" 
d="M678 516h-318v-469l144 -31v-16h-434v16l98 31v946l-98 25v14h809v-188h-27l-78 155h-414v-450h318l35 119h24v-271h-24z" />
    <glyph glyph-name="G.smcp" horiz-adv-x="1224" 
d="M1059 453v-404l-23 -20l-94 32q-130 -71 -299 -71q-245 0 -387.5 141.5t-142.5 384.5q0 242 143.5 383t382.5 141q190 0 309 -82l72 39l14 -16v-213h-24q-15 59 -45.5 103t-65 68.5t-78 40t-78 20t-69.5 4.5q-174 0 -267.5 -122t-93.5 -368q0 -220 90.5 -350.5
t264.5 -130.5q121 0 200 55v365l-100 28v19h385v-19z" />
    <glyph glyph-name="Gbreve.smcp" horiz-adv-x="1224" 
d="M1059 453v-404l-23 -20l-94 32q-130 -71 -299 -71q-245 0 -387.5 141.5t-142.5 384.5q0 242 143.5 383t382.5 141q190 0 309 -82l72 39l14 -16v-213h-24q-15 59 -45.5 103t-65 68.5t-78 40t-78 20t-69.5 4.5q-174 0 -267.5 -122t-93.5 -368q0 -220 90.5 -350.5
t264.5 -130.5q121 0 200 55v365l-100 28v19h385v-19zM721 1217q0 42 23 66t61 24t60 -23t22 -59q0 -47 -42.5 -79.5t-98 -45.5t-113.5 -13t-113 13t-98 46t-43 81q0 35 23.5 57.5t60.5 22.5q38 0 61 -24t23 -66q0 -37 9 -61t25 -33t26.5 -11t25.5 -2q16 0 27 2t27 11t25 33
t9 61z" />
    <glyph glyph-name="Gcircumflex.smcp" horiz-adv-x="1224" 
d="M1059 453v-404l-23 -20l-94 32q-130 -71 -299 -71q-245 0 -387.5 141.5t-142.5 384.5q0 242 143.5 383t382.5 141q190 0 309 -82l72 39l14 -16v-213h-24q-15 59 -45.5 103t-65 68.5t-78 40t-78 20t-69.5 4.5q-174 0 -267.5 -122t-93.5 -368q0 -220 90.5 -350.5
t264.5 -130.5q121 0 200 55v365l-100 28v19h385v-19zM623 1315h26l205 -221l-14 -17l-203 113l-203 -113l-14 17z" />
    <glyph glyph-name="Gcommaaccent.smcp" horiz-adv-x="1224" 
d="M1059 453v-404l-23 -20l-94 32q-130 -71 -299 -71q-245 0 -387.5 141.5t-142.5 384.5q0 242 143.5 383t382.5 141q190 0 309 -82l72 39l14 -16v-213h-24q-15 59 -45.5 103t-65 68.5t-78 40t-78 20t-69.5 4.5q-174 0 -267.5 -122t-93.5 -368q0 -220 90.5 -350.5
t264.5 -130.5q121 0 200 55v365l-100 28v19h385v-19zM594 -369l-16 17q27 29 48 63.5t21 52.5q0 12 -6 15q-34 0 -57 22t-23 56q0 33 23 55t57 22q33 0 57.5 -23t24.5 -65q0 -39 -24.5 -84t-47 -70.5t-57.5 -60.5z" />
    <glyph glyph-name="Gdotaccent.smcp" horiz-adv-x="1224" 
d="M1059 453v-404l-23 -20l-94 32q-130 -71 -299 -71q-245 0 -387.5 141.5t-142.5 384.5q0 242 143.5 383t382.5 141q190 0 309 -82l72 39l14 -16v-213h-24q-15 59 -45.5 103t-65 68.5t-78 40t-78 20t-69.5 4.5q-174 0 -267.5 -122t-93.5 -368q0 -220 90.5 -350.5
t264.5 -130.5q121 0 200 55v365l-100 28v19h385v-19zM524 1214q0 46 31.5 77.5t77.5 31.5q47 0 78.5 -31.5t31.5 -77.5q0 -47 -31.5 -78.5t-78.5 -31.5q-46 0 -77.5 31.5t-31.5 78.5z" />
    <glyph glyph-name="H.smcp" horiz-adv-x="1232" 
d="M70 16l98 31v938l-98 31v16h389v-16l-99 -31v-444h512v444l-98 31v16h389v-16l-98 -31v-938l98 -31v-16h-389v16l98 31v463h-512v-463l99 -31v-16h-389v16z" />
    <glyph glyph-name="Hbar.smcp" horiz-adv-x="1208" 
d="M70 748v12l98 18v207l-98 31v16h389v-16l-99 -31v-207h490v207l-98 31v16h387v-16l-99 -31v-207l99 -18v-12h-99v-701l99 -31v-16h-387v16l98 31v463h-490v-463l99 -31v-16h-389v16l98 31v701h-98zM360 541h490v207h-490v-207z" />
    <glyph glyph-name="Hcircumflex.smcp" horiz-adv-x="1232" 
d="M70 16l98 31v938l-98 31v16h389v-16l-99 -31v-444h512v444l-98 31v16h389v-16l-98 -31v-938l98 -31v-16h-389v16l98 31v463h-512v-463l99 -31v-16h-389v16zM602 1315h29l205 -221l-19 -17l-201 113l-202 -113l-17 17z" />
    <glyph glyph-name="I.smcp" horiz-adv-x="528" 
d="M358 985v-938l95 -31v-16h-381v16l98 31v938l-98 31v16h381v-16z" />
    <glyph glyph-name="Iacute.smcp" horiz-adv-x="528" 
d="M358 985v-938l95 -31v-16h-381v16l98 31v938l-98 31v16h381v-16zM141 1094l209 221l99 -98l-293 -140z" />
    <glyph glyph-name="Ibreve.smcp" horiz-adv-x="528" 
d="M358 985v-938l95 -31v-16h-381v16l98 31v938l-98 31v16h381v-16zM350 1217q0 42 23 66t61 24q39 0 61.5 -23t22.5 -59q0 -47 -42.5 -79.5t-98 -45.5t-113.5 -13t-113 13t-98 46t-43 81q0 36 23 58t61 22t61 -24t23 -66q0 -37 8.5 -61t24.5 -33t26.5 -11t26.5 -2t26.5 2
t26.5 11t24.5 33t8.5 61z" />
    <glyph glyph-name="Icircumflex.smcp" horiz-adv-x="528" 
d="M358 985v-938l95 -31v-16h-381v16l98 31v938l-98 31v16h381v-16zM250 1315h26l205 -221l-16 -17l-201 113l-205 -113l-14 17z" />
    <glyph glyph-name="Idieresis.smcp" horiz-adv-x="528" 
d="M358 985v-938l95 -31v-16h-381v16l98 31v938l-98 31v16h381v-16zM16 1190q0 44 30 73t75 29q46 0 75 -29t29 -73t-29.5 -73.5t-74.5 -29.5q-44 0 -74.5 29.5t-30.5 73.5zM303 1190q0 44 29.5 73t75.5 29q44 0 74 -29t30 -73t-30 -73.5t-74 -29.5q-46 0 -75.5 29.5
t-29.5 73.5z" />
    <glyph glyph-name="Idotaccent.smcp" horiz-adv-x="528" 
d="M358 985v-938l95 -31v-16h-381v16l98 31v938l-98 31v16h381v-16zM154 1214q0 46 31.5 77.5t78.5 31.5t79 -31.5t32 -77.5q0 -47 -32 -78.5t-79 -31.5t-78.5 31.5t-31.5 78.5z" />
    <glyph glyph-name="Igrave.smcp" horiz-adv-x="528" 
d="M358 985v-938l95 -31v-16h-381v16l98 31v938l-98 31v16h381v-16zM178 1315l209 -221l-14 -17l-293 140z" />
    <glyph glyph-name="Imacron.smcp" horiz-adv-x="528" 
d="M358 985v-938l95 -31v-16h-381v16l98 31v938l-98 31v16h381v-16zM72 1169v50h387v-50h-387z" />
    <glyph glyph-name="Iogonek.smcp" horiz-adv-x="526" 
d="M444 -244l9 -8q-75 -78 -150 -78q-86 0 -86 92q0 59 37 121.5t104 116.5h-286v16l98 31v938l-98 31v16h381v-16l-95 -31v-938l95 -31v-16h-76q-37 -53 -58.5 -113t-21.5 -100q0 -63 59 -63q56 0 88 32z" />
    <glyph glyph-name="Itilde.smcp" horiz-adv-x="526" 
d="M358 985v-938l95 -31v-16h-381v16l98 31v938l-98 31v16h381v-16zM16 1118l-18 17q80 80 123.5 110.5t75.5 30.5q29 0 87.5 -34t92.5 -34q31 0 68.5 17.5t68.5 48.5l18 -19q-147 -143 -206 -143q-25 0 -85 35t-96 35q-59 0 -129 -64z" />
    <glyph glyph-name="IJ.smcp" horiz-adv-x="966" 
d="M358 985v-938l95 -31v-16h-381v16l98 31v938l-98 31v16h381v-16zM608 31v954l-98 31v16h379v-16l-94 -31v-954q0 -110 -66.5 -188.5t-198.5 -145.5l-18 16q51 72 73.5 147t22.5 171z" />
    <glyph glyph-name="J.smcp" horiz-adv-x="528" 
d="M170 31v954l-98 31v16h381v-16l-97 -31v-954q0 -110 -66 -188.5t-198 -145.5l-16 16q94 137 94 318z" />
    <glyph glyph-name="Jcircumflex.smcp" horiz-adv-x="526" 
d="M170 31v954l-98 31v16h381v-16l-97 -31v-954q0 -110 -66 -188.5t-198 -145.5l-16 16q94 137 94 318zM250 1315h26l205 -221l-16 -17l-201 113l-205 -113l-14 17z" />
    <glyph glyph-name="K.smcp" horiz-adv-x="1153" 
d="M356 985v-508l496 508l-127 31v16h281v-16l-109 -31l-307 -315l411 -627l91 -27v-16h-271l-362 543l-103 -109v-387l99 -31v-16h-389v16l98 31v938l-98 31v16h389v-16z" />
    <glyph glyph-name="Kcommaaccent.smcp" horiz-adv-x="1153" 
d="M356 985v-508l496 508l-127 31v16h281v-16l-109 -31l-307 -315l411 -627l91 -27v-16h-271l-362 543l-103 -109v-387l99 -31v-16h-389v16l98 31v938l-98 31v16h389v-16zM528 -369l-16 17q28 28 49 62.5t21 53.5q0 12 -7 15q-34 0 -56.5 22t-22.5 56t22.5 55.5t56.5 21.5
q35 0 58.5 -23t23.5 -65q0 -39 -24.5 -84t-47 -70.5t-57.5 -60.5z" />
    <glyph glyph-name="L.smcp" horiz-adv-x="983" 
d="M360 33h400l76 155h26v-188h-792v14l98 25v946l-98 31v16h389v-16l-99 -31v-952z" />
    <glyph glyph-name="Lacute.smcp" horiz-adv-x="983" 
d="M360 33h400l76 155h26v-188h-792v14l98 25v946l-98 31v16h389v-16l-99 -31v-952zM141 1094l209 221l99 -98l-293 -140z" />
    <glyph glyph-name="Lcaron.smcp" horiz-adv-x="983" 
d="M358 33h402l74 155h26v-188h-790v14l98 25v946l-98 31v16h387v-16l-99 -31v-952zM276 1077h-26l-205 221l16 17l203 -113l201 113l16 -17z" />
    <glyph glyph-name="Lcommaaccent.smcp" horiz-adv-x="983" 
d="M360 33h400l76 155h26v-188h-792v14l98 25v946l-98 31v16h389v-16l-99 -31v-952zM446 -369l-16 17q27 27 47.5 62t20.5 54q0 13 -4 15q-34 0 -57 22t-23 56q0 33 23 55t57 22t57.5 -23t23.5 -65q0 -39 -24.5 -84t-47 -70.5t-57.5 -60.5z" />
    <glyph glyph-name="Ldot.smcp" horiz-adv-x="983" 
d="M360 33h400l76 155h26v-188h-792v14l98 25v946l-98 31v16h389v-16l-99 -31v-952zM608 516q0 42 28 70t71 28t71.5 -28.5t28.5 -69.5t-28.5 -69.5t-71.5 -28.5t-71 28t-28 70z" />
    <glyph glyph-name="Lslash.smcp" horiz-adv-x="985" 
d="M84 297l-25 22l111 107v559l-98 31v16h387v-16l-99 -31v-432l193 186l25 -24l-218 -209v-473h400l76 155h26v-188h-790v14l98 25v340z" />
    <glyph glyph-name="M.smcp" horiz-adv-x="1499" 
d="M1274 985l67 -938l97 -31v-16h-385v16l98 31l-59 832l-387 -879h-56l-391 879l-63 -836l94 -29v-14h-226v14l99 29l69 942l-98 31v16h254l369 -839l366 839h246v-16z" />
    <glyph glyph-name="N.smcp" horiz-adv-x="1144" 
d="M70 14l98 29v942l-98 31v16h295l577 -770v727l-98 29v14h229v-14l-98 -29v-989h-51l-723 969v-926l98 -29v-14h-229v14z" />
    <glyph glyph-name="Nacute.smcp" horiz-adv-x="1144" 
d="M70 14l98 29v942l-98 31v16h295l577 -770v727l-98 29v14h229v-14l-98 -29v-989h-51l-723 969v-926l98 -29v-14h-229v14zM449 1094l208 221l99 -98l-291 -140z" />
    <glyph glyph-name="Ncaron.smcp" horiz-adv-x="1144" 
d="M70 14l98 29v942l-98 31v16h295l577 -770v727l-98 29v14h229v-14l-98 -29v-989h-51l-723 969v-926l98 -29v-14h-229v14zM584 1077h-25l-205 221l15 17l202 -113l203 113l17 -17z" />
    <glyph glyph-name="Ncommaaccent.smcp" horiz-adv-x="1144" 
d="M70 14l98 29v942l-98 31v16h295l577 -770v727l-98 29v14h229v-14l-98 -29v-989h-51l-723 969v-926l98 -29v-14h-229v14zM522 -369l-16 17q28 28 48.5 62.5t20.5 53.5q0 11 -4 15q-35 0 -58.5 22t-23.5 56t23.5 55.5t58.5 21.5q33 0 56.5 -23t23.5 -65q0 -39 -24.5 -84
t-47 -70.5t-57.5 -60.5z" />
    <glyph glyph-name="Ntilde.smcp" horiz-adv-x="1144" 
d="M70 14l98 29v942l-98 31v16h295l577 -770v727l-98 29v14h229v-14l-98 -29v-989h-51l-723 969v-926l98 -29v-14h-229v14zM326 1118l-19 17q77 80 121.5 110.5t77.5 30.5q28 0 85.5 -34t92.5 -34q31 0 69.5 17.5t67.5 48.5l21 -19q-73 -69 -122.5 -106t-84.5 -37
q-27 0 -87 35t-95 35q-60 0 -127 -64z" />
    <glyph glyph-name="Eng.smcp" horiz-adv-x="1144" 
d="M70 14l98 29v942l-98 31v16h290l582 -907v864l-98 29v14h229v-14l-98 -29v-958q0 -110 -67 -188t-199 -146l-17 16q49 71 70.5 146.5t21.5 171.5v35l-583 903v-926l98 -29v-14h-229v14z" />
    <glyph glyph-name="O.smcp" horiz-adv-x="1251" 
d="M113 516q0 239 142 381.5t370 142.5q230 0 372 -142.5t142 -381.5q0 -241 -142 -383.5t-372 -142.5q-228 0 -370 143t-142 383zM313 514q0 -246 85.5 -374t226.5 -128q144 0 229.5 127.5t85.5 374.5q0 248 -85.5 376t-229.5 128q-141 0 -226.5 -128t-85.5 -376z" />
    <glyph glyph-name="Oacute.smcp" horiz-adv-x="1251" 
d="M113 516q0 239 142 381.5t370 142.5q230 0 372 -142.5t142 -381.5q0 -241 -142 -383.5t-372 -142.5q-228 0 -370 143t-142 383zM313 514q0 -246 85.5 -374t226.5 -128q144 0 229.5 127.5t85.5 374.5q0 248 -85.5 376t-229.5 128q-141 0 -226.5 -128t-85.5 -376zM500 1094
l211 221l98 -98l-291 -140z" />
    <glyph glyph-name="Obreve.smcp" horiz-adv-x="1251" 
d="M113 516q0 239 142 381.5t370 142.5q230 0 372 -142.5t142 -381.5q0 -241 -142 -383.5t-372 -142.5q-228 0 -370 143t-142 383zM313 514q0 -246 85.5 -374t226.5 -128q144 0 229.5 127.5t85.5 374.5q0 248 -85.5 376t-229.5 128q-141 0 -226.5 -128t-85.5 -376zM711 1217
q0 42 24 66t62 24t61 -23t23 -59t-24.5 -63.5t-64 -43t-82.5 -23.5t-85 -8q-58 0 -113 13t-98 46t-43 81q0 35 23.5 57.5t60.5 22.5q39 0 62.5 -24t23.5 -66q0 -30 6.5 -51.5t14.5 -32t21.5 -16t21.5 -6.5t20 -1q13 0 21.5 1t22 6.5t21.5 16t14.5 32t6.5 51.5z" />
    <glyph glyph-name="Ocircumflex.smcp" horiz-adv-x="1251" 
d="M113 516q0 239 142 381.5t370 142.5q230 0 372 -142.5t142 -381.5q0 -241 -142 -383.5t-372 -142.5q-228 0 -370 143t-142 383zM313 514q0 -246 85.5 -374t226.5 -128q144 0 229.5 127.5t85.5 374.5q0 248 -85.5 376t-229.5 128q-141 0 -226.5 -128t-85.5 -376zM612 1315
h27l205 -221l-15 -17l-204 113l-201 -113l-18 17z" />
    <glyph glyph-name="Odieresis.smcp" horiz-adv-x="1251" 
d="M113 516q0 239 142 381.5t370 142.5q230 0 372 -142.5t142 -381.5q0 -241 -142 -383.5t-372 -142.5q-228 0 -370 143t-142 383zM313 514q0 -246 85.5 -374t226.5 -128q144 0 229.5 127.5t85.5 374.5q0 248 -85.5 376t-229.5 128q-141 0 -226.5 -128t-85.5 -376zM348 1190
q0 44 30.5 73t76.5 29q44 0 74 -29t30 -73t-30 -73.5t-74 -29.5q-46 0 -76.5 29.5t-30.5 73.5zM692 1190q0 44 30.5 73t76.5 29q44 0 74 -29t30 -73t-30 -73.5t-74 -29.5q-46 0 -76.5 29.5t-30.5 73.5z" />
    <glyph glyph-name="Ograve.smcp" horiz-adv-x="1251" 
d="M113 516q0 239 142 381.5t370 142.5q230 0 372 -142.5t142 -381.5q0 -241 -142 -383.5t-372 -142.5q-228 0 -370 143t-142 383zM313 514q0 -246 85.5 -374t226.5 -128q144 0 229.5 127.5t85.5 374.5q0 248 -85.5 376t-229.5 128q-141 0 -226.5 -128t-85.5 -376zM539 1315
l211 -221l-17 -17l-293 140z" />
    <glyph glyph-name="Ohungarumlaut.smcp" horiz-adv-x="1251" 
d="M113 516q0 239 142 381.5t370 142.5q230 0 372 -142.5t142 -381.5q0 -241 -142 -383.5t-372 -142.5q-228 0 -370 143t-142 383zM313 514q0 -246 85.5 -374t226.5 -128q144 0 229.5 127.5t85.5 374.5q0 248 -85.5 376t-229.5 128q-141 0 -226.5 -128t-85.5 -376zM358 1094
l195 221l100 -98l-278 -140zM629 1094l194 221l101 -98l-279 -140z" />
    <glyph glyph-name="Omacron.smcp" horiz-adv-x="1251" 
d="M113 516q0 239 142 381.5t370 142.5q230 0 372 -142.5t142 -381.5q0 -241 -142 -383.5t-372 -142.5q-228 0 -370 143t-142 383zM313 514q0 -246 85.5 -374t226.5 -128q144 0 229.5 127.5t85.5 374.5q0 248 -85.5 376t-229.5 128q-141 0 -226.5 -128t-85.5 -376zM432 1169
v50h387v-50h-387z" />
    </font>
</defs>
</svg>
